<?xml version="1.0" encoding="utf-8"?>
<svg id="splitsvg" version="1.1" viewBox="490.018 293 399.964 217.34" xmlns="http://www.w3.org/2000/svg">
  <defs/>
  <path xmlns="http://www.w3.org/2000/svg" id="path4" d="M389.178 78.421 C 386.637 79.135,385.706 80.492,386.654 82.099 C 387.010 82.703,386.997 82.729,386.250 82.905 C 381.261 84.082,376.589 93.662,376.866 102.147 L 376.933 104.211 380.196 107.397 C 385.029 112.115,386.161 114.460,385.959 119.332 C 385.721 125.056,381.012 130.517,375.542 131.413 C 375.152 131.477,374.833 131.595,374.833 131.675 C 374.833 131.756,374.981 132.585,375.162 133.517 C 375.343 134.450,375.459 135.265,375.420 135.328 C 375.381 135.391,375.462 135.812,375.601 136.263 C 375.739 136.714,375.921 137.571,376.005 138.167 C 376.088 138.762,376.306 140.300,376.488 141.583 C 378.455 155.418,375.757 167.603,369.612 172.645 C 369.311 172.892,369.180 172.263,369.458 171.906 C 369.527 171.818,369.376 171.971,369.122 172.248 C 366.509 175.092,365.972 176.606,366.679 179.128 C 366.869 179.806,366.982 180.473,366.929 180.611 C 366.803 180.940,366.772 180.956,369.232 179.417 C 376.768 174.698,378.640 173.058,380.262 169.750 C 382.165 165.870,382.274 162.582,380.750 155.083 C 379.027 146.606,379.986 142.282,384.037 140.263 C 385.106 139.730,385.111 139.738,384.495 140.932 C 382.482 144.838,382.726 148.552,385.591 157.583 C 388.149 165.645,388.231 169.228,385.963 173.820 C 383.917 177.964,381.361 180.095,375.750 182.333 C 371.013 184.223,368.535 186.004,366.282 189.136 L 365.313 190.482 365.489 191.435 C 365.705 192.601,365.466 192.430,367.425 192.815 C 368.337 192.994,369.640 193.331,370.320 193.563 C 371.226 193.873,371.746 193.960,372.266 193.889 C 373.241 193.755,373.947 194.221,375.070 195.739 C 376.343 197.461,376.423 197.488,381.413 197.875 C 386.029 198.232,386.300 198.204,386.761 197.311 C 387.127 196.605,387.268 193.802,387.019 192.207 C 386.668 189.963,387.603 189.042,390.070 189.204 C 392.900 189.390,394.706 191.230,395.225 194.457 C 395.685 197.311,396.009 197.617,399.125 198.139 L 400.000 198.285 400.000 140.180 L 400.000 82.074 398.816 81.769 C 397.290 81.376,395.943 80.665,395.000 79.757 C 393.518 78.330,391.307 77.822,389.178 78.421 M8.917 95.161 C 7.392 95.801,5.833 99.241,5.833 101.965 L 5.833 103.193 5.133 102.593 C 3.954 101.584,2.745 101.422,1.996 102.171 C 1.363 102.804,1.452 102.967,4.091 106.000 C 6.136 108.350,6.210 108.634,4.658 108.164 C 3.392 107.780,0.168 107.109,0.069 107.209 C 0.031 107.247,0.018 130.415,0.041 158.693 L 0.083 210.108 6.167 208.805 C 25.907 204.577,27.733 204.402,36.333 205.917 C 37.112 206.054,37.815 206.166,37.894 206.166 C 38.697 206.168,36.556 199.587,34.317 195.167 C 32.700 191.977,32.298 191.607,31.284 192.378 C 29.300 193.886,26.987 193.690,26.471 191.970 C 26.132 190.838,26.884 190.033,28.530 189.766 C 29.187 189.659,30.333 188.725,30.333 188.297 C 30.333 188.106,30.015 188.025,28.953 187.943 C 26.149 187.728,25.190 187.267,22.670 184.927 C 21.563 183.899,20.233 182.848,19.505 182.426 C 16.732 180.817,14.741 177.499,14.537 174.147 C 14.397 171.841,15.421 172.542,17.080 175.887 C 18.310 178.365,18.938 177.124,17.909 174.250 C 17.114 172.031,17.229 170.250,18.166 170.250 C 18.552 170.250,18.665 170.527,20.342 175.549 C 22.400 181.710,22.776 182.418,23.448 181.392 C 24.042 180.484,23.856 177.682,23.022 175.000 C 21.564 170.312,22.098 169.040,23.985 172.703 C 24.691 174.073,24.724 174.069,24.930 172.583 C 25.207 170.583,25.756 170.560,26.352 172.524 C 26.785 173.949,26.722 175.053,26.088 177.167 C 24.944 180.981,25.368 182.266,28.250 183.718 C 31.604 185.407,36.675 192.582,38.050 197.583 L 38.279 198.417 38.409 196.633 C 38.968 188.959,35.095 179.583,28.582 172.840 C 24.616 168.733,23.548 166.626,21.507 158.875 C 21.361 158.320,21.243 158.167,20.963 158.167 C 18.017 158.167,14.394 150.159,16.079 147.373 C 16.674 146.388,17.118 147.059,17.922 150.162 C 18.681 153.094,19.533 154.816,20.471 155.318 C 20.766 155.476,20.777 155.442,20.637 154.785 C 20.555 154.399,20.443 152.642,20.388 150.881 C 20.275 147.281,20.392 146.758,21.286 146.865 C 22.263 146.982,22.565 148.057,23.257 153.892 C 23.784 158.339,24.250 160.242,25.418 162.708 C 25.977 163.887,26.078 163.895,26.424 162.792 L 26.697 161.917 26.120 160.961 C 25.369 159.720,25.000 158.207,25.000 156.373 C 25.000 152.993,26.350 153.901,26.983 157.706 C 27.155 158.738,27.306 159.396,27.319 159.167 C 27.381 158.100,28.174 154.422,28.388 154.207 C 29.015 153.580,29.939 154.700,30.105 156.288 C 30.330 158.446,28.976 163.466,27.726 165.103 C 27.156 165.850,27.152 165.869,27.435 166.306 C 27.948 167.098,29.687 169.345,32.422 172.750 C 38.657 180.512,39.752 183.148,40.003 191.000 C 40.129 194.927,40.316 196.643,40.550 196.000 C 43.211 188.666,43.261 186.870,40.909 183.065 C 40.315 182.104,39.534 180.731,39.173 180.013 C 38.638 178.949,38.384 178.630,37.791 178.283 C 35.748 177.086,31.672 171.123,30.643 167.827 C 29.918 165.506,30.196 161.083,31.066 161.083 C 31.826 161.083,32.056 161.818,32.175 164.633 C 32.240 166.170,32.372 167.427,32.490 167.649 C 32.813 168.251,32.856 167.972,32.638 166.703 C 32.142 163.806,33.345 160.938,34.552 162.144 C 34.888 162.480,34.904 162.638,34.861 165.077 C 34.785 169.390,35.377 171.917,36.839 173.534 L 37.486 174.250 37.494 168.750 C 37.498 165.725,37.580 162.413,37.675 161.391 C 37.849 159.532,37.849 159.531,37.440 159.121 C 36.004 157.686,35.284 153.697,36.212 152.321 C 37.391 150.571,38.476 151.403,38.511 154.083 L 38.525 155.083 38.989 153.494 C 39.748 150.901,40.128 150.385,40.903 150.892 C 41.665 151.391,41.736 152.085,41.241 154.195 C 40.328 158.086,39.906 160.676,39.603 164.232 C 39.506 165.368,39.616 165.305,40.155 163.917 C 41.038 161.644,43.034 159.063,43.621 159.433 C 44.642 160.077,43.980 163.610,42.250 166.750 C 39.514 171.714,39.562 171.534,40.176 174.546 C 40.589 176.574,41.149 177.839,42.610 180.052 C 43.227 180.986,43.978 182.200,44.279 182.750 L 44.826 183.750 44.830 183.072 C 44.832 182.699,44.980 181.837,45.160 181.155 L 45.487 179.917 45.088 178.917 C 43.701 175.436,43.856 169.873,45.451 165.917 C 46.479 163.366,47.704 165.682,46.949 168.750 L 46.826 169.250 47.288 168.716 C 49.135 166.583,49.587 168.948,47.878 171.799 C 46.440 174.198,46.268 174.654,46.383 175.770 C 46.519 177.088,46.677 177.133,47.322 176.038 C 47.631 175.513,48.925 173.527,50.196 171.625 C 51.468 169.723,52.443 168.167,52.363 168.167 C 52.283 168.167,52.326 167.743,52.458 167.226 C 52.758 166.048,52.622 165.059,52.059 164.315 C 51.492 163.566,50.333 161.187,50.333 160.773 C 50.333 160.592,50.289 160.489,50.235 160.542 C 50.109 160.669,47.737 158.834,47.790 158.651 C 47.811 158.574,47.705 158.560,47.554 158.618 C 47.371 158.688,47.318 158.659,47.398 158.530 C 47.470 158.413,47.432 158.367,47.300 158.414 C 46.933 158.544,45.283 157.296,44.881 156.583 C 44.519 155.940,44.308 153.861,44.625 154.058 C 44.694 154.100,44.762 153.861,44.776 153.526 C 44.791 153.191,44.856 152.017,44.922 150.917 C 45.127 147.499,43.672 142.957,41.903 141.489 C 40.585 140.395,44.830 139.708,48.083 140.489 C 51.329 141.268,52.808 141.049,54.344 139.561 C 55.101 138.827,55.106 138.825,55.677 139.063 C 56.767 139.516,58.044 139.570,58.882 139.199 C 59.938 138.732,60.293 138.000,59.464 138.000 C 59.181 138.000,59.194 137.942,59.595 137.417 C 60.306 136.484,59.197 136.766,57.676 137.904 C 57.135 138.309,56.000 138.511,56.000 138.202 C 56.000 138.130,56.489 137.830,57.088 137.535 C 58.119 137.027,59.667 135.793,59.667 135.479 C 59.667 134.568,56.082 136.142,54.485 137.754 C 53.239 139.012,52.652 139.333,51.600 139.333 C 50.359 139.333,50.942 138.018,52.305 137.744 C 53.679 137.467,54.485 136.589,53.539 136.399 C 53.132 136.318,53.065 136.236,53.129 135.901 C 53.171 135.680,53.141 135.500,53.061 135.501 C 52.798 135.502,51.833 136.158,51.833 136.336 C 51.833 136.432,51.458 136.874,51.000 137.318 C 50.485 137.817,50.127 138.326,50.062 138.650 C 49.985 139.032,49.883 139.154,49.687 139.096 C 48.894 138.861,48.323 138.786,46.541 138.683 C 44.334 138.554,44.310 138.612,47.000 137.573 C 47.871 137.237,49.221 136.598,50.000 136.153 C 51.992 135.016,52.541 134.859,55.833 134.489 C 60.239 133.993,60.688 133.797,62.908 131.398 C 63.728 130.512,64.792 129.536,65.272 129.229 C 66.341 128.545,66.474 128.349,66.070 128.053 C 65.342 127.520,64.024 128.223,61.449 130.516 C 59.515 132.239,59.167 132.430,59.167 131.769 C 59.167 131.443,59.334 131.304,60.103 130.992 C 61.225 130.536,62.000 129.921,62.000 129.485 C 62.000 129.060,61.706 129.084,60.766 129.583 C 60.335 129.813,59.943 130.000,59.895 130.000 C 59.847 130.000,60.226 129.496,60.737 128.880 C 61.624 127.812,61.923 127.024,61.458 126.980 C 60.997 126.937,60.723 127.047,60.138 127.510 L 59.526 127.995 59.234 127.206 C 58.868 126.215,58.704 126.000,58.316 126.000 C 57.668 126.000,57.684 127.755,58.341 128.677 C 58.708 129.193,58.710 129.221,58.441 130.075 C 58.290 130.554,58.167 131.365,58.167 131.878 L 58.167 132.810 57.292 132.989 C 56.810 133.087,55.601 133.281,54.605 133.420 C 53.609 133.558,52.727 133.713,52.647 133.762 C 52.426 133.899,52.470 133.437,52.708 133.117 C 52.823 132.963,53.442 132.712,54.083 132.559 C 55.682 132.177,56.223 131.646,55.260 131.404 L 54.853 131.302 55.435 130.720 C 56.206 129.950,55.989 129.529,55.025 129.927 C 53.422 130.590,51.966 132.019,51.489 133.401 C 51.267 134.042,50.325 135.000,49.916 135.000 C 49.877 135.000,49.886 134.494,49.935 133.875 C 50.185 130.704,50.768 129.672,52.549 129.243 C 54.968 128.660,56.604 127.740,56.248 127.164 C 56.098 126.921,54.518 127.088,53.683 127.435 C 53.371 127.565,53.091 127.646,53.061 127.616 C 52.962 127.518,55.230 125.727,56.168 125.162 C 58.207 123.935,58.347 122.730,56.333 123.750 L 55.465 124.190 55.899 123.621 C 56.439 122.914,56.443 122.709,55.923 122.473 C 55.125 122.109,54.013 123.437,54.004 124.767 C 54.001 125.182,53.795 125.478,52.958 126.273 C 52.385 126.817,51.410 127.819,50.792 128.500 L 49.667 129.737 49.667 129.004 C 49.667 128.034,50.155 127.071,51.181 126.017 C 52.052 125.124,52.184 124.622,51.572 124.534 C 51.155 124.474,50.405 125.040,49.982 125.735 C 49.802 126.030,49.668 126.138,49.667 125.987 C 49.667 125.843,50.004 125.290,50.417 124.759 C 51.224 123.719,51.344 123.333,50.861 123.333 C 49.296 123.333,47.897 128.003,48.653 130.702 C 48.920 131.654,48.511 134.843,48.040 135.491 C 47.755 135.884,44.832 137.554,44.686 137.408 C 44.584 137.307,45.065 136.638,46.054 135.504 C 47.951 133.329,48.339 131.728,48.208 126.625 L 48.124 123.333 48.687 123.331 C 50.009 123.326,52.571 121.359,52.271 120.579 C 52.122 120.188,51.731 120.288,50.806 120.952 L 49.944 121.571 50.389 120.813 C 51.222 119.390,50.763 118.743,49.832 120.029 C 49.555 120.411,49.282 121.014,49.225 121.368 C 49.129 121.967,48.618 122.507,48.376 122.265 C 48.118 122.007,49.000 119.947,50.036 118.388 C 51.531 116.138,51.636 115.898,51.281 115.543 C 50.947 115.209,50.199 115.828,49.248 117.224 C 48.326 118.579,48.211 117.179,49.089 115.292 C 49.785 113.798,49.487 113.318,48.536 114.401 C 47.545 115.530,47.190 117.864,47.891 118.639 C 48.146 118.920,48.124 119.040,47.565 120.428 C 46.587 122.853,46.451 123.803,46.762 126.033 C 47.166 128.927,46.587 132.654,45.391 134.850 C 44.953 135.655,43.021 137.669,43.249 137.083 C 43.320 136.900,43.498 136.450,43.645 136.083 C 44.102 134.942,44.029 130.299,43.541 129.382 C 42.798 127.988,43.136 127.199,44.853 126.323 C 45.505 125.991,45.875 125.553,46.077 124.875 C 46.219 124.400,45.958 124.389,45.320 124.843 L 44.838 125.186 44.930 124.635 C 44.981 124.331,45.056 123.915,45.097 123.708 C 45.146 123.467,45.093 123.333,44.948 123.333 C 44.705 123.333,44.604 123.507,43.866 125.177 C 43.198 126.688,42.000 127.590,42.000 126.581 C 42.000 126.350,42.347 125.229,42.771 124.089 C 43.195 122.949,43.498 121.901,43.444 121.761 C 43.272 121.314,42.809 121.679,42.414 122.574 C 41.675 124.244,41.294 124.226,41.475 122.531 C 41.619 121.181,41.577 121.045,41.137 121.444 C 40.325 122.178,39.997 124.391,40.508 125.686 C 40.695 126.162,40.956 127.112,41.087 127.797 C 41.323 129.032,41.949 130.268,42.669 130.918 C 43.320 131.508,42.482 131.786,41.701 131.239 C 40.748 130.571,40.064 131.532,40.919 132.336 C 41.158 132.560,41.668 132.859,42.052 133.001 C 42.948 133.331,42.974 133.538,42.422 135.888 C 41.987 137.740,41.055 139.917,40.698 139.917 C 40.595 139.917,40.064 139.524,39.519 139.044 C 37.838 137.564,37.759 136.417,39.132 133.403 C 40.938 129.438,40.529 126.672,37.525 122.528 C 36.755 121.468,36.473 120.917,36.329 120.195 C 35.914 118.122,35.798 117.759,35.338 117.090 C 34.120 115.320,32.372 114.741,27.000 114.330 C 22.430 113.981,16.589 112.460,10.458 110.024 C 9.679 109.714,10.428 108.644,12.299 107.397 C 14.019 106.250,14.333 105.876,14.333 104.977 C 14.333 103.122,11.812 103.307,10.184 105.281 L 9.667 105.909 9.667 104.815 C 9.667 103.837,9.757 103.536,10.516 101.985 C 11.712 99.541,12.000 98.710,12.000 97.700 C 12.000 95.769,10.470 94.509,8.917 95.161 M10.074 96.370 C 10.453 96.911,10.420 98.117,10.023 98.243 C 8.999 98.568,8.131 97.334,8.673 96.322 C 8.916 95.867,9.741 95.895,10.074 96.370 M4.633 102.700 C 5.201 103.267,4.455 104.213,3.503 104.133 C 2.732 104.067,2.660 103.648,3.308 102.999 C 3.835 102.473,4.301 102.367,4.633 102.700 M13.607 104.430 C 14.193 105.324,13.262 106.273,12.486 105.571 C 12.128 105.246,12.063 104.504,12.367 104.200 C 12.707 103.860,13.306 103.971,13.607 104.430 M352.428 106.792 C 350.302 111.557,350.310 112.812,352.491 116.833 C 353.485 118.666,353.365 119.812,351.852 122.934 C 350.237 126.266,350.081 127.184,350.374 131.634 C 350.633 135.549,350.516 136.188,348.959 139.375 C 347.593 142.171,347.709 142.057,347.192 141.124 C 345.182 137.494,345.095 136.007,346.600 130.964 C 348.010 126.237,347.842 124.523,345.725 122.045 C 344.747 120.901,344.646 120.936,345.031 122.292 C 345.757 124.844,345.284 127.959,343.763 130.647 C 341.823 134.076,341.888 135.458,344.152 138.996 C 345.821 141.602,346.278 142.995,346.070 144.834 L 345.954 145.857 345.405 144.887 C 345.103 144.353,344.252 143.167,343.514 142.250 C 342.013 140.384,342.032 140.450,342.523 138.783 C 343.195 136.499,342.282 135.004,338.583 132.333 C 336.340 130.713,335.167 128.659,335.167 126.352 C 335.167 125.440,334.882 125.660,334.486 126.879 C 333.431 130.124,333.986 131.481,337.583 134.454 C 340.602 136.949,341.151 138.031,340.824 140.843 C 340.441 144.143,340.798 145.169,342.574 145.859 C 343.871 146.362,344.048 146.714,344.137 148.958 C 344.215 150.922,344.292 150.850,342.643 150.337 C 339.804 149.455,337.947 147.233,335.268 141.510 C 332.608 135.828,330.898 133.372,328.494 131.782 C 323.874 128.726,316.735 129.933,308.917 135.091 C 307.371 136.111,306.543 137.225,305.700 139.417 C 304.860 141.602,304.788 141.315,306.534 142.775 C 310.629 146.199,311.833 148.461,311.833 152.734 C 311.833 157.237,309.678 160.763,305.667 162.821 C 300.441 165.503,299.894 167.105,302.984 170.678 C 309.400 178.097,305.206 189.418,295.149 191.829 C 293.094 192.322,293.135 192.335,293.524 191.310 C 294.175 189.596,295.320 188.372,297.681 186.864 C 299.062 185.982,299.424 185.590,299.652 184.731 C 300.413 181.864,297.245 181.469,294.537 184.093 C 293.373 185.220,293.443 185.248,293.533 183.693 C 293.602 182.500,293.701 182.196,294.658 180.234 C 296.986 175.460,297.230 173.699,295.787 172.056 C 292.963 168.840,288.858 173.266,288.396 180.026 L 288.286 181.636 287.889 181.164 C 286.637 179.676,283.875 179.426,283.173 180.738 C 282.808 181.420,283.116 182.016,284.774 183.828 C 287.546 186.859,290.167 190.915,290.167 192.175 C 290.167 192.650,286.204 192.140,283.500 191.316 C 282.339 190.963,278.667 189.426,278.667 189.295 C 278.667 189.073,280.379 187.451,281.128 186.963 C 281.897 186.462,282.107 185.971,281.847 185.285 C 281.553 184.511,280.219 184.684,279.210 185.626 C 278.207 186.563,278.238 185.663,279.285 183.427 C 280.320 181.218,280.459 179.907,279.739 179.155 C 278.210 177.559,275.833 180.179,275.833 183.460 L 275.833 184.580 275.424 184.139 C 274.863 183.534,273.971 183.249,273.466 183.515 C 272.581 183.981,272.629 184.267,273.810 185.572 C 274.765 186.625,276.023 188.361,275.914 188.473 C 275.884 188.504,275.449 188.438,274.948 188.326 C 271.977 187.661,269.669 188.687,268.369 191.250 C 267.821 192.331,266.997 193.368,266.760 193.277 C 266.597 193.214,266.522 193.503,266.463 194.431 C 266.300 196.960,264.779 199.030,262.238 200.178 C 259.594 201.373,258.901 201.751,258.240 202.361 C 256.537 203.931,256.242 205.167,257.570 205.167 C 259.041 205.167,261.167 206.751,261.167 207.847 C 261.167 208.225,260.989 208.535,260.489 209.030 C 259.454 210.056,259.222 211.000,260.007 211.000 C 260.545 211.000,262.781 211.789,264.083 212.438 C 266.312 213.549,266.841 214.598,265.774 215.791 C 265.253 216.374,264.833 217.020,264.833 217.239 C 264.833 217.439,267.230 217.319,269.583 217.000 C 271.067 216.799,272.980 216.666,274.397 216.666 C 280.298 216.665,281.320 216.375,281.305 214.710 C 281.287 212.894,282.109 211.395,283.446 210.803 L 284.178 210.479 285.471 210.937 C 287.106 211.516,287.368 211.444,287.125 210.484 C 286.645 208.594,284.958 207.833,280.917 207.685 C 277.919 207.575,277.734 207.532,277.494 206.901 C 276.806 205.092,280.306 202.314,282.100 203.244 C 282.611 203.510,283.029 203.453,284.083 202.976 C 285.796 202.200,286.950 202.542,289.812 204.676 C 291.860 206.203,292.156 206.585,292.893 208.649 C 293.669 210.824,294.178 211.062,294.985 209.629 C 297.350 205.428,302.401 205.782,305.893 210.393 C 307.543 212.573,307.892 212.616,309.171 210.795 C 309.627 210.146,310.149 209.511,310.331 209.383 C 311.207 208.769,307.243 202.794,302.835 198.083 C 300.307 195.383,299.960 194.564,300.858 193.423 C 302.237 191.670,305.355 192.059,307.676 194.273 L 308.667 195.217 308.668 193.484 C 308.673 183.554,315.117 175.663,319.639 180.050 C 322.171 182.506,321.915 185.362,318.533 192.362 C 316.706 196.141,316.237 197.589,316.409 198.911 C 316.626 200.571,316.637 200.582,317.225 199.703 C 319.933 195.652,325.988 194.949,325.998 198.683 C 326.003 200.714,325.555 201.309,322.550 203.269 C 319.790 205.069,318.025 206.721,317.226 208.250 C 316.322 209.983,316.302 209.907,317.785 210.399 C 320.760 211.387,321.520 211.303,323.148 209.810 C 325.071 208.046,326.066 207.703,328.167 208.081 C 330.793 208.554,330.908 208.559,331.593 208.234 C 332.589 207.762,335.084 205.161,337.093 202.502 C 342.142 195.818,346.618 193.181,354.231 192.406 L 355.378 192.290 355.283 191.159 C 355.070 188.621,354.476 187.741,352.535 187.095 C 349.384 186.045,348.522 183.869,349.251 178.804 C 350.081 173.041,349.323 171.428,343.524 166.622 C 336.624 160.904,335.739 158.313,338.389 151.580 C 338.946 150.166,338.979 150.120,338.989 150.750 C 339.084 156.514,340.946 159.766,346.333 163.578 C 352.224 167.746,353.674 170.481,352.250 174.739 C 351.379 177.342,351.404 177.430,353.745 180.083 C 355.729 182.332,357.710 185.228,358.418 186.917 C 358.828 187.896,358.983 182.616,358.589 181.083 C 358.220 179.651,357.096 177.477,355.148 174.431 C 351.673 168.997,351.269 166.110,353.414 162.053 C 353.810 161.303,354.036 160.727,353.915 160.774 C 353.633 160.882,353.394 159.728,353.168 157.167 C 352.821 153.226,352.063 151.720,350.138 151.139 C 349.574 150.970,349.538 150.922,349.684 150.539 C 349.861 150.073,349.923 148.279,349.770 148.033 C 349.320 147.305,352.406 144.548,354.835 143.507 C 356.643 142.732,356.630 142.731,357.580 143.627 L 358.417 144.417 357.612 143.565 L 356.808 142.713 357.732 142.191 C 361.999 139.783,362.957 135.780,360.855 129.135 C 359.474 124.770,359.321 122.438,360.287 120.488 L 360.762 119.530 360.164 119.835 C 357.906 120.987,357.308 123.278,358.164 127.500 C 359.656 134.859,358.803 137.084,353.051 140.836 L 350.753 142.336 350.556 141.793 C 350.027 140.334,350.301 139.473,351.931 137.470 C 353.627 135.387,353.697 134.442,352.414 131.011 C 351.064 127.401,351.205 126.473,353.560 123.468 C 356.152 120.160,356.236 119.223,354.335 114.833 C 353.092 111.963,352.942 111.165,353.029 107.923 C 353.067 106.499,353.094 105.333,353.089 105.333 C 353.083 105.333,352.786 105.990,352.428 106.792 M370.527 115.924 C 370.248 116.537,370.301 116.667,370.603 116.110 C 370.744 115.850,370.828 115.606,370.790 115.568 C 370.752 115.530,370.634 115.690,370.527 115.924 M371.205 117.333 C 371.205 117.654,371.240 117.785,371.282 117.625 C 371.323 117.465,371.323 117.202,371.282 117.042 C 371.240 116.881,371.205 117.013,371.205 117.333 M371.061 120.583 C 371.061 121.500,371.089 121.854,371.123 121.369 C 371.157 120.885,371.156 120.135,371.122 119.703 C 371.088 119.270,371.060 119.667,371.061 120.583 M15.492 122.821 C 15.533 122.828,15.477 122.923,15.367 123.033 C 14.974 123.426,15.112 124.389,15.542 124.254 C 17.847 123.529,19.041 123.518,20.523 124.209 C 26.829 127.149,23.562 136.506,15.966 137.260 C 13.864 137.469,13.248 136.797,13.804 134.905 C 14.780 131.591,12.648 129.664,9.286 130.821 L 8.352 131.142 7.602 130.482 C 5.213 128.378,5.309 124.294,7.803 121.961 L 8.609 121.207 12.013 122.008 C 13.885 122.448,15.450 122.814,15.492 122.821 M367.393 126.667 C 367.393 127.537,367.422 127.894,367.456 127.458 C 367.490 127.023,367.490 126.310,367.456 125.875 C 367.422 125.440,367.393 125.796,367.393 126.667 M321.205 136.988 C 321.628 137.257,322.433 138.063,322.993 138.780 C 325.859 142.448,326.101 142.632,328.286 142.785 C 331.523 143.011,332.747 144.652,332.737 148.750 C 332.725 153.176,330.319 157.427,326.582 159.620 C 324.819 160.655,324.652 160.575,322.980 157.896 C 322.317 156.834,321.496 155.666,321.156 155.301 C 320.641 154.749,320.434 154.289,319.925 152.556 C 318.688 148.348,318.597 147.762,318.582 143.917 C 318.574 141.992,318.506 139.874,318.430 139.211 C 318.154 136.815,319.382 135.832,321.205 136.988 M371.542 138.917 C 371.544 139.283,371.578 139.414,371.618 139.206 C 371.658 138.999,371.656 138.699,371.615 138.540 C 371.573 138.380,371.540 138.550,371.542 138.917 M241.720 139.125 C 243.267 141.599,243.393 142.397,243.406 149.750 L 243.417 155.917 243.881 156.833 C 244.137 157.337,245.006 158.650,245.813 159.751 C 250.351 165.941,250.971 168.043,249.767 173.170 C 249.455 174.497,249.162 175.471,249.115 175.333 C 249.069 175.196,248.907 174.408,248.757 173.583 C 247.914 168.974,246.792 167.499,241.917 164.583 C 236.506 161.347,234.414 158.698,232.930 153.202 C 232.279 150.790,232.029 150.134,231.522 149.502 C 231.129 149.013,230.914 149.123,231.161 149.687 C 231.256 149.905,231.674 151.386,232.089 152.977 C 233.736 159.289,235.850 162.482,239.659 164.413 C 240.376 164.776,240.491 164.922,240.986 166.102 C 241.689 167.777,242.595 169.100,244.168 170.750 C 246.679 173.384,248.000 176.638,248.000 180.188 C 248.000 181.333,248.083 181.298,246.850 180.675 C 245.343 179.914,244.000 178.259,244.000 177.162 C 244.000 176.947,243.929 176.858,243.813 176.929 C 243.546 177.094,243.743 178.504,244.141 179.280 C 244.619 180.211,245.128 180.614,246.597 181.220 L 247.911 181.762 248.174 182.756 C 248.319 183.303,248.528 183.917,248.639 184.122 C 248.801 184.420,248.791 184.713,248.588 185.591 C 248.158 187.444,248.289 188.160,249.163 188.748 L 249.639 189.068 248.528 189.505 C 247.917 189.746,247.149 190.089,246.823 190.267 L 246.229 190.591 246.656 191.023 C 246.891 191.261,247.646 191.865,248.333 192.367 C 250.854 194.205,251.596 195.599,250.917 197.224 C 250.528 198.154,250.599 198.395,251.642 199.698 C 252.904 201.274,253.470 202.189,253.832 203.236 L 254.124 204.083 254.242 203.083 C 254.457 201.253,254.827 200.101,255.840 198.114 C 257.007 195.824,257.333 194.720,257.333 193.069 C 257.333 191.150,257.229 190.859,256.393 190.453 C 255.515 190.026,255.506 189.972,256.256 189.614 C 256.992 189.263,256.963 189.260,257.049 189.708 C 257.089 189.915,257.131 189.678,257.144 189.183 C 257.165 188.335,257.150 188.297,256.875 188.546 C 256.628 188.769,255.118 189.500,254.903 189.500 C 254.693 189.500,254.883 188.170,255.181 187.555 C 255.612 186.663,258.639 183.297,258.877 183.444 C 258.979 183.507,259.002 183.471,258.933 183.359 C 258.867 183.253,258.883 183.167,258.967 183.167 C 259.164 183.167,259.560 181.320,259.453 180.901 C 259.396 180.678,259.366 180.722,259.353 181.051 C 259.338 181.410,259.015 181.816,257.958 182.801 C 257.202 183.506,256.104 184.571,255.518 185.167 L 254.453 186.250 254.563 185.395 C 254.832 183.300,255.064 182.878,256.948 181.043 C 257.912 180.103,258.772 179.379,258.858 179.432 C 258.944 179.485,258.786 179.158,258.507 178.704 C 258.228 178.251,258.000 177.779,258.000 177.656 C 258.000 177.533,257.700 177.725,257.333 178.083 L 256.667 178.734 256.667 177.945 C 256.667 176.959,256.427 176.382,255.292 174.636 C 254.077 172.769,253.949 172.390,253.936 170.610 C 253.915 167.863,254.019 165.261,254.156 165.087 C 254.767 164.314,257.036 158.293,257.271 156.823 C 257.422 155.878,257.583 155.888,257.806 156.853 C 258.340 159.166,258.207 160.664,257.191 163.750 C 256.201 166.761,256.384 168.528,257.964 171.225 L 258.547 172.220 258.843 171.652 C 259.128 171.104,259.127 171.065,258.821 170.567 C 257.503 168.421,257.365 166.519,258.275 163.061 C 259.123 159.839,259.158 157.490,258.389 155.250 C 257.918 153.876,257.867 153.512,257.781 150.917 C 257.630 146.363,257.265 145.563,257.059 149.333 L 256.900 152.250 256.357 151.107 C 255.673 149.669,255.173 147.704,255.169 146.448 C 255.167 145.767,255.110 145.515,254.977 145.598 C 254.334 145.995,255.067 150.410,256.181 152.851 L 256.836 154.286 256.499 156.253 C 255.874 159.911,253.769 164.927,253.428 163.570 C 253.362 163.305,252.798 162.074,252.175 160.836 C 249.846 156.202,249.534 154.076,250.562 149.833 C 251.339 146.625,251.338 144.709,250.561 142.912 C 250.403 142.548,250.256 142.152,250.234 142.033 C 250.183 141.757,248.988 140.204,248.411 139.661 L 247.973 139.250 248.083 139.750 C 248.229 140.407,249.177 142.333,249.355 142.333 C 249.605 142.333,250.300 143.909,250.480 144.885 C 250.712 146.141,250.496 147.803,249.739 150.583 C 248.442 155.347,248.744 157.244,251.527 161.833 C 253.055 164.354,253.150 164.715,252.579 165.842 C 252.329 166.336,251.955 167.190,251.748 167.740 L 251.372 168.740 251.172 167.775 C 250.926 166.591,249.720 164.142,248.826 163.010 C 244.681 157.767,243.491 153.947,244.091 147.811 C 244.587 142.742,244.192 140.782,242.340 139.109 C 241.474 138.326,241.225 138.333,241.720 139.125 M260.570 146.250 C 260.631 148.919,260.939 150.128,262.309 153.083 C 263.517 155.688,263.464 156.667,261.956 159.625 C 260.554 162.374,260.376 163.109,260.730 164.677 L 260.991 165.836 260.494 166.620 C 259.351 168.422,259.381 170.180,260.614 173.629 C 260.947 174.560,261.009 174.927,260.880 175.212 C 260.730 175.546,260.700 175.508,260.589 174.833 C 260.475 174.144,259.519 171.584,259.418 171.700 C 259.394 171.727,259.329 172.275,259.273 172.917 C 259.210 173.646,259.227 173.958,259.319 173.750 C 259.451 173.450,259.492 173.478,259.733 174.036 C 260.064 174.804,260.066 174.998,259.748 175.453 C 259.517 175.783,259.537 175.915,259.989 177.031 C 260.261 177.702,260.490 178.137,260.498 178.000 C 260.507 177.862,260.744 177.487,261.026 177.167 L 261.539 176.583 261.442 177.479 C 261.388 177.972,261.241 178.535,261.114 178.729 C 260.926 179.018,260.922 179.190,261.089 179.667 L 261.294 180.250 261.800 179.140 C 262.145 178.383,262.695 177.619,263.528 176.739 C 264.200 176.029,264.567 175.545,264.344 175.663 C 264.121 175.781,263.571 176.262,263.121 176.730 L 262.304 177.583 262.381 176.333 C 262.429 175.556,262.630 174.611,262.913 173.834 C 263.628 171.874,263.529 170.344,262.544 168.167 C 261.782 166.481,261.785 166.591,262.483 165.715 C 263.137 164.894,264.575 163.492,265.750 162.530 C 266.324 162.060,266.353 162.007,265.957 162.155 C 264.802 162.585,263.198 163.637,262.044 164.721 C 261.395 165.331,261.373 165.315,261.233 164.125 C 261.092 162.922,261.393 161.972,262.490 160.167 C 264.283 157.215,264.362 155.097,262.825 151.167 C 261.663 148.195,260.848 145.791,260.679 144.833 C 260.545 144.082,260.526 144.338,260.570 146.250 M368.741 146.518 C 368.231 147.536,367.839 148.395,367.872 148.427 C 367.904 148.460,368.358 147.627,368.881 146.576 C 369.404 145.526,369.795 144.667,369.750 144.667 C 369.706 144.667,369.252 145.500,368.741 146.518 M59.539 146.167 C 59.539 146.487,59.573 146.619,59.615 146.458 C 59.657 146.298,59.657 146.035,59.615 145.875 C 59.573 145.715,59.539 145.846,59.539 146.167 M357.556 149.333 C 357.556 150.021,357.585 150.302,357.621 149.958 C 357.657 149.615,357.657 149.052,357.621 148.708 C 357.585 148.365,357.556 148.646,357.556 149.333 M361.372 151.167 C 361.372 151.487,361.406 151.619,361.448 151.458 C 361.490 151.298,361.490 151.035,361.448 150.875 C 361.406 150.715,361.372 150.846,361.372 151.167 M361.372 153.500 C 361.372 153.821,361.406 153.952,361.448 153.792 C 361.490 153.631,361.490 153.369,361.448 153.208 C 361.406 153.048,361.372 153.179,361.372 153.500 M368.553 154.167 C 368.553 154.762,368.584 155.006,368.621 154.708 C 368.658 154.410,368.658 153.923,368.621 153.625 C 368.584 153.327,368.553 153.571,368.553 154.167 M68.731 154.163 C 68.538 154.242,68.212 154.518,68.007 154.778 L 67.635 155.250 68.756 155.363 C 70.107 155.500,70.808 155.988,71.607 157.348 C 72.045 158.095,72.336 158.357,73.343 158.914 C 74.944 159.800,75.186 160.152,75.331 161.812 C 75.469 163.374,75.711 163.819,76.784 164.487 L 77.555 164.968 76.445 165.086 C 74.686 165.275,74.633 165.209,73.590 161.583 C 72.200 156.755,67.076 155.914,64.144 160.032 L 63.810 160.501 64.617 159.999 C 65.517 159.440,67.322 159.002,68.940 158.950 C 70.539 158.899,70.764 159.193,70.705 161.265 C 70.649 163.264,70.789 163.575,72.492 165.232 C 73.802 166.506,74.619 167.000,75.420 167.000 C 76.466 167.000,77.409 167.912,78.264 169.750 C 78.917 171.153,78.986 171.067,77.483 170.728 C 75.676 170.321,71.414 170.352,67.179 170.804 C 65.307 171.003,63.291 171.167,62.699 171.167 L 61.623 171.167 61.726 171.792 C 61.783 172.135,61.830 172.627,61.831 172.884 C 61.833 173.334,61.847 173.342,62.204 173.093 C 63.585 172.125,64.052 174.603,62.926 176.920 C 62.066 178.689,58.828 181.500,57.651 181.500 C 57.093 181.500,57.057 181.689,56.935 185.257 C 56.781 189.735,55.236 191.857,48.750 196.496 C 44.248 199.716,42.529 201.785,41.573 205.134 C 41.329 205.987,41.157 206.709,41.190 206.738 C 41.324 206.857,48.313 208.000,48.902 208.000 C 49.698 208.000,50.600 207.492,51.250 206.679 C 52.623 204.960,54.125 204.435,57.703 204.424 C 60.528 204.416,60.703 204.496,61.282 206.066 C 61.836 207.568,62.605 207.787,67.876 207.949 L 71.170 208.050 70.905 207.317 C 69.111 202.339,69.250 194.308,71.148 193.344 C 74.033 191.880,77.310 192.574,77.370 194.661 C 77.386 195.227,77.144 195.166,81.467 195.685 C 85.082 196.118,85.027 196.128,85.669 194.960 C 86.740 193.010,88.795 192.193,90.484 193.047 C 90.796 193.204,91.071 193.333,91.095 193.333 C 91.219 193.333,91.847 191.071,92.079 189.792 C 92.225 188.990,92.406 188.165,92.482 187.959 C 92.598 187.646,92.506 187.484,91.917 186.965 C 90.499 185.717,90.093 183.938,90.662 181.474 C 91.103 179.564,91.038 179.213,89.951 177.625 C 88.852 176.020,88.743 174.784,89.504 172.572 C 89.677 172.068,89.744 171.702,89.653 171.759 C 89.561 171.815,88.717 172.035,87.777 172.248 C 86.837 172.460,85.484 172.861,84.771 173.138 L 83.473 173.641 82.612 172.981 C 82.138 172.617,81.315 172.117,80.783 171.868 L 79.815 171.417 79.922 170.667 C 80.090 169.485,80.450 168.876,81.110 168.658 C 81.428 168.553,81.918 168.214,82.199 167.906 C 83.185 166.822,84.706 166.730,86.558 167.642 C 87.879 168.292,88.093 168.293,89.369 167.648 C 90.628 167.013,91.658 167.033,92.546 167.711 L 93.107 168.138 92.982 167.214 C 92.820 166.025,92.722 165.939,91.787 166.175 C 90.776 166.429,90.056 166.188,88.980 165.232 C 87.955 164.322,87.701 164.317,85.813 165.167 C 83.345 166.278,81.593 165.905,82.762 164.516 C 83.415 163.740,84.180 163.605,86.081 163.929 C 87.943 164.246,88.290 164.188,89.142 163.419 C 90.459 162.229,91.579 162.343,92.818 163.793 L 93.474 164.559 93.586 163.959 C 93.822 162.703,93.392 161.961,92.318 161.769 C 91.989 161.710,91.545 161.475,91.331 161.247 C 90.684 160.559,89.792 160.749,87.929 161.973 C 86.574 162.863,86.199 162.895,84.668 162.250 C 83.888 161.922,83.421 161.822,82.955 161.885 C 82.167 161.991,82.190 161.932,83.337 160.900 C 84.571 159.790,85.137 159.566,86.130 159.793 L 86.903 159.970 87.743 159.130 C 89.581 157.293,91.893 157.154,93.410 158.790 L 93.833 159.247 93.833 158.701 C 93.833 157.873,93.418 157.024,92.969 156.935 C 92.757 156.893,92.248 156.797,91.838 156.721 C 91.172 156.598,91.025 156.482,90.466 155.637 C 89.486 154.155,89.108 154.197,86.981 156.028 C 85.879 156.976,84.565 157.667,83.862 157.667 C 81.957 157.667,79.902 159.556,79.415 161.755 C 79.202 162.717,79.175 162.728,78.682 162.048 C 78.418 161.684,77.864 161.187,77.449 160.944 C 76.754 160.537,76.661 160.400,76.259 159.193 C 75.437 156.725,73.673 155.324,71.935 155.760 C 71.616 155.840,71.429 155.719,70.929 155.109 C 70.166 154.178,69.454 153.871,68.731 154.163 M55.372 155.167 C 55.372 155.487,55.406 155.619,55.448 155.458 C 55.490 155.298,55.490 155.035,55.448 154.875 C 55.406 154.715,55.372 154.846,55.372 155.167 M55.045 155.833 C 55.045 156.246,55.078 156.415,55.118 156.208 C 55.157 156.002,55.157 155.665,55.118 155.458 C 55.078 155.252,55.045 155.421,55.045 155.833 M52.223 156.500 C 52.223 157.188,52.252 157.469,52.288 157.125 C 52.324 156.781,52.324 156.219,52.288 155.875 C 52.252 155.531,52.223 155.813,52.223 156.500 M58.562 159.667 C 58.562 160.629,58.589 161.023,58.623 160.542 C 58.657 160.060,58.657 159.273,58.623 158.792 C 58.589 158.310,58.562 158.704,58.562 159.667 M366.379 159.500 C 366.379 159.912,366.411 160.081,366.451 159.875 C 366.491 159.669,366.491 159.331,366.451 159.125 C 366.411 158.919,366.379 159.087,366.379 159.500 M366.539 161.833 C 366.539 162.154,366.573 162.285,366.615 162.125 C 366.657 161.965,366.657 161.702,366.615 161.542 C 366.573 161.381,366.539 161.512,366.539 161.833 M124.212 163.833 C 124.212 164.246,124.245 164.415,124.284 164.208 C 124.324 164.002,124.324 163.665,124.284 163.458 C 124.245 163.252,124.212 163.421,124.212 163.833 M139.709 163.917 C 139.711 164.283,139.745 164.414,139.785 164.206 C 139.824 163.999,139.823 163.699,139.781 163.540 C 139.739 163.380,139.707 163.550,139.709 163.917 M366.730 165.333 C 366.730 166.387,366.757 166.819,366.790 166.292 C 366.823 165.765,366.823 164.902,366.790 164.375 C 366.757 163.848,366.730 164.279,366.730 165.333 M119.667 164.583 C 119.978 164.904,120.270 165.167,120.315 165.167 C 120.361 165.167,120.144 164.904,119.833 164.583 C 119.522 164.262,119.230 164.000,119.185 164.000 C 119.139 164.000,119.356 164.262,119.667 164.583 M242.583 165.645 C 245.271 166.690,246.680 168.872,247.909 173.890 C 248.474 176.199,248.674 177.279,249.260 181.167 C 249.419 182.221,249.647 183.365,249.767 183.708 C 249.887 184.052,249.926 184.333,249.853 184.333 C 249.672 184.333,249.333 183.561,249.333 183.151 C 249.333 182.967,249.217 182.591,249.074 182.315 C 248.923 182.023,248.749 181.013,248.659 179.903 C 248.283 175.300,247.794 174.174,244.284 169.845 C 241.820 166.805,240.484 164.828,241.042 165.046 C 241.156 165.091,241.850 165.360,242.583 165.645 M358.274 165.413 C 357.121 168.419,358.025 173.913,360.282 177.607 C 360.738 178.353,361.208 179.197,361.326 179.482 C 361.580 180.095,361.760 180.140,361.897 179.625 C 361.951 179.419,362.713 177.900,363.590 176.250 C 365.698 172.283,367.048 168.659,366.589 168.200 C 366.540 168.151,366.500 168.194,366.500 168.295 C 366.500 168.399,366.045 168.274,365.458 168.009 C 364.885 167.750,363.196 167.081,361.703 166.522 C 360.211 165.963,358.849 165.431,358.678 165.339 C 358.446 165.215,358.343 165.234,358.274 165.413 M371.872 166.500 C 371.872 166.821,371.906 166.952,371.948 166.792 C 371.990 166.631,371.990 166.369,371.948 166.208 C 371.906 166.048,371.872 166.179,371.872 166.500 M253.169 168.654 C 252.877 170.691,252.996 171.463,253.850 173.067 C 255.479 176.126,255.417 175.944,255.414 177.667 C 255.412 179.084,254.728 181.463,254.416 181.136 C 254.389 181.107,254.286 180.423,254.188 179.616 C 254.071 178.651,253.718 177.311,253.158 175.699 C 251.937 172.190,251.870 170.531,252.842 167.931 C 253.324 166.642,253.425 166.865,253.169 168.654 M261.905 168.877 C 262.172 170.297,262.087 172.802,261.760 173.129 C 261.332 173.556,260.682 169.355,261.015 168.317 C 261.114 168.005,261.225 167.656,261.259 167.542 C 261.421 167.011,261.638 167.460,261.905 168.877 M123.185 168.176 C 122.965 168.359,122.821 168.544,122.865 168.587 C 122.908 168.630,123.119 168.478,123.334 168.249 C 123.802 167.752,123.734 167.719,123.185 168.176 M371.116 169.419 C 370.963 169.738,370.873 170.000,370.915 170.000 C 371.029 170.000,371.535 168.980,371.459 168.903 C 371.423 168.867,371.268 169.099,371.116 169.419 M54.916 169.708 C 54.661 170.098,53.649 171.504,52.666 172.833 C 48.512 178.449,47.674 180.134,46.406 185.414 C 45.656 188.540,44.787 190.952,42.085 197.417 C 41.847 197.986,42.190 197.694,44.445 195.408 C 46.174 193.655,47.606 192.371,48.600 191.684 L 50.116 190.636 49.685 189.610 C 49.296 188.681,49.259 188.409,49.304 186.750 C 49.379 183.990,49.377 183.842,49.247 182.571 C 48.987 180.036,50.247 177.965,50.737 180.122 L 50.890 180.797 51.423 180.232 C 52.426 179.168,53.312 179.685,53.112 181.216 C 53.067 181.563,52.592 182.763,52.057 183.882 C 50.975 186.144,50.729 187.934,51.346 189.054 L 51.605 189.524 52.239 188.887 C 54.177 186.938,54.667 185.521,54.667 181.855 C 54.667 178.209,55.585 173.879,56.974 170.976 L 57.424 170.035 56.483 169.518 C 55.325 168.881,55.466 168.864,54.916 169.708 M59.381 170.583 C 59.364 172.341,59.145 173.582,58.328 176.564 C 57.954 177.925,57.679 179.068,57.715 179.104 C 57.973 179.362,59.500 177.300,59.500 176.695 C 59.500 175.821,60.067 173.098,60.471 172.036 C 60.822 171.112,60.762 171.000,59.912 171.000 C 59.555 171.000,59.512 170.917,59.456 170.125 C 59.413 169.512,59.390 169.649,59.381 170.583 M95.359 170.357 C 95.330 171.229,95.197 171.333,94.111 171.333 C 92.121 171.333,90.637 171.694,90.752 172.152 C 91.005 173.166,91.514 173.676,92.979 174.387 C 94.636 175.189,95.391 176.076,95.599 177.463 C 95.809 178.860,95.481 179.907,93.934 182.773 C 93.454 183.663,93.194 185.254,93.396 186.060 C 93.501 186.477,93.509 186.479,94.110 186.228 C 94.444 186.089,94.837 186.006,94.984 186.044 C 95.213 186.103,95.252 185.901,95.261 184.598 C 95.271 183.225,95.352 182.849,96.128 180.583 C 97.409 176.845,97.410 177.014,96.068 173.833 C 95.732 173.037,95.581 172.331,95.498 171.167 C 95.435 170.296,95.373 169.932,95.359 170.357 M105.363 170.472 C 100.923 170.803,99.572 170.854,99.330 170.703 C 99.158 170.596,99.398 171.012,99.864 171.629 C 102.149 174.657,102.024 176.701,99.380 179.529 C 98.090 180.908,97.134 182.596,96.901 183.906 L 96.785 184.561 98.037 183.538 C 100.788 181.290,101.307 180.327,101.664 176.802 C 102.088 172.631,103.295 171.171,106.319 171.168 L 107.222 171.167 106.594 171.792 C 104.779 173.599,104.348 176.126,105.345 179.118 C 106.342 182.111,105.889 182.739,101.393 184.597 C 97.287 186.294,96.809 186.664,97.600 187.540 C 97.927 187.902,98.592 188.814,99.076 189.565 C 101.187 192.837,102.358 193.240,105.610 191.813 C 110.500 189.668,112.050 193.625,108.185 198.390 C 107.528 199.200,106.809 200.221,106.588 200.657 L 106.186 201.451 107.702 201.559 C 108.536 201.618,110.550 201.667,112.178 201.667 L 115.137 201.667 115.249 201.006 C 115.564 199.140,117.930 197.554,119.780 197.969 L 120.473 198.125 120.120 197.448 C 119.926 197.075,119.736 196.343,119.698 195.821 L 119.629 194.871 118.773 194.758 C 117.419 194.579,115.839 193.748,116.458 193.542 C 116.560 193.508,117.260 193.035,118.014 192.490 C 118.768 191.946,119.481 191.500,119.598 191.500 C 120.249 191.500,120.714 191.162,120.462 190.871 C 120.325 190.713,119.935 190.079,119.595 189.463 L 118.977 188.343 118.252 188.442 C 115.674 188.796,112.931 187.099,112.194 184.696 L 112.016 184.117 113.774 184.225 C 115.587 184.336,116.474 184.603,117.535 185.358 L 118.055 185.729 117.942 185.323 C 117.880 185.099,117.738 184.185,117.628 183.292 C 117.448 181.838,117.391 181.666,117.088 181.663 C 115.236 181.643,113.598 179.381,113.592 176.833 C 113.587 174.804,113.712 174.593,114.348 175.553 C 114.627 175.975,115.289 176.695,115.819 177.155 C 116.350 177.614,116.963 178.254,117.183 178.577 C 117.609 179.202,117.833 179.321,117.833 178.923 C 117.833 178.789,118.011 178.120,118.228 177.436 L 118.623 176.192 118.187 176.085 C 116.938 175.778,116.599 175.166,116.070 172.270 C 115.850 171.067,115.670 170.065,115.669 170.042 C 115.661 169.884,110.157 170.114,105.363 170.472 M116.903 170.392 C 118.020 171.058,119.500 173.100,119.500 173.974 C 119.500 174.113,119.829 173.558,120.230 172.739 C 121.064 171.040,121.067 171.055,119.739 170.820 C 119.195 170.724,118.263 170.545,117.667 170.423 C 116.926 170.272,116.685 170.262,116.903 170.392 M259.291 170.542 C 259.248 170.656,259.272 170.900,259.345 171.083 C 259.452 171.355,259.479 171.316,259.488 170.875 C 259.500 170.312,259.425 170.184,259.291 170.542 M121.836 171.519 C 121.834 171.667,121.608 172.335,121.332 173.003 C 120.758 174.396,120.769 174.461,121.518 174.074 C 121.820 173.918,122.582 173.703,123.213 173.597 L 124.359 173.404 123.888 172.929 C 123.629 172.668,123.117 172.259,122.750 172.021 C 122.383 171.782,122.028 171.511,121.961 171.418 C 121.890 171.320,121.837 171.362,121.836 171.519 M133.826 172.381 C 134.022 172.641,133.990 172.746,133.571 173.214 L 133.091 173.750 133.666 173.210 C 134.229 172.681,134.234 172.663,133.921 172.376 C 133.616 172.096,133.612 172.097,133.826 172.381 M252.030 175.508 C 253.528 180.108,253.448 184.085,251.838 185.080 C 251.570 185.246,249.882 179.840,249.720 178.294 C 249.624 177.382,250.730 172.175,250.969 172.413 C 251.012 172.456,251.489 173.849,252.030 175.508 M293.808 172.723 C 294.549 173.512,294.656 175.042,293.985 175.255 C 292.526 175.718,291.259 173.607,292.439 172.679 C 293.008 172.231,293.357 172.243,293.808 172.723 M142.667 173.760 C 142.667 174.086,142.729 174.314,142.806 174.267 C 142.937 174.186,142.868 173.167,142.731 173.167 C 142.696 173.167,142.667 173.434,142.667 173.760 M190.458 174.458 C 188.774 178.157,188.587 179.847,189.615 182.083 C 191.334 185.821,191.367 187.146,189.818 190.322 C 188.790 192.429,188.645 193.347,189.134 194.627 L 189.469 195.504 189.007 195.115 C 188.752 194.901,188.316 194.631,188.036 194.515 C 186.807 194.006,186.908 192.689,188.317 190.868 C 190.937 187.481,190.699 185.478,187.417 183.289 C 185.376 181.928,184.500 180.801,184.500 179.537 C 184.500 178.747,184.041 179.129,183.478 180.387 C 182.759 181.994,182.898 183.522,183.972 185.809 C 185.107 188.225,185.184 188.874,184.593 191.036 C 183.880 193.646,184.290 194.372,187.253 195.747 C 189.357 196.724,189.367 196.705,186.372 197.414 C 178.765 199.214,178.856 199.161,180.638 200.770 C 182.081 202.074,181.915 203.903,180.322 204.252 C 179.339 204.468,178.568 203.350,179.032 202.380 C 179.455 201.493,180.500 201.788,180.500 202.793 C 180.500 203.225,179.845 203.292,179.707 202.875 C 179.665 202.747,179.735 202.703,179.886 202.761 C 180.231 202.894,180.381 202.580,180.089 202.338 C 179.771 202.074,179.500 202.259,179.500 202.739 C 179.500 203.467,180.338 203.750,180.715 203.151 C 181.030 202.651,180.704 202.072,179.753 201.441 C 179.247 201.104,178.627 200.549,178.375 200.206 L 177.917 199.583 176.977 199.821 C 176.061 200.053,167.486 198.689,166.468 198.148 C 166.295 198.056,166.147 198.063,166.084 198.166 C 165.935 198.407,165.333 198.372,165.333 198.123 C 165.333 198.008,165.201 197.831,165.038 197.729 C 164.774 197.564,164.747 197.610,164.778 198.175 C 164.845 199.371,165.541 200.414,166.711 201.067 C 168.306 201.959,168.714 202.465,168.800 203.653 C 168.981 206.152,165.683 207.177,164.982 204.839 C 164.392 202.870,166.543 201.966,167.228 203.896 C 167.452 204.526,166.340 205.026,166.101 204.403 C 165.963 204.044,165.954 204.055,166.370 204.070 C 166.862 204.088,166.968 203.565,166.501 203.417 C 165.786 203.190,165.361 204.170,165.929 204.738 C 166.529 205.338,167.833 204.881,167.833 204.071 C 167.833 203.812,166.872 202.667,166.654 202.667 C 166.249 202.667,164.555 201.700,163.851 201.068 C 163.059 200.356,162.733 199.737,162.332 198.190 C 162.229 197.790,161.968 197.300,161.753 197.101 C 161.538 196.902,161.337 196.517,161.306 196.246 C 161.268 195.909,161.144 195.734,160.917 195.693 C 160.101 195.547,159.377 194.133,159.836 193.581 C 159.939 193.456,160.005 193.217,159.982 193.052 C 159.959 192.886,160.159 192.316,160.425 191.785 C 160.901 190.836,160.905 190.808,160.645 190.086 C 160.493 189.664,160.442 189.277,160.524 189.176 C 160.622 189.055,160.604 189.053,160.467 189.167 C 160.357 189.258,160.137 189.333,159.979 189.333 C 159.822 189.333,159.141 189.631,158.467 189.994 C 157.150 190.705,156.602 190.736,156.434 190.110 C 156.279 189.532,156.304 189.500,156.904 189.500 C 158.164 189.500,159.072 187.971,158.181 187.350 C 155.457 185.455,151.197 184.186,145.466 183.562 C 143.961 183.399,142.889 183.211,142.944 183.122 C 142.997 183.037,142.886 183.049,142.698 183.150 C 142.284 183.371,141.294 183.391,141.075 183.183 C 140.626 182.756,140.265 182.922,139.840 183.749 C 139.605 184.208,139.286 184.771,139.131 185.000 L 138.850 185.417 141.383 185.402 C 142.860 185.393,144.108 185.307,144.377 185.197 L 144.836 185.007 144.555 185.462 C 142.898 188.144,139.671 189.227,137.735 187.750 L 137.214 187.352 136.676 187.907 L 136.138 188.462 136.404 189.523 C 136.588 190.256,136.811 190.707,137.127 190.983 C 139.427 192.997,139.479 193.081,138.619 193.388 C 138.189 193.542,138.615 194.142,139.886 195.170 C 141.887 196.789,143.544 197.370,147.000 197.663 C 149.623 197.885,150.499 198.085,151.292 198.641 C 151.639 198.884,152.222 199.233,152.587 199.417 C 155.643 200.952,156.203 205.078,153.516 206.263 C 152.451 206.733,152.817 207.376,154.451 207.907 C 155.641 208.293,156.188 208.969,156.757 210.759 C 157.766 213.926,159.173 214.357,162.695 212.578 C 165.495 211.164,166.247 211.211,168.799 212.957 C 171.956 215.117,173.122 215.071,174.501 212.729 C 176.661 209.061,181.100 207.820,182.746 210.425 C 183.288 211.282,183.755 211.469,184.453 211.108 C 185.260 210.690,185.367 210.423,185.594 208.238 C 185.920 205.113,186.993 203.180,189.064 201.992 C 190.429 201.210,192.000 201.617,192.000 202.753 C 192.000 203.229,192.409 203.667,192.854 203.667 C 194.595 203.667,195.360 205.484,194.925 208.593 C 194.606 210.878,194.665 211.850,195.187 212.873 L 195.509 213.504 196.046 213.224 C 196.371 213.055,197.176 212.905,198.083 212.847 L 199.583 212.750 199.597 211.849 C 199.624 210.104,200.762 209.643,203.345 210.329 C 205.474 210.896,207.801 210.591,207.582 209.774 C 207.393 209.071,205.824 206.059,205.353 205.495 L 204.873 204.920 204.061 205.211 C 202.697 205.700,201.744 205.457,201.862 204.651 C 201.904 204.364,202.112 204.214,202.750 204.013 C 203.960 203.631,203.866 203.281,202.514 203.132 C 201.769 203.050,201.229 202.873,200.731 202.549 C 200.338 202.293,199.694 201.871,199.300 201.612 C 198.906 201.352,198.177 200.902,197.680 200.612 C 196.608 199.985,195.672 198.517,195.669 197.458 C 195.666 196.606,195.832 196.668,196.682 197.835 C 197.654 199.170,197.890 198.743,197.180 196.936 C 196.949 196.347,197.097 195.796,197.468 195.867 C 197.644 195.901,198.070 196.713,198.662 198.139 C 199.670 200.568,200.020 200.993,200.315 200.146 C 200.519 199.563,200.470 199.258,199.900 197.555 C 199.308 195.788,199.577 195.322,200.395 196.694 L 200.809 197.389 200.957 196.819 C 201.154 196.057,201.544 196.090,201.740 196.885 C 201.852 197.338,201.832 197.744,201.671 198.302 C 201.087 200.319,201.280 200.987,202.555 201.370 C 203.882 201.767,206.839 204.960,207.539 206.750 L 207.800 207.417 207.922 206.774 C 208.443 204.028,206.314 199.874,202.858 196.894 C 201.711 195.906,200.765 194.880,200.632 194.479 C 200.605 194.397,198.558 194.743,196.083 195.247 C 193.608 195.751,191.560 196.164,191.532 196.165 C 191.504 196.166,191.617 195.933,191.782 195.647 C 192.257 194.828,192.948 194.404,194.964 193.694 C 196.965 192.989,197.985 192.341,198.736 191.296 L 199.188 190.667 198.730 190.667 C 197.403 190.667,195.622 187.308,196.391 186.256 C 196.724 185.802,196.938 186.043,197.342 187.324 C 197.672 188.370,198.515 189.705,198.715 189.500 C 198.760 189.454,198.723 188.939,198.634 188.354 C 198.446 187.133,198.571 186.193,198.940 186.051 C 199.139 185.975,199.148 185.925,198.981 185.822 C 198.650 185.617,198.584 183.687,198.884 182.969 C 199.043 182.589,199.695 181.882,200.645 181.058 C 202.399 179.537,202.389 179.520,200.037 180.002 C 196.789 180.667,196.574 180.955,195.420 186.183 C 194.436 190.645,194.381 190.747,192.429 191.825 C 191.885 192.124,191.304 192.530,191.136 192.726 C 190.832 193.083,190.832 193.083,190.999 192.614 C 191.274 191.844,191.501 191.482,192.587 190.083 C 195.096 186.850,195.042 184.058,192.330 176.838 C 191.782 175.378,191.333 173.955,191.333 173.675 C 191.333 172.858,191.087 173.078,190.458 174.458 M147.294 173.785 C 147.501 173.824,147.801 173.823,147.960 173.781 C 148.120 173.739,147.950 173.707,147.583 173.709 C 147.217 173.711,147.086 173.745,147.294 173.785 M257.539 176.167 C 257.539 176.487,257.573 176.619,257.615 176.458 C 257.657 176.298,257.657 176.035,257.615 175.875 C 257.573 175.715,257.539 175.846,257.539 176.167 M119.778 177.120 C 119.555 177.833,119.317 178.679,119.250 179.000 L 119.128 179.583 119.522 179.239 C 120.379 178.492,121.611 177.981,123.119 177.748 C 123.784 177.645,123.834 177.598,124.049 176.861 C 124.332 175.893,124.347 175.907,123.396 176.231 C 122.285 176.610,121.148 176.581,120.615 176.162 L 120.184 175.823 119.778 177.120 M136.135 176.583 C 136.098 176.904,136.127 177.167,136.200 177.167 C 136.273 177.167,136.333 176.904,136.333 176.583 C 136.333 176.262,136.304 176.000,136.268 176.000 C 136.232 176.000,136.172 176.262,136.135 176.583 M127.169 179.234 C 127.167 179.708,127.174 179.712,127.500 179.417 C 127.863 179.088,127.944 178.912,127.648 179.095 C 127.546 179.158,127.397 179.106,127.317 178.980 C 127.215 178.818,127.171 178.893,127.169 179.234 M278.738 179.595 C 279.065 179.922,279.082 180.813,278.763 180.935 C 278.083 181.196,277.433 180.201,277.927 179.655 C 278.280 179.265,278.399 179.256,278.738 179.595 M123.740 180.790 C 123.169 181.284,122.288 181.638,120.917 181.927 C 120.431 182.029,120.449 182.048,121.572 182.617 C 122.625 183.150,122.781 183.185,123.341 183.017 C 123.679 182.916,124.371 182.833,124.878 182.833 C 125.813 182.833,126.682 181.915,125.964 181.685 C 125.846 181.648,125.439 181.308,125.059 180.931 L 124.369 180.246 123.740 180.790 M315.000 181.201 C 313.290 182.351,314.112 185.026,316.301 185.437 C 317.226 185.611,317.730 185.245,317.837 184.320 C 318.109 181.980,316.490 180.200,315.000 181.201 M287.020 181.394 C 287.296 182.000,286.827 182.773,286.052 182.988 C 284.637 183.378,284.193 182.607,285.233 181.567 C 285.940 180.860,286.741 180.783,287.020 181.394 M118.918 182.520 C 119.056 183.730,119.508 185.667,119.653 185.667 C 119.948 185.667,120.444 184.735,120.320 184.416 C 120.248 184.233,120.185 183.577,120.178 182.958 C 120.168 182.003,120.123 181.833,119.875 181.831 C 119.715 181.830,119.411 181.783,119.200 181.726 C 118.826 181.626,118.819 181.646,118.918 182.520 M127.258 182.874 C 126.290 185.198,126.561 186.310,127.955 185.737 C 128.484 185.519,128.993 185.339,129.086 185.337 C 129.289 185.333,129.887 183.722,129.761 183.518 C 129.713 183.440,129.466 183.335,129.212 183.284 C 128.958 183.233,128.465 182.998,128.117 182.762 L 127.483 182.332 127.258 182.874 M137.144 182.530 C 137.260 182.684,137.398 183.226,137.450 183.734 C 137.559 184.785,137.653 184.784,138.273 183.725 C 138.761 182.894,138.667 182.674,137.825 182.669 C 137.591 182.668,137.295 182.573,137.166 182.458 C 136.969 182.282,136.965 182.293,137.144 182.530 M132.998 183.092 C 132.770 183.218,132.457 183.324,132.302 183.327 C 131.323 183.348,132.144 184.664,133.136 184.666 C 133.532 184.666,133.996 184.742,134.169 184.834 C 134.443 184.981,134.432 184.914,134.076 184.293 C 133.853 183.903,133.670 183.457,133.669 183.302 C 133.666 182.893,133.469 182.832,132.998 183.092 M298.448 183.196 C 299.235 183.935,298.733 185.482,297.782 185.243 C 296.969 185.039,296.557 183.749,297.109 183.138 C 297.477 182.732,297.977 182.753,298.448 183.196 M274.972 184.397 C 275.050 184.797,274.698 185.167,274.239 185.167 C 273.658 185.167,273.599 184.886,274.079 184.406 C 274.542 183.942,274.883 183.939,274.972 184.397 M125.043 185.056 C 124.945 185.271,124.923 185.542,124.994 185.657 C 125.077 185.792,125.154 185.666,125.209 185.309 C 125.314 184.616,125.272 184.553,125.043 185.056 M263.045 185.667 C 263.045 186.079,263.078 186.248,263.118 186.042 C 263.157 185.835,263.157 185.498,263.118 185.292 C 263.078 185.085,263.045 185.254,263.045 185.667 M250.181 185.776 C 251.097 186.853,250.780 189.191,249.819 188.453 C 249.272 188.033,249.132 187.506,249.251 186.319 C 249.374 185.098,249.528 185.008,250.181 185.776 M281.387 185.401 C 281.557 185.843,281.311 186.354,280.954 186.300 C 280.535 186.238,280.246 185.801,280.385 185.439 C 280.513 185.106,281.263 185.077,281.387 185.401 M135.581 186.329 C 135.728 186.612,135.919 186.800,136.007 186.746 C 136.270 186.583,136.190 186.387,135.741 186.092 L 135.314 185.813 135.581 186.329 M258.352 187.019 C 258.249 187.313,258.194 187.583,258.230 187.619 C 258.266 187.655,258.379 187.443,258.481 187.148 C 258.584 186.854,258.639 186.583,258.603 186.548 C 258.568 186.512,258.455 186.724,258.352 187.019 M120.958 187.453 C 120.399 187.538,120.399 187.519,120.940 188.513 C 121.355 189.277,121.398 189.307,121.727 189.077 C 122.245 188.714,122.462 188.776,122.767 189.375 C 122.918 189.673,123.065 189.943,123.093 189.975 C 123.218 190.117,124.353 188.792,124.277 188.594 C 124.161 188.293,122.199 187.327,121.765 187.358 C 121.573 187.372,121.210 187.415,120.958 187.453 M252.155 188.792 C 252.161 188.906,252.100 189.000,252.018 189.000 C 251.798 189.000,251.661 188.542,251.784 188.221 C 251.897 187.926,252.126 188.279,252.155 188.792 M127.331 188.824 C 127.330 188.966,127.283 189.365,127.226 189.708 C 127.101 190.466,127.165 190.476,129.082 189.993 C 130.602 189.610,130.949 189.379,130.627 188.967 C 130.318 188.572,127.334 188.443,127.331 188.824 M201.067 189.192 C 200.989 189.320,201.022 189.339,201.166 189.250 C 201.303 189.166,201.467 189.230,201.609 189.423 C 201.732 189.592,201.833 189.656,201.833 189.565 C 201.833 189.143,201.268 188.868,201.067 189.192 M216.625 189.095 C 216.556 189.165,216.505 189.491,216.511 189.819 C 216.520 190.380,216.531 190.391,216.684 190.008 C 216.865 189.556,216.822 188.895,216.625 189.095 M218.390 191.083 C 218.391 191.817,218.420 192.096,218.456 191.704 C 218.491 191.312,218.490 190.712,218.454 190.371 C 218.419 190.029,218.390 190.350,218.390 191.083 M202.003 190.792 C 202.001 190.998,202.075 191.167,202.167 191.167 C 202.375 191.167,202.375 190.990,202.167 190.667 C 202.036 190.465,202.005 190.488,202.003 190.792 M216.441 191.000 C 216.573 191.719,216.668 191.854,216.664 191.319 C 216.663 191.098,216.588 190.804,216.498 190.667 C 216.382 190.491,216.366 190.590,216.441 191.000 M263.893 192.000 C 263.893 192.871,263.922 193.227,263.956 192.792 C 263.990 192.356,263.990 191.644,263.956 191.208 C 263.922 190.773,263.893 191.129,263.893 192.000 M210.820 191.792 C 210.900 192.367,210.911 192.379,210.966 191.938 C 210.999 191.675,210.960 191.394,210.880 191.313 C 210.796 191.229,210.771 191.434,210.820 191.792 M207.539 192.167 C 207.539 192.487,207.573 192.619,207.615 192.458 C 207.657 192.298,207.657 192.035,207.615 191.875 C 207.573 191.715,207.539 191.846,207.539 192.167 M242.466 193.155 C 236.348 197.387,232.205 197.701,221.250 194.765 C 219.417 194.273,217.930 193.806,217.946 193.727 C 217.962 193.648,218.021 193.433,218.078 193.250 C 218.134 193.067,217.986 193.300,217.748 193.769 C 217.510 194.238,216.455 195.588,215.403 196.769 C 213.372 199.048,212.645 200.248,211.996 202.395 C 211.805 203.024,211.196 204.443,210.643 205.548 L 209.635 207.557 210.497 206.820 C 211.542 205.926,212.783 205.018,213.491 204.628 C 213.909 204.398,213.985 204.280,213.864 204.045 C 213.614 203.559,213.488 200.375,213.700 199.910 C 213.925 199.417,214.167 199.382,214.283 199.826 C 214.362 200.128,214.397 200.133,214.760 199.895 C 215.623 199.329,215.752 200.225,215.000 201.558 C 214.163 203.040,214.396 204.311,215.340 203.414 C 216.143 202.650,216.372 202.076,216.361 200.847 C 216.341 198.439,217.692 195.000,218.659 195.000 C 219.005 195.000,218.833 196.738,218.350 198.125 C 218.087 198.881,217.926 199.500,217.993 199.500 C 218.318 199.500,218.758 198.705,219.033 197.621 C 219.407 196.151,220.000 195.382,220.000 196.369 C 220.000 196.931,220.036 196.977,220.458 196.948 C 221.106 196.904,221.165 197.606,220.596 198.577 C 220.163 199.316,218.554 200.500,217.983 200.500 C 217.643 200.500,217.505 200.971,217.502 202.141 C 217.498 203.853,216.565 204.886,213.242 206.862 C 212.173 207.497,211.136 208.270,210.622 208.812 L 209.772 209.711 210.399 210.033 C 211.136 210.411,211.414 210.981,211.582 212.460 C 211.809 214.463,212.495 214.636,214.047 213.084 C 215.901 211.230,217.258 211.188,220.007 212.899 C 221.564 213.868,222.156 213.912,222.637 213.096 C 223.095 212.321,223.691 211.965,224.696 211.868 L 225.539 211.787 226.041 210.716 C 227.338 207.943,226.596 206.432,223.028 204.583 C 219.634 202.824,221.306 200.576,226.000 200.588 C 228.923 200.595,230.155 201.390,232.188 204.583 L 233.250 206.250 233.250 208.266 C 233.250 210.275,233.248 210.286,232.608 211.546 C 231.968 212.806,231.932 213.264,232.487 213.087 C 232.648 213.036,233.202 213.181,233.718 213.409 C 235.217 214.072,237.463 214.634,239.083 214.751 C 242.112 214.968,247.580 215.951,248.325 216.412 C 248.670 216.624,249.167 215.957,249.166 215.282 C 249.164 214.150,248.664 213.570,246.841 212.583 C 244.635 211.390,246.848 208.340,251.083 206.738 L 252.373 206.250 252.273 204.933 C 252.160 203.447,251.967 203.124,250.917 202.667 C 249.635 202.109,249.583 201.968,249.583 199.024 C 249.583 195.859,249.564 195.816,247.191 193.767 C 246.307 193.004,245.440 192.218,245.266 192.023 C 244.821 191.524,244.823 191.524,242.466 193.155 M259.473 193.416 C 259.539 194.721,259.718 194.356,257.750 196.929 C 257.156 197.706,257.083 198.057,257.275 199.217 C 257.403 199.989,257.362 200.000,259.613 198.567 C 261.976 197.062,263.278 195.617,263.741 193.985 C 263.819 193.712,263.805 193.655,263.698 193.809 C 263.462 194.150,262.638 193.916,260.915 193.017 L 259.414 192.234 259.473 193.416 M204.711 193.723 C 204.822 194.780,205.102 195.057,205.026 194.034 C 204.994 193.603,204.891 193.175,204.797 193.083 C 204.681 192.970,204.653 193.174,204.711 193.723 M211.125 193.135 C 210.781 193.164,210.500 193.246,210.500 193.319 C 210.500 193.391,210.081 194.098,209.568 194.889 C 208.392 196.705,208.497 198.008,209.954 199.675 C 210.231 199.991,210.654 200.542,210.895 200.898 C 211.309 201.511,211.333 201.523,211.333 201.117 C 211.333 200.881,211.405 200.499,211.493 200.267 C 211.617 199.943,211.570 199.662,211.292 199.048 C 210.795 197.953,210.813 195.978,211.331 194.614 C 211.898 193.120,212.610 193.145,212.423 194.651 C 212.334 195.373,212.338 195.381,212.660 195.089 C 213.635 194.207,213.691 195.141,212.750 196.574 C 211.972 197.758,211.938 197.864,212.152 198.413 C 212.278 198.734,212.286 198.733,212.476 198.378 C 212.584 198.177,213.164 197.433,213.766 196.724 C 214.369 196.016,215.076 195.124,215.339 194.741 L 215.817 194.047 215.367 193.621 C 214.909 193.188,213.054 192.975,211.125 193.135 M206.792 193.468 L 206.167 193.520 206.167 194.366 C 206.167 195.425,206.431 196.325,206.923 196.940 C 207.462 197.615,207.517 197.449,207.464 195.314 L 207.417 193.417 206.792 193.468 M202.857 193.969 L 202.130 194.021 204.196 196.135 C 208.084 200.116,208.829 201.511,208.836 204.822 C 208.840 206.815,208.984 206.909,209.600 205.322 C 210.390 203.288,210.355 202.810,209.305 201.255 C 208.414 199.938,208.196 199.697,206.696 198.378 C 205.562 197.381,204.268 195.656,203.991 194.771 C 203.718 193.902,203.725 193.906,202.857 193.969 M304.917 194.184 C 304.067 194.445,302.833 195.786,302.833 196.448 C 302.833 197.744,305.940 197.519,306.493 196.184 C 307.125 194.657,306.394 193.729,304.917 194.184 M167.379 195.000 C 167.379 195.412,167.411 195.581,167.451 195.375 C 167.491 195.169,167.491 194.831,167.451 194.625 C 167.411 194.419,167.379 194.588,167.379 195.000 M180.750 194.954 C 180.933 194.999,181.196 195.122,181.333 195.226 C 181.551 195.392,181.554 195.379,181.355 195.125 C 181.229 194.965,180.966 194.842,180.771 194.853 C 180.434 194.871,180.433 194.876,180.750 194.954 M321.909 197.409 C 320.854 198.464,321.950 200.656,323.538 200.664 C 324.726 200.671,325.047 198.018,323.950 197.251 C 323.382 196.853,322.388 196.930,321.909 197.409 M179.719 198.154 C 179.736 198.376,179.862 198.588,180.000 198.625 C 180.165 198.669,180.186 198.645,180.061 198.554 C 179.957 198.479,179.831 198.267,179.780 198.083 C 179.708 197.820,179.695 197.835,179.719 198.154  M -25 0 L -5 0 L -5 20 L -25 20 Z M 405 0 L 425 0 L 425 20 L 405 20 Z" stroke="none" fill="#046c8c" fill-rule="evenodd" transform="translate(490,293)"/>
</svg>