<svg xmlns="http://www.w3.org/2000/svg" viewBox="491.691 0 397.616 171.63730858468676" version="1.1" id="splitsvg" style="max-height: 500px" width="397.616" height="171.63730858468676">
  <defs>
    
    
    
    
    
    
    
    
    <path d="M 612.491 147.8 C 614.264 149.573 614.505 151.523 616.152 153.17 C 619.156 156.173 621.947 159.209 624.695 161.957 C 627.442 164.704 631.495 165.827 634.458 168.791 C 635.602 169.934 637.98 169.872 639.096 170.988 C 640.819 172.711 645.257 171.535 646.907 173.184 C 647.611 173.889 649.632 173.47 650.324 174.161 C 652.744 176.581 659.334 176.757 663.26 178.066 C 664.25 178.396 665.756 177.85 666.677 178.31 C 670.547 180.245 675.861 178.386 679.614 180.263 C 680.822 180.867 682.77 179.888 684.007 180.507 C 685.374 181.19 687.766 179.824 689.133 180.507 C 694.462 183.171 702.712 179.582 708.415 181.483 C 711.065 182.366 714.538 181.327 717.202 182.216 C 719.01 182.818 721.167 182.23 723.06 182.704 C 731.195 184.737 740.187 183.141 748.201 185.145 C 749.885 185.566 751.886 184.723 753.571 185.145 C 758.872 186.47 765.172 185.106 770.412 186.853 C 773.67 187.939 777.622 186.49 780.908 187.585 C 784.409 188.752 790.093 186.442 793.356 188.074 C 794.715 188.753 797.118 188.318 798.726 188.318 C 803.413 188.318 809.581 189.011 813.859 187.585 C 817.301 186.438 821.889 188.733 825.331 187.585 C 832.533 185.185 840.806 186.821 848.03 184.412 C 851.197 183.357 855.472 185.207 858.526 183.68 C 859.307 183.29 860.674 184.071 861.455 183.68 C 864.08 182.368 867.72 182.785 869.754 180.751 C 871.966 178.538 874.356 177.858 876.588 175.625 C 881.798 170.415 886.566 165.403 891.721 160.248 C 892.678 159.291 892.689 157.572 893.674 156.587 C 896.186 154.075 898.033 148.846 899.776 145.359 C 900.591 143.729 900.422 141.626 901.24 139.989 C 901.463 139.543 901.151 137.882 901.484 137.548 C 902.219 136.813 902.949 132.076 902.949 130.714" style="fill: rgb(216, 216, 216); stroke: rgb(0, 0, 0);"/>
    <path d="M 612.735 147.8 C 614.659 153.572 620.019 154.352 623.719 158.051 C 627.783 162.115 634.426 164.869 640.805 168.059 C 650.71 173.012 661.011 178.114 672.535 180.995 C 685.713 184.29 699.377 184.777 712.565 188.074 C 717.3 189.257 722.524 188.79 726.966 190.27 C 732.966 192.27 740.344 189.954 746.492 191.491 C 749.482 192.238 753.648 191.491 756.744 191.491 C 762.373 191.491 768.165 191.979 773.829 191.979 C 777.481 191.979 781.709 191.38 785.301 191.979 C 792.766 193.223 800.83 191.472 808.245 192.955 C 812.872 193.881 818.7 192.698 823.134 194.176 C 824.241 194.545 828.534 195.747 829.236 195.396 C 830.121 194.953 831.102 194.097 832.409 193.443 C 833.445 192.926 836.107 193.443 837.291 193.443 C 841.872 193.443 848.392 193.482 852.668 194.908 C 854.383 195.479 856.533 194.569 858.282 195.152 C 860.617 195.93 864.579 195.152 867.069 195.152 C 871.78 195.152 877.011 195.093 881.226 193.687 C 882.719 193.19 884.662 193.556 885.863 192.955 C 888.998 191.388 893.024 192.141 895.138 190.026 C 897.815 187.349 898.342 183.406 900.752 180.995 C 901.532 180.215 901.051 178.5 901.729 177.822 C 903.905 175.646 903.71 170.687 905.146 167.815 C 907.444 163.217 906.317 157.222 908.075 151.949 C 908.536 150.566 907.428 148.362 908.075 147.068 C 909.472 144.273 908.563 137.825 908.563 134.619 C 908.563 122.947 907.442 110.852 904.658 99.716 C 903.595 95.466 904.333 90.931 902.949 86.779 C 902.015 83.978 903.772 80.127 902.461 77.504 C 901.744 76.07 902.461 72.328 902.461 70.67 C 902.461 64.044 903.437 58.234 903.437 51.631 C 903.437 49.703 903.193 47.318 903.193 45.773 C 903.193 45.385 903.44 43.58 903.193 43.333 C 903.102 43.241 901.957 41.64 901.24 42.356 C 900.834 42.763 900.02 44.152 900.02 43.577 C 900.02 42.925 902.041 42.044 902.461 41.624 C 902.885 41.199 902.074 39.773 901.973 39.671 C 900.937 38.636 900.441 37.163 899.288 36.01 C 898.962 35.685 899.369 34.627 899.044 34.302 C 898.963 34.221 897.172 34.221 897.091 34.302 C 895.294 36.099 890.113 34.445 888.304 36.254 C 886.282 38.276 882.196 38.576 879.517 39.916 C 878.637 40.356 876.29 39.725 875.612 40.404 C 874.206 41.809 871.064 41.779 869.754 43.089 C 869.347 43.495 867.964 42.926 867.557 43.333 C 866.377 44.512 863.611 44.106 862.431 45.285 C 862.147 45.57 861.008 45.001 860.723 45.285 C 859.609 46.399 858.292 46.984 857.062 48.214 C 855.922 49.353 857.712 53.421 856.573 54.56 C 855.676 55.458 856.768 58.759 855.841 59.686 C 854.364 61.164 853.827 64.141 852.424 65.544 C 849.744 68.224 844.661 68.426 841.928 71.158 C 840.848 72.239 838.511 73.416 838.511 75.063" style="fill: rgb(216, 216, 216); stroke: rgb(0, 0, 0);"/>
    <path d="M 600.287 144.627 C 601.492 148.244 608.363 153.672 612.003 156.099 C 613.326 156.981 615.177 160.004 616.64 160.004" style="fill: rgb(216, 216, 216); stroke: rgb(0, 0, 0);"/>
    <path d="M 594.917 147.068 C 594.917 149.379 597.074 152.154 598.822 153.902 C 601.694 156.773 605.297 160.008 609.318 162.689 C 612.5 164.81 616.901 165.626 620.302 167.327 C 623.599 168.975 627.433 171.331 630.797 172.452 C 635.996 174.185 641.334 180.019 646.174 180.019" style="fill: rgb(216, 216, 216); stroke: rgb(0, 0, 0);"/>
    <path d="M 613.955 138.281 C 613.955 148.271 617.248 160.612 624.695 168.059 C 626.428 169.791 627.793 173.025 630.065 174.161 C 632.432 175.345 635.306 177.694 637.143 179.531 C 639.146 181.533 643.137 182.527 645.442 183.68 C 651.885 186.902 658.104 189.538 665.457 189.538" style="fill: rgb(216, 216, 216); stroke: rgb(0, 0, 0);"/>
    <path d="M 617.373 137.548 C 618.96 140.724 616.742 144.789 617.617 148.288 C 618.513 151.874 619.903 155.481 620.79 159.028 C 621.696 162.651 625.601 166.524 628.112 169.035 C 632.674 173.596 637.732 176.961 643.978 179.042 C 646.359 179.836 649.032 179.391 651.544 180.019 C 653.619 180.538 658.451 180.971 660.575 180.263 C 664.675 178.896 668.56 177.822 673.023 177.822" style="fill: rgb(216, 216, 216); stroke: rgb(0, 0, 0);"/>
    <path d="M 612.003 135.596 C 609.365 136.915 613.727 141.988 614.2 143.406 C 616.106 149.127 624.929 156.089 629.577 160.736 C 631.158 162.318 633.599 163.577 634.947 165.374 C 637.863 169.262 643.256 172.654 647.395 175.137 C 659.504 182.402 673.343 187.642 687.424 182.948 C 692.766 181.167 696.35 175.974 700.117 172.208 C 702.638 169.686 705.264 165.308 706.463 161.713 C 707.198 159.508 708.411 154.625 707.195 152.193 C 703.254 144.311 686.556 142.271 677.417 140.966 C 674.271 140.516 671.045 140.683 667.898 140.233 C 664.81 139.792 661.267 139.745 658.134 139.745 C 653.565 139.745 648.717 139.347 644.222 139.989 C 642.829 140.188 641.501 140.722 640.072 140.722 C 636.014 140.722 624.207 143.132 624.207 147.312" style="fill: rgb(216, 216, 216); stroke: rgb(0, 0, 0);"/>
    <path d="M 647.639 140.722 C 639.69 140.722 631.379 140.872 625.671 146.58 C 611.047 161.204 621.556 189.643 641.781 193.687 C 650.547 195.441 657.694 190.246 664.969 186.609 C 669.049 184.569 676.692 178.282 677.905 173.429 C 678.655 170.427 679.813 166.861 679.125 163.421 C 675.882 147.204 656.088 139.383 641.537 137.304 C 633.037 136.09 623.385 135.441 617.617 141.21 C 616.912 141.915 616.226 146.654 617.129 147.556 C 617.659 148.086 618.837 148.27 618.837 149.02" style="fill: rgb(216, 216, 216); stroke: rgb(0, 0, 0);"/>
    <path d="M 644.222 140.233 C 641.432 140.233 642.025 144.129 642.025 146.824 C 642.025 147.463 641.853 149.581 642.269 149.997 C 642.949 150.677 643.283 151.78 643.734 152.682 C 644.529 154.273 646.613 154.828 647.639 155.855 C 648.2 156.416 650.802 156.099 651.788 156.099 C 656.473 156.099 661.765 153.475 663.504 149.997 C 664.174 148.658 663.166 146.635 662.772 145.847 C 660.987 142.277 653.69 140.233 649.347 140.233 C 647.309 140.233 643.001 140.15 643.001 141.942" style="fill: rgb(216, 216, 216); stroke: rgb(0, 0, 0);"/>
    <path d="M 637.631 133.887 C 634.666 133.887 633.726 141.314 633.726 144.139 C 633.726 144.934 633.362 146.828 633.726 147.556 C 637.376 154.857 654.18 149.85 656.67 144.871 C 657.492 143.227 656.373 140.181 655.449 139.257 C 651.834 135.642 646.523 133.791 641.049 132.423 C 639.564 132.052 637.897 132.43 636.411 131.935 C 634.421 131.271 631.714 131.69 629.577 131.69 C 629.227 131.69 627.603 131.468 627.38 131.69 C 625.69 133.38 631.078 135.389 632.75 137.06 C 633.272 137.582 635.923 139.608 635.923 138.037" style="fill: rgb(216, 216, 216); stroke: rgb(0, 0, 0);"/>
    <path d="M 619.569 125.1 C 619.569 129.589 616.972 135.038 619.325 139.745 C 625.557 152.21 637.942 160.958 650.812 166.106 C 658.571 169.21 667.287 168.181 672.535 162.933 C 676.555 158.914 671.31 152.024 668.874 148.776 C 664.135 142.457 658.448 137.118 652.521 132.179 C 647.203 127.747 642.275 122.613 635.679 119.975 C 631.331 118.236 617.617 114.435 617.617 121.439" style="fill: rgb(216, 216, 216); stroke: rgb(0, 0, 0);"/>
    <path d="M 612.247 141.698 C 613.025 142.476 612.632 144.563 612.979 145.603 C 613.966 148.562 614.214 151.749 615.176 154.634 C 617.308 161.03 621.418 166.49 626.404 171.476 C 640.348 185.421 661.393 189.376 679.614 193.932 C 684.069 195.045 688.866 194.78 693.282 195.884 C 697.367 196.905 701.832 196.032 705.975 196.86 C 708.325 197.331 712.383 197.699 714.761 197.105 C 716.907 196.568 720.092 196.88 722.084 195.884 C 722.799 195.527 725.11 194.176 725.745 194.176" style="fill: rgb(216, 216, 216); stroke: rgb(0, 0, 0);"/>
    <path d="M 699.14 169.523 C 703.863 171.097 708.223 174.052 713.541 175.381 C 739.585 181.893 766.637 184.487 793.112 189.782 C 798.464 190.853 803.989 190.915 809.221 192.223 C 810.423 192.523 811.955 191.832 813.127 192.223 C 814.257 192.6 818.097 193.033 819.229 192.467 C 819.923 192.12 820.303 191.491 820.937 191.491" style="fill: rgb(216, 216, 216); stroke: rgb(0, 0, 0);"/>
    <path d="M 717.202 146.824 C 717.202 148.517 719.87 149.256 721.352 149.997 C 726.086 152.364 731.829 154.768 737.217 155.366 C 744.315 156.155 751.114 158.502 758.208 159.516 C 765.754 160.594 773.361 161.367 780.908 162.445 C 784.921 163.018 789.123 162.512 793.112 163.177 C 798.236 164.031 803.725 163.665 808.977 163.665 C 810.084 163.665 813.558 164.21 814.347 163.421" style="fill: rgb(216, 216, 216); stroke: rgb(0, 0, 0);"/>
    <path d="M 759.429 145.359 C 765.524 151.454 776.434 152.635 785.301 153.902 C 806.125 156.877 826.876 155.009 847.054 150.973 C 849.213 150.541 851.268 149.203 853.4 148.776 C 858.909 147.675 866.795 143.192 869.998 139.989 C 870.711 139.276 874.277 135.97 872.683 134.375 C 870.97 132.662 869.438 131.045 866.825 129.738 C 865.568 129.109 864.325 128.254 862.919 127.785" style="fill: rgb(216, 216, 216); stroke: rgb(0, 0, 0);"/>
    <path d="M 783.105 105.086 C 759.64 99.219 735.294 98.383 711.344 96.787 C 700.572 96.069 688.269 96.242 678.393 101.18 C 661.924 109.415 653.484 136.521 669.362 149.753 C 679.65 158.326 693.777 160.004 706.707 160.004" style="fill: rgb(216, 216, 216); stroke: rgb(0, 0, 0);"/>
    <path d="M 739.902 137.793 C 736.496 134.387 730.076 133.917 725.501 133.155 C 714.81 131.373 702.639 130.826 691.818 132.179 C 686.957 132.786 682.202 135.083 677.661 135.84 C 673.707 136.499 666.544 140.988 664.725 144.627 C 663.966 146.144 662.497 148.761 664.481 149.753 C 669.929 152.477 677.096 151.949 683.763 151.949 C 695.972 151.949 709.489 150.94 721.108 147.068 C 725.534 145.592 730.259 145.299 734.532 143.162 C 736.433 142.212 738.248 141.182 740.146 140.233 C 741.678 139.468 743.417 138.642 744.784 137.548 C 748.257 134.77 756.192 126.257 751.374 121.439 C 742.67 112.736 729.961 109.541 717.446 107.038 C 689.688 101.486 660.098 103.816 634.214 115.581 C 618.481 122.733 600.728 138.738 603.948 158.051 C 605.864 169.546 620.628 174.43 630.309 177.334 C 653.614 184.325 680.84 178.124 700.849 165.618 C 708.866 160.607 719.399 154.014 719.399 143.406" style="fill: rgb(216, 216, 216); stroke: rgb(0, 0, 0);"/>
    <path d="M 579.784 -1.09 C 580.109 -1.578 580.174 -2.555 580.76 -2.555" style="fill: rgb(216, 216, 216); stroke: rgb(0, 0, 0);"/>
  </defs>
  <path style="fill: rgb(155, 228, 246);" transform="translate(490,0)" fill-rule="evenodd" stroke="none" d="M88.858 13.125 C 90.876 15.592,91.071 17.027,89.749 19.682 C 88.756 21.678,89.090 21.500,86.335 21.502 C 82.245 21.505,77.880 22.323,71.305 24.319 L 69.026 25.011 67.986 24.435 L 66.946 23.858 66.468 24.518 C 65.079 26.435,64.105 26.290,61.848 23.828 C 58.123 19.766,53.084 15.677,52.644 16.360 C 52.163 17.108,53.217 18.866,56.095 22.113 C 57.893 24.142,58.073 24.538,57.927 26.152 C 57.532 30.535,56.459 34.663,54.981 37.487 C 51.786 43.590,58.002 38.706,61.956 32.006 C 62.576 30.956,63.259 29.887,63.473 29.631 C 63.881 29.145,64.390 28.992,64.232 29.404 C 63.946 30.148,64.929 30.449,66.393 30.065 C 67.778 29.701,70.222 29.838,72.399 30.400 C 75.072 31.091,75.300 31.401,74.666 33.486 C 73.768 36.442,73.801 36.759,75.000 36.711 C 76.137 36.666,76.847 36.182,79.152 33.880 C 81.252 31.785,81.414 31.659,81.819 31.815 C 83.319 32.393,89.321 32.995,93.583 32.994 C 100.675 32.993,105.991 31.525,110.265 28.386 C 111.509 27.474,111.462 27.400,109.583 27.328 L 108.583 27.290 109.750 27.156 C 110.392 27.082,112.717 26.947,114.917 26.856 C 118.481 26.708,129.233 25.590,130.667 25.218 C 131.613 24.973,129.382 24.858,123.417 24.844 C 112.196 24.818,108.127 24.434,104.579 23.066 C 101.925 22.043,100.829 21.694,99.333 21.400 C 98.646 21.264,97.922 21.119,97.725 21.078 C 97.525 21.035,97.181 20.686,96.948 20.289 C 96.304 19.189,94.356 16.491,93.685 15.769 C 93.190 15.236,88.025 11.667,87.748 11.667 C 87.703 11.667,88.203 12.323,88.858 13.125 M194.750 19.432 C 194.383 19.649,193.990 19.874,193.875 19.931 C 193.524 20.107,193.643 20.499,194.100 20.673 C 194.339 20.764,194.674 21.006,194.845 21.211 C 195.111 21.530,195.156 21.542,195.161 21.292 C 195.165 21.068,195.312 20.999,195.792 20.995 C 196.135 20.992,196.558 20.882,196.731 20.751 C 197.004 20.545,197.092 20.545,197.393 20.757 C 198.053 21.218,198.518 20.832,197.910 20.328 C 197.684 20.140,197.707 20.060,198.108 19.641 C 198.633 19.093,198.391 19.004,197.378 19.370 C 196.980 19.514,196.781 19.521,196.699 19.394 C 196.447 19.004,195.439 19.023,194.750 19.432 M182.083 20.502 C 181.000 20.969,180.471 21.833,181.268 21.833 C 181.404 21.833,181.700 22.032,181.925 22.274 C 182.237 22.611,182.333 22.650,182.333 22.441 C 182.333 22.246,182.481 22.167,182.842 22.167 C 183.121 22.167,183.578 22.049,183.857 21.905 C 184.318 21.666,184.390 21.666,184.653 21.905 C 185.219 22.417,185.519 22.158,185.152 21.473 C 185.005 21.198,185.042 21.061,185.347 20.735 C 185.857 20.193,185.642 20.052,184.850 20.409 C 184.241 20.684,183.722 20.648,183.910 20.345 C 184.061 20.100,182.756 20.212,182.083 20.502 M223.734 25.218 C 218.020 30.967,214.513 34.824,209.214 41.189 C 208.062 42.573,207.926 42.676,205.646 43.905 L 203.275 45.182 200.263 44.762 C 187.102 42.928,170.167 41.822,170.167 42.797 C 170.167 42.985,170.121 43.258,170.066 43.403 C 169.981 43.624,170.114 43.667,170.889 43.667 L 171.813 43.667 170.999 45.375 C 169.490 48.545,168.040 53.537,167.575 57.167 L 167.457 58.083 168.114 57.250 C 168.474 56.792,169.921 54.879,171.329 53.000 C 172.737 51.121,174.075 49.358,174.303 49.083 L 174.718 48.583 174.602 50.016 C 174.539 50.804,174.313 52.289,174.101 53.317 C 173.889 54.344,173.769 55.124,173.834 55.051 C 173.900 54.977,174.682 53.992,175.574 52.861 C 176.465 51.731,177.226 50.838,177.265 50.877 C 177.305 50.916,177.191 51.803,177.014 52.849 C 176.836 53.894,176.638 55.292,176.574 55.955 L 176.458 57.160 173.452 58.343 C 170.234 59.610,162.362 62.600,152.913 66.144 C 148.763 67.700,146.869 68.333,146.363 68.333 C 145.971 68.333,145.410 68.462,145.117 68.619 C 144.699 68.843,143.934 68.930,141.583 69.020 C 138.205 69.150,136.710 69.454,134.750 70.406 L 133.583 70.973 135.958 70.987 C 139.615 71.007,139.406 71.168,132.750 73.457 C 125.761 75.860,120.983 77.248,108.833 80.403 C 102.888 81.948,97.729 82.973,92.913 83.566 L 90.948 83.809 89.766 83.015 C 88.740 82.326,85.867 80.593,83.294 79.110 L 82.505 78.656 83.209 79.786 C 85.219 83.015,93.358 92.777,99.414 99.224 C 100.858 100.760,102.011 102.038,101.978 102.063 C 101.944 102.089,100.754 102.281,99.333 102.490 C 96.036 102.975,85.644 104.800,85.531 104.914 C 85.483 104.961,86.282 105.000,87.306 105.000 C 88.329 105.000,89.167 105.028,89.167 105.062 C 89.167 105.096,88.716 106.963,88.166 109.211 C 87.030 113.851,86.687 116.517,87.265 116.198 C 88.054 115.764,91.791 111.800,92.990 110.125 C 93.301 109.690,93.577 109.354,93.602 109.380 C 93.627 109.405,93.840 110.586,94.075 112.004 C 94.310 113.423,94.548 114.771,94.602 115.000 C 94.731 115.541,97.101 113.100,99.295 110.167 C 100.084 109.112,100.753 108.218,100.783 108.179 C 100.990 107.906,102.443 110.756,103.410 113.333 C 104.154 115.315,105.284 117.783,105.510 117.923 C 105.613 117.986,107.790 113.011,108.467 111.167 C 108.652 110.662,108.886 110.036,108.987 109.775 L 109.171 109.301 110.856 110.854 C 111.783 111.709,112.618 112.576,112.712 112.782 C 112.805 112.988,112.946 113.117,113.025 113.068 C 113.146 112.993,114.033 113.767,116.382 115.996 L 116.848 116.438 116.483 117.261 C 115.398 119.711,116.279 125.603,119.598 138.083 C 120.381 141.027,122.598 148.487,122.729 148.618 C 122.751 148.640,123.627 148.308,124.676 147.881 C 127.829 146.596,128.751 146.673,131.095 148.420 C 134.294 150.805,135.294 150.495,140.189 145.600 C 143.745 142.044,144.366 141.604,145.833 141.597 C 148.176 141.586,149.253 143.152,149.666 147.167 C 150.201 152.362,150.897 153.340,154.586 154.082 C 158.832 154.936,159.684 155.827,161.486 161.306 C 163.467 167.326,165.879 169.667,170.099 169.667 C 171.137 169.667,170.963 169.534,168.791 168.673 C 166.158 167.630,165.827 167.099,166.093 164.351 C 166.485 160.298,166.159 159.502,163.899 158.996 C 162.438 158.669,162.340 158.208,163.250 155.951 C 164.048 153.971,164.020 153.578,162.917 151.305 C 162.058 149.537,161.494 147.754,161.239 146.000 L 161.130 145.250 161.627 146.014 C 163.280 148.554,167.000 158.743,167.000 160.732 C 167.000 162.929,167.557 163.969,169.391 165.195 C 169.955 165.572,170.585 166.033,170.792 166.220 L 171.167 166.558 171.164 165.071 C 171.160 162.903,170.838 161.670,169.680 159.387 C 167.875 155.827,167.919 155.128,170.238 150.333 C 172.438 145.787,172.465 145.586,171.473 141.167 C 170.660 137.546,170.906 135.449,172.314 133.988 C 173.241 133.026,173.668 132.905,173.081 133.770 C 172.205 135.061,172.105 136.915,172.750 139.901 C 173.226 142.102,173.265 143.449,172.914 145.583 C 172.594 147.532,172.601 148.709,172.946 150.753 L 173.227 152.422 172.768 153.336 C 172.516 153.839,172.110 154.625,171.867 155.083 C 170.957 156.794,171.059 157.463,173.052 162.900 L 173.474 164.050 173.661 163.317 C 174.141 161.444,174.760 160.398,176.819 157.978 C 178.297 156.240,178.717 154.929,178.920 151.417 C 179.159 147.290,179.533 146.145,181.182 144.496 C 182.268 143.410,182.333 143.371,182.333 143.802 C 182.333 145.066,181.922 147.202,181.309 149.117 C 180.675 151.099,180.618 151.438,180.498 153.917 C 180.283 158.352,179.579 160.218,177.052 163.050 C 176.548 163.615,176.022 164.295,175.885 164.562 C 175.651 165.013,174.931 169.320,175.066 169.455 C 175.135 169.524,177.402 168.961,180.583 168.084 C 186.588 166.428,189.360 166.474,193.417 168.298 C 197.159 169.981,198.371 169.919,202.097 167.857 C 204.603 166.469,207.312 165.565,209.875 165.261 C 211.946 165.015,212.167 164.968,212.167 164.777 C 212.167 164.530,212.974 163.626,213.424 163.368 C 213.739 163.187,213.731 163.146,213.173 162.087 C 212.316 160.460,211.987 160.198,211.243 160.553 C 210.100 161.098,208.833 160.784,208.833 159.955 C 208.833 159.619,209.073 159.462,209.904 159.250 C 210.935 158.987,210.815 158.727,209.564 158.509 C 208.318 158.292,207.719 158.025,206.775 157.266 C 206.422 156.982,205.644 156.487,205.045 156.167 C 203.715 155.454,202.836 154.203,202.704 152.834 C 202.586 151.605,202.906 151.795,204.245 153.750 C 204.639 154.325,204.732 153.875,204.427 152.869 C 203.584 150.082,204.552 150.442,205.766 153.366 C 206.840 155.951,207.217 156.371,207.433 155.223 C 207.523 154.743,207.445 154.291,207.107 153.338 C 206.388 151.306,206.570 150.524,207.451 151.855 L 207.906 152.543 208.044 152.011 C 208.224 151.316,208.681 151.387,208.898 152.143 C 209.017 152.558,208.983 153.006,208.763 153.892 C 208.302 155.752,208.378 155.977,209.708 156.667 C 211.279 157.481,213.392 159.613,214.302 161.302 L 214.993 162.583 214.996 161.405 C 215.002 159.478,214.065 157.079,212.461 154.917 C 211.748 153.955,211.301 153.496,209.061 151.430 C 207.952 150.406,207.320 149.351,206.584 147.292 C 206.203 146.227,206.059 146.000,205.766 146.000 C 204.526 146.000,202.840 143.048,203.335 141.746 C 203.630 140.968,204.028 141.299,204.512 142.724 C 204.755 143.443,205.146 144.222,205.380 144.455 L 205.804 144.880 205.713 143.229 C 205.618 141.491,205.775 141.027,206.383 141.260 C 206.739 141.397,206.805 141.613,207.245 144.113 C 207.713 146.770,208.378 148.446,208.760 147.928 C 208.967 147.648,208.963 147.569,208.733 147.314 C 208.112 146.628,207.793 144.879,208.225 144.521 C 208.553 144.249,208.979 144.787,209.145 145.685 L 209.280 146.417 209.410 145.619 C 209.588 144.524,209.995 144.018,210.384 144.408 C 211.060 145.084,210.803 146.978,209.818 148.571 L 209.311 149.392 211.100 151.154 C 212.159 152.198,212.615 152.577,212.217 152.083 C 210.924 150.480,210.492 149.041,210.881 147.625 C 211.166 146.584,211.827 147.230,211.853 148.575 L 211.873 149.583 212.007 148.782 C 212.381 146.555,213.207 147.062,213.335 149.598 C 213.411 151.117,213.467 151.349,213.918 152.014 L 214.417 152.750 214.527 149.667 C 214.629 146.813,214.614 146.559,214.330 146.250 C 213.659 145.523,213.462 144.199,213.926 143.537 C 214.298 143.007,214.806 143.064,215.059 143.664 L 215.268 144.162 215.472 143.597 C 216.117 141.815,216.930 142.957,216.412 144.917 C 215.925 146.757,215.709 148.590,216.036 148.093 C 216.604 147.233,217.461 146.449,217.725 146.551 C 218.415 146.816,217.950 148.425,216.601 150.436 C 215.513 152.057,215.676 153.129,217.340 155.311 L 218.246 156.499 218.464 155.874 C 218.655 155.331,218.646 155.174,218.398 154.667 C 217.726 153.289,217.978 149.987,218.832 148.978 C 219.316 148.406,219.733 148.933,219.574 149.917 C 219.485 150.462,219.505 150.545,219.683 150.375 C 220.164 149.913,220.594 150.152,220.508 150.833 C 220.490 150.971,220.181 151.508,219.821 152.026 C 219.212 152.904,219.026 153.470,219.267 153.711 C 219.369 153.813,220.857 152.062,222.109 150.367 L 222.801 149.431 222.163 148.706 C 221.813 148.308,221.390 147.653,221.223 147.251 C 220.960 146.615,220.830 146.497,220.225 146.344 C 219.005 146.037,218.015 144.948,218.359 144.292 C 218.562 143.903,218.774 143.923,219.702 144.417 C 220.665 144.929,220.667 144.929,220.667 144.411 C 220.667 142.230,222.074 142.371,222.279 144.573 L 222.379 145.644 222.731 144.947 C 223.186 144.047,223.555 144.035,223.671 144.917 C 223.744 145.465,223.778 145.346,223.863 144.250 C 224.036 142.050,224.796 140.500,225.704 140.500 C 226.077 140.500,226.090 141.070,225.747 142.333 C 225.579 142.950,225.504 143.959,225.517 145.417 C 225.544 148.539,225.319 149.038,222.429 152.264 C 220.540 154.372,219.773 155.643,219.173 157.658 C 218.970 158.341,218.438 159.635,217.992 160.533 C 217.064 162.400,217.113 162.477,218.513 161.349 C 219.070 160.900,219.861 160.356,220.270 160.141 C 220.883 159.819,220.993 159.691,220.895 159.417 C 220.785 159.109,220.682 157.789,220.632 156.034 C 220.619 155.582,220.708 155.221,220.873 155.056 C 221.167 154.761,221.500 154.883,221.500 155.286 C 221.500 155.519,221.540 155.515,221.827 155.256 C 222.659 154.503,222.967 155.680,222.224 156.768 C 221.754 157.456,221.494 158.874,221.803 159.065 C 222.484 159.486,223.483 157.417,223.484 155.583 C 223.485 154.231,223.925 152.662,224.665 151.381 C 225.976 149.111,226.485 150.659,225.428 153.699 L 225.020 154.873 225.423 154.494 C 225.687 154.246,225.892 153.782,226.016 153.153 C 226.331 151.549,227.167 150.573,227.167 151.808 C 227.167 152.195,227.235 152.262,227.625 152.257 C 228.774 152.240,227.992 154.189,226.450 155.186 C 225.899 155.542,225.319 155.833,225.160 155.833 C 224.816 155.833,224.672 156.294,224.669 157.406 C 224.666 158.554,224.164 159.486,223.085 160.347 C 221.967 161.239,221.934 161.217,223.930 160.924 C 226.104 160.606,230.179 160.333,232.763 160.333 C 233.902 160.333,234.833 160.305,234.833 160.270 C 234.833 160.235,234.571 159.771,234.250 159.238 C 233.441 157.894,232.816 156.190,232.023 153.167 C 231.651 151.746,231.192 150.136,231.003 149.589 L 230.660 148.595 231.261 149.172 C 232.091 149.970,232.290 150.410,232.946 152.898 C 233.654 155.580,234.270 157.082,235.320 158.680 C 236.509 160.491,236.442 160.454,239.008 160.739 C 240.991 160.959,244.688 161.575,246.579 161.999 C 247.508 162.208,247.523 162.249,245.844 159.973 C 245.010 158.842,244.086 157.429,243.789 156.834 L 243.250 155.751 243.304 150.237 C 243.356 144.968,243.256 143.131,242.836 141.653 L 242.666 141.055 240.500 140.654 L 238.333 140.253 238.317 139.085 C 238.239 133.658,239.099 128.772,241.895 118.750 L 242.128 117.917 242.189 119.000 L 242.250 120.083 245.320 114.459 C 247.009 111.366,248.406 108.853,248.425 108.876 C 248.525 108.994,250.845 118.210,250.789 118.266 C 250.753 118.303,250.259 118.381,249.691 118.440 C 248.424 118.573,248.502 118.698,249.942 118.847 C 250.579 118.913,251.100 119.057,251.184 119.189 C 251.289 119.355,251.329 119.360,251.331 119.208 C 251.332 119.081,251.566 119.000,251.934 119.000 C 252.439 119.000,252.518 119.047,252.423 119.292 C 251.969 120.473,251.333 124.540,251.333 126.264 C 251.333 127.566,252.394 127.558,253.893 126.243 L 254.750 125.491 254.804 126.037 C 254.954 127.554,256.245 127.758,257.753 126.504 C 259.005 125.463,259.167 125.454,259.167 126.425 C 259.167 127.411,259.514 128.056,260.226 128.394 C 261.311 128.909,261.699 128.775,263.365 127.308 L 264.481 126.325 264.803 127.038 C 264.980 127.429,265.388 128.000,265.709 128.305 L 266.293 128.860 267.022 127.964 C 267.422 127.472,267.874 126.884,268.026 126.659 L 268.301 126.250 268.496 126.750 C 268.944 127.902,269.135 127.928,270.036 126.960 C 270.507 126.454,270.887 126.166,270.935 126.278 C 270.981 126.386,271.315 127.085,271.676 127.832 C 272.038 128.580,272.333 129.225,272.333 129.267 C 272.333 129.308,271.332 129.292,270.108 129.230 C 267.244 129.086,267.309 129.064,265.386 130.878 C 262.012 134.062,257.527 137.519,253.137 140.319 C 251.641 141.273,250.397 142.068,250.373 142.085 C 250.349 142.102,250.531 142.558,250.779 143.099 C 251.414 144.488,251.411 146.779,250.772 149.500 C 249.627 154.377,249.769 155.548,252.085 160.353 C 252.863 161.968,253.500 163.374,253.500 163.478 C 253.500 165.228,255.901 159.328,256.402 156.346 C 256.758 154.233,256.761 154.261,255.990 152.666 C 254.903 150.420,254.521 148.099,254.828 145.623 C 255.078 143.613,255.358 143.013,255.228 144.766 C 255.083 146.729,255.554 149.164,256.461 151.137 C 256.880 152.047,256.993 151.474,257.015 148.333 L 257.036 145.417 257.454 147.000 C 257.798 148.300,257.883 149.060,257.930 151.250 C 257.982 153.652,258.032 154.041,258.441 155.167 C 259.300 157.534,259.204 159.964,258.087 164.154 C 257.857 165.018,257.687 165.740,257.709 165.759 C 257.732 165.779,258.289 166.064,258.947 166.394 L 260.144 166.993 260.512 166.398 C 260.853 165.845,260.864 165.741,260.668 164.923 C 260.269 163.260,260.477 162.242,261.700 159.872 C 263.424 156.531,263.461 155.861,262.089 152.859 C 260.663 149.742,260.067 146.548,260.418 143.908 L 260.550 142.917 260.785 144.500 C 260.948 145.597,261.303 146.825,261.943 148.500 C 264.492 155.169,264.613 156.910,262.738 159.937 C 261.584 161.800,261.341 162.449,261.340 163.667 C 261.338 165.158,261.472 165.302,262.176 164.567 C 262.879 163.833,264.596 162.584,265.260 162.323 C 265.867 162.085,266.734 161.823,266.648 161.904 C 266.612 161.937,266.246 162.241,265.833 162.581 C 264.745 163.475,263.218 164.965,262.540 165.792 L 261.952 166.509 262.351 167.439 C 263.107 169.201,268.040 171.667,269.823 171.174 C 272.658 170.392,272.665 167.448,269.840 163.572 C 265.983 158.280,266.269 152.254,270.562 148.333 C 273.223 145.904,274.409 144.667,274.955 143.750 C 275.816 142.307,276.115 142.023,277.417 141.418 C 281.529 139.507,281.123 136.213,276.144 131.085 C 272.648 127.484,272.076 126.407,271.883 123.055 L 271.785 121.360 271.184 121.101 L 270.583 120.841 271.208 120.887 C 271.779 120.929,271.834 120.896,271.836 120.508 C 271.841 119.491,271.954 119.378,272.888 119.460 C 274.328 119.586,276.113 120.285,278.763 121.760 C 284.500 124.953,286.959 125.389,290.694 123.876 C 291.430 123.578,291.888 123.101,293.571 120.880 C 298.158 114.825,303.750 114.182,306.783 119.361 C 308.316 121.981,310.243 121.094,309.521 118.100 C 308.965 115.793,309.274 115.084,311.135 114.399 C 312.397 113.935,312.385 113.797,310.874 111.286 C 310.015 109.858,309.670 109.650,308.860 110.070 C 308.156 110.434,307.285 110.407,306.927 110.012 C 306.477 109.515,306.724 109.067,307.565 108.855 C 308.719 108.565,308.865 108.214,307.886 108.083 C 306.594 107.909,305.677 107.548,304.768 106.854 C 304.300 106.496,303.541 106.016,303.082 105.786 C 302.623 105.557,302.036 105.158,301.779 104.900 L 301.310 104.431 301.419 104.924 C 301.479 105.195,301.550 105.492,301.576 105.583 C 301.608 105.692,300.841 105.682,299.354 105.553 C 298.105 105.445,296.610 105.351,296.030 105.345 C 295.018 105.334,294.982 105.319,295.093 104.958 C 295.257 104.423,297.979 98.619,298.127 98.488 C 298.215 98.410,302.392 98.790,303.644 98.990 C 303.678 98.996,303.434 99.300,303.103 99.667 C 302.468 100.370,302.412 100.502,302.643 100.758 C 302.722 100.845,303.104 101.715,303.493 102.691 C 304.475 105.156,304.797 105.670,305.102 105.253 C 305.440 104.790,305.387 104.049,304.917 102.667 C 304.260 100.737,304.420 100.266,305.314 101.500 L 305.796 102.166 305.908 101.572 C 306.037 100.883,306.310 100.889,306.651 101.589 C 306.891 102.083,306.874 102.239,306.342 104.312 C 306.092 105.290,306.353 105.666,307.737 106.327 C 309.144 106.999,311.409 109.372,312.275 111.083 L 312.865 112.250 312.802 110.552 C 312.706 107.959,310.603 104.000,308.377 102.218 C 306.779 100.940,305.741 99.763,305.171 98.583 C 304.467 97.125,304.787 97.277,301.661 96.916 C 300.197 96.747,299.000 96.583,299.000 96.552 C 299.000 96.521,299.486 95.525,300.081 94.338 C 300.675 93.152,301.122 92.078,301.074 91.953 C 300.932 91.582,301.298 90.833,301.621 90.833 C 301.805 90.833,302.100 90.503,302.401 89.958 C 303.841 87.356,307.086 81.979,308.722 79.483 L 308.984 79.083 307.617 79.083 C 306.865 79.083,306.059 79.030,305.826 78.964 C 305.433 78.853,305.335 78.952,304.502 80.297 C 302.559 83.434,298.313 90.562,296.761 93.292 L 295.126 96.167 294.341 96.167 C 293.301 96.167,284.016 90.802,283.438 89.868 C 283.345 89.717,284.687 87.340,284.869 87.336 C 285.020 87.333,285.500 88.937,285.500 89.447 C 285.500 90.818,287.582 85.854,288.326 82.708 C 288.587 81.607,288.497 81.646,290.353 81.820 C 292.251 81.997,292.317 81.965,290.969 81.521 C 289.064 80.895,283.538 80.133,275.706 79.416 L 271.250 79.008 270.694 78.379 C 268.314 75.687,265.419 71.737,265.941 71.892 C 266.458 72.045,271.476 73.001,271.704 72.989 C 272.067 72.970,269.018 71.899,266.974 71.328 C 264.061 70.513,264.013 70.904,267.691 65.435 C 270.304 61.550,275.808 53.644,277.154 51.842 C 277.767 51.021,274.362 53.722,271.685 56.179 C 268.672 58.945,264.608 63.325,262.239 66.359 C 261.743 66.994,260.985 67.146,257.308 67.345 C 248.557 67.818,239.218 66.463,233.073 63.829 L 232.302 63.498 232.609 63.027 C 232.778 62.768,234.370 60.454,236.147 57.884 L 239.377 53.211 241.105 53.584 C 243.192 54.035,243.225 53.995,241.457 53.167 C 239.396 52.201,235.099 51.086,226.083 49.179 C 221.734 48.258,211.472 46.333,210.916 46.333 C 209.850 46.333,210.962 44.768,217.599 36.926 C 222.269 31.407,224.331 28.656,225.724 26.083 C 226.589 24.488,227.927 21.371,227.801 21.246 C 227.768 21.213,225.938 23.000,223.734 25.218 M188.917 21.548 C 187.327 22.476,187.189 22.692,188.002 22.976 C 188.278 23.072,188.549 23.267,188.603 23.409 C 188.726 23.727,189.000 23.749,189.000 23.440 C 189.000 23.290,189.136 23.239,189.399 23.289 C 189.619 23.331,190.063 23.240,190.386 23.087 C 190.936 22.826,191.000 22.826,191.408 23.093 C 191.944 23.444,192.118 23.307,191.858 22.738 C 191.691 22.371,191.714 22.242,192.014 21.862 C 192.452 21.307,192.075 21.136,191.395 21.582 C 190.966 21.864,190.394 21.807,190.583 21.501 C 190.728 21.265,189.333 21.304,188.917 21.548 M193.333 23.612 C 192.120 24.136,191.832 24.734,192.653 25.020 C 192.921 25.114,193.181 25.297,193.231 25.428 C 193.344 25.722,193.666 25.744,193.668 25.458 C 193.668 25.330,193.931 25.240,194.355 25.224 C 194.732 25.209,195.154 25.084,195.294 24.944 C 195.520 24.718,195.597 24.728,196.021 25.042 C 196.617 25.483,196.831 25.296,196.463 24.656 C 196.309 24.387,196.251 24.167,196.335 24.167 C 196.534 24.167,196.891 23.502,196.761 23.373 C 196.707 23.318,196.404 23.397,196.087 23.548 C 195.582 23.789,195.483 23.792,195.268 23.578 C 194.960 23.270,194.091 23.285,193.333 23.612 M182.917 24.321 C 182.005 24.826,181.787 25.375,182.459 25.470 C 182.665 25.499,182.912 25.668,183.006 25.845 C 183.203 26.213,183.500 26.274,183.500 25.946 C 183.500 25.797,183.657 25.747,183.978 25.795 C 184.241 25.833,184.691 25.743,184.978 25.595 C 185.460 25.346,185.531 25.346,185.921 25.602 C 186.445 25.945,186.616 25.803,186.358 25.238 C 186.191 24.872,186.214 24.742,186.510 24.366 C 186.957 23.798,186.658 23.672,185.871 24.096 C 185.372 24.365,185.273 24.373,185.107 24.161 C 184.785 23.748,183.825 23.818,182.917 24.321 M172.425 24.654 C 172.372 24.738,172.109 24.856,171.840 24.915 C 170.441 25.222,169.613 26.833,170.854 26.833 C 171.013 26.833,171.304 27.058,171.500 27.333 C 171.918 27.920,172.167 27.975,172.167 27.479 C 172.167 27.178,172.238 27.139,172.647 27.221 C 173.257 27.343,174.169 27.094,174.731 26.652 C 175.099 26.362,175.183 26.348,175.263 26.558 C 175.362 26.816,176.470 27.419,176.602 27.287 C 176.724 27.165,176.388 26.419,176.103 26.183 C 175.867 25.987,175.901 25.890,176.431 25.273 C 177.140 24.448,176.776 24.206,175.741 24.816 C 175.069 25.213,174.005 25.146,174.351 24.729 C 174.508 24.539,174.368 24.500,173.530 24.500 C 172.974 24.500,172.477 24.569,172.425 24.654 M200.000 25.279 C 198.787 25.802,198.498 26.401,199.320 26.687 C 199.588 26.780,199.848 26.964,199.898 27.095 C 200.011 27.388,200.333 27.411,200.334 27.125 C 200.335 26.997,200.598 26.907,201.021 26.890 C 201.399 26.876,201.821 26.750,201.960 26.611 C 202.187 26.385,202.264 26.395,202.688 26.709 C 203.284 27.150,203.497 26.963,203.130 26.323 C 202.975 26.053,202.918 25.833,203.002 25.833 C 203.200 25.833,203.557 25.168,203.428 25.039 C 203.374 24.985,203.070 25.064,202.754 25.214 C 202.249 25.455,202.149 25.459,201.935 25.244 C 201.627 24.936,200.758 24.952,200.000 25.279 M184.585 27.962 C 183.607 28.497,183.425 28.933,184.109 29.105 C 184.365 29.169,184.705 29.378,184.865 29.569 C 185.121 29.876,185.156 29.882,185.161 29.625 C 185.165 29.396,185.312 29.333,185.839 29.333 C 186.209 29.333,186.688 29.218,186.902 29.077 C 187.231 28.862,187.307 28.858,187.382 29.054 C 187.432 29.182,187.628 29.328,187.819 29.378 C 188.232 29.486,188.311 28.994,187.932 28.679 C 187.734 28.515,187.763 28.413,188.116 28.034 L 188.536 27.583 188.171 27.528 C 187.970 27.498,187.673 27.594,187.510 27.741 C 187.215 28.008,186.586 27.931,186.761 27.649 C 186.979 27.297,185.382 27.527,184.585 27.962 M191.417 28.944 C 190.303 29.533,190.031 30.055,190.745 30.234 C 190.972 30.291,191.237 30.486,191.334 30.669 C 191.543 31.059,191.833 31.106,191.833 30.750 C 191.833 30.582,192.001 30.500,192.342 30.500 C 192.621 30.500,193.064 30.389,193.325 30.254 C 193.743 30.038,193.824 30.038,194.004 30.254 C 194.481 30.829,195.014 30.498,194.589 29.891 C 194.368 29.577,194.377 29.513,194.672 29.245 C 195.274 28.700,194.768 28.396,194.087 28.894 C 193.761 29.132,193.104 29.069,193.262 28.814 C 193.418 28.562,191.944 28.666,191.417 28.944 M362.272 28.975 C 361.933 29.350,361.922 30.323,362.248 31.103 C 362.468 31.631,362.467 31.723,362.239 31.952 C 362.063 32.128,362.015 32.371,362.086 32.729 C 362.186 33.235,362.176 33.230,361.763 32.560 C 361.025 31.366,360.129 31.483,360.473 32.728 C 360.636 33.321,360.630 33.333,360.167 33.333 C 359.479 33.333,359.167 33.494,359.167 33.847 C 359.167 34.390,359.898 34.723,360.823 34.600 C 361.521 34.508,361.728 34.551,362.242 34.901 C 362.573 35.125,363.054 35.355,363.310 35.412 L 363.776 35.514 363.638 36.549 C 363.264 39.347,362.917 40.058,362.917 38.027 C 362.917 36.925,362.913 36.917,362.458 36.923 C 362.155 36.928,361.967 36.825,361.902 36.622 C 361.839 36.422,361.678 36.332,361.444 36.365 C 360.675 36.475,361.327 38.809,362.452 39.975 C 362.864 40.401,363.263 40.912,363.340 41.109 L 363.480 41.469 362.532 41.083 C 362.010 40.871,361.302 40.461,360.958 40.173 L 360.333 39.648 360.331 37.949 C 360.328 35.716,359.698 34.505,359.275 35.917 C 358.889 37.203,358.902 37.219,358.129 34.501 C 357.818 33.405,356.831 33.383,357.090 34.478 C 357.176 34.843,357.162 34.853,356.913 34.603 C 356.541 34.232,356.358 34.264,356.141 34.739 C 355.895 35.279,356.389 36.149,357.144 36.510 C 357.581 36.717,357.885 37.142,358.672 38.636 C 359.598 40.394,359.629 40.489,359.203 40.267 C 358.600 39.954,358.114 39.402,357.682 38.542 C 357.259 37.698,356.667 37.543,356.667 38.276 C 356.667 38.694,356.650 38.703,356.362 38.442 C 355.934 38.055,355.667 38.100,355.667 38.559 C 355.667 39.089,356.298 39.990,357.004 40.467 L 357.583 40.859 357.083 40.737 C 355.860 40.438,355.416 40.211,355.472 39.911 C 355.573 39.362,355.133 37.502,354.802 37.081 C 354.261 36.393,353.770 36.522,353.878 37.324 L 353.966 37.981 353.618 37.657 C 353.202 37.269,353.022 37.250,352.895 37.579 C 352.755 37.945,353.443 38.947,354.007 39.196 C 354.278 39.316,354.500 39.515,354.500 39.638 C 354.500 40.028,353.267 38.984,352.167 37.664 C 351.037 36.307,350.771 36.091,350.407 36.231 C 350.041 36.371,350.114 36.677,350.740 37.629 C 351.449 38.704,351.151 38.800,350.103 37.833 C 349.298 37.092,348.833 36.976,348.833 37.516 C 348.833 38.461,350.263 39.500,351.563 39.500 C 352.207 39.500,352.424 39.602,353.195 40.270 C 354.287 41.217,355.098 41.595,356.688 41.901 C 359.315 42.405,361.833 43.823,362.862 45.376 C 363.415 46.211,363.377 46.291,362.644 45.840 C 361.653 45.230,359.581 44.667,358.329 44.667 C 357.051 44.667,356.857 44.499,356.605 43.175 C 356.485 42.547,355.916 41.833,355.536 41.833 C 355.367 41.833,355.327 41.950,355.398 42.235 C 355.495 42.620,355.478 42.629,355.006 42.451 C 354.166 42.134,354.230 42.469,355.200 43.463 C 356.981 45.287,356.690 45.629,354.674 44.082 C 353.898 43.487,353.167 43.000,353.049 43.000 C 352.665 43.000,352.820 43.592,353.333 44.083 C 353.957 44.681,353.973 44.875,353.375 44.588 C 351.899 43.878,351.680 44.394,353.023 45.418 C 354.107 46.244,356.986 46.547,358.625 46.007 C 359.627 45.677,359.673 45.717,359.046 46.372 C 358.087 47.374,359.293 47.907,360.282 46.918 C 361.026 46.174,361.164 46.198,362.909 47.369 C 364.589 48.498,364.707 48.682,364.132 49.286 C 361.940 51.585,361.004 56.104,362.188 58.668 L 362.611 59.586 359.948 60.360 L 357.285 61.134 357.388 59.442 C 357.459 58.289,357.679 57.068,358.079 55.608 C 358.402 54.430,358.667 53.214,358.667 52.906 C 358.667 51.413,356.417 51.866,355.682 53.507 L 355.401 54.136 355.009 53.276 C 353.820 50.667,350.274 48.443,348.869 49.427 C 347.061 50.694,347.862 52.711,351.248 55.411 C 352.696 56.565,353.655 58.052,352.619 57.534 C 351.739 57.095,349.956 57.162,349.431 57.654 C 348.313 58.703,349.208 59.886,351.407 60.265 C 353.021 60.544,353.743 60.795,354.516 61.345 L 355.013 61.699 353.915 62.705 C 352.442 64.055,352.189 64.604,351.911 67.061 C 351.235 73.019,348.274 77.647,343.125 80.793 L 341.833 81.583 341.833 82.708 L 341.833 83.833 342.805 82.862 C 345.089 80.578,347.838 80.453,347.967 82.628 C 348.046 83.968,347.710 84.535,346.303 85.433 C 343.029 87.523,341.871 89.161,344.786 87.578 C 345.302 87.298,345.658 87.220,346.127 87.283 C 346.897 87.386,347.502 86.950,348.260 85.745 C 348.814 84.866,349.444 84.485,351.010 84.084 C 353.085 83.553,353.733 82.768,354.422 79.952 C 355.449 75.749,356.439 74.835,361.668 73.257 C 367.283 71.563,368.647 69.904,368.993 64.344 C 369.232 60.506,369.335 53.081,369.204 49.112 L 369.083 45.473 368.083 45.996 C 367.533 46.284,366.802 46.744,366.458 47.018 L 365.833 47.516 365.833 47.027 C 365.833 46.751,366.343 45.533,367.000 44.238 C 368.311 41.655,368.452 40.880,367.835 39.669 L 367.502 39.018 368.029 38.171 C 368.803 36.926,368.620 34.646,367.811 35.455 C 367.668 35.599,367.546 35.556,367.323 35.282 C 366.852 34.706,366.728 35.317,367.067 36.536 C 367.221 37.089,367.308 37.581,367.261 37.628 C 367.213 37.676,367.145 37.610,367.109 37.482 C 366.438 35.120,366.144 34.545,365.839 35.000 C 365.381 35.684,365.765 38.064,366.583 39.618 C 367.043 40.491,367.078 41.496,366.657 41.756 C 366.458 41.879,366.002 40.855,366.120 40.549 C 366.405 39.804,365.638 38.705,365.260 39.318 C 365.208 39.401,365.016 39.430,364.833 39.382 C 364.355 39.256,364.390 39.958,364.900 40.710 C 365.120 41.034,365.349 41.455,365.410 41.645 C 365.470 41.836,365.699 42.132,365.918 42.304 C 366.194 42.522,366.263 42.671,366.142 42.791 C 366.047 42.887,365.723 43.573,365.424 44.315 L 364.880 45.666 364.793 44.208 C 364.746 43.406,364.575 42.141,364.413 41.397 L 364.119 40.044 364.560 37.888 C 365.166 34.917,365.152 33.639,364.502 32.614 C 363.775 31.467,363.331 30.552,363.062 29.648 C 362.780 28.697,362.636 28.574,362.272 28.975 M178.583 30.048 C 177.316 30.656,177.055 31.069,177.767 31.340 C 178.005 31.430,178.340 31.672,178.511 31.877 C 178.778 32.197,178.823 32.208,178.828 31.958 C 178.832 31.746,178.971 31.667,179.342 31.667 C 179.621 31.667,180.078 31.549,180.357 31.405 C 180.818 31.166,180.890 31.166,181.153 31.405 C 181.686 31.886,182.053 31.752,181.759 31.184 C 181.528 30.737,181.535 30.667,181.850 30.267 L 182.191 29.833 181.783 29.833 C 181.558 29.833,181.284 29.941,181.175 30.073 C 180.951 30.344,180.500 30.242,180.500 29.922 C 180.500 29.603,179.353 29.678,178.583 30.048 M363.472 33.990 C 363.612 34.392,363.600 34.464,363.405 34.389 C 363.274 34.339,363.167 34.118,363.167 33.899 C 363.167 33.367,363.264 33.396,363.472 33.990 M314.388 36.489 C 312.986 37.126,313.030 37.785,314.586 39.466 C 315.706 40.675,316.479 41.107,317.261 40.957 C 317.648 40.883,317.659 40.906,317.540 41.565 C 317.143 43.770,317.726 50.000,318.329 50.000 C 318.398 50.000,318.507 49.344,318.572 48.542 C 318.737 46.504,319.128 44.550,319.549 43.667 L 319.905 42.917 320.019 46.833 C 320.171 52.045,320.503 53.141,322.529 55.108 C 323.917 56.456,325.116 56.655,324.742 55.474 C 324.685 55.296,324.712 55.061,324.801 54.950 C 325.081 54.603,325.217 53.345,325.002 53.086 C 324.894 52.955,324.856 52.691,324.918 52.496 C 324.991 52.267,324.928 52.030,324.740 51.822 C 324.337 51.377,324.327 50.386,324.716 49.527 C 325.046 48.799,325.047 48.360,324.726 46.277 L 324.627 45.637 325.140 45.903 C 325.911 46.302,327.807 46.698,328.655 46.637 L 329.406 46.583 329.533 47.321 C 329.718 48.399,330.341 48.662,331.039 47.958 C 331.243 47.752,331.562 47.506,331.747 47.412 C 331.932 47.319,332.107 47.075,332.137 46.871 C 332.215 46.327,332.684 46.390,335.010 47.260 C 337.380 48.147,338.905 48.427,338.509 47.902 C 337.449 46.497,335.920 45.500,334.827 45.500 C 334.600 45.500,334.499 45.385,334.496 45.125 C 334.489 44.373,333.803 43.264,332.541 41.962 C 328.851 38.155,323.678 36.482,320.580 38.092 L 319.636 38.583 318.686 37.652 C 317.244 36.240,315.799 35.849,314.388 36.489 M363.442 43.096 C 363.636 43.355,364.048 45.341,363.932 45.457 C 363.897 45.492,363.638 45.115,363.355 44.621 C 362.787 43.629,361.284 42.113,360.678 41.920 C 360.428 41.841,360.359 41.754,360.483 41.677 C 360.707 41.539,363.156 42.713,363.442 43.096 M175.917 43.940 C 174.530 45.034,172.735 45.061,172.166 43.998 C 171.993 43.675,172.043 43.667,174.119 43.672 C 176.090 43.677,176.225 43.697,175.917 43.940 M182.000 43.973 L 183.417 44.083 180.870 45.362 L 178.323 46.640 177.597 45.193 L 176.870 43.746 178.727 43.804 C 179.748 43.836,181.221 43.912,182.000 43.973 M187.443 44.440 L 189.803 44.716 188.325 45.858 C 187.512 46.486,186.779 47.000,186.696 47.000 C 186.328 47.000,184.500 44.718,184.500 44.258 C 184.500 44.118,184.889 44.142,187.443 44.440 M206.000 45.167 C 205.902 45.350,205.655 45.500,205.452 45.499 C 205.117 45.498,205.128 45.469,205.583 45.178 C 206.219 44.771,206.212 44.771,206.000 45.167 M198.654 45.995 C 198.977 46.002,196.319 47.990,195.979 47.996 C 195.715 48.000,192.599 45.771,192.205 45.297 C 192.048 45.107,192.656 45.153,195.212 45.524 C 196.975 45.781,198.523 45.992,198.654 45.995 M204.476 46.928 C 204.509 46.957,204.322 47.286,204.060 47.659 C 203.536 48.405,203.390 48.419,202.094 47.856 L 201.438 47.571 202.177 47.123 C 202.845 46.718,204.114 46.611,204.476 46.928 M219.000 49.244 C 227.596 50.692,226.945 50.500,225.544 51.180 C 223.635 52.108,220.680 51.559,219.063 49.978 C 218.397 49.326,218.356 49.311,217.730 49.485 C 216.271 49.890,214.467 49.583,213.125 48.700 C 212.360 48.197,212.347 48.126,213.042 48.242 C 213.340 48.291,216.021 48.742,219.000 49.244 M291.250 49.470 C 290.516 49.942,289.886 50.665,289.587 51.382 L 289.323 52.013 289.888 52.548 C 290.199 52.843,290.609 53.388,290.798 53.761 C 291.484 55.111,292.492 55.750,294.711 56.239 L 295.171 56.341 294.848 56.795 C 293.215 59.089,293.943 69.555,295.717 69.302 C 295.997 69.262,296.074 69.151,296.042 68.833 C 295.799 66.360,295.790 66.468,296.399 64.374 C 296.726 63.250,297.251 61.788,297.565 61.124 L 298.138 59.917 298.162 61.500 C 298.239 66.524,298.486 70.969,298.733 71.763 C 299.465 74.118,301.346 77.476,302.238 78.020 C 303.347 78.696,304.333 78.124,304.333 76.805 C 304.333 76.447,304.442 75.989,304.574 75.786 C 304.706 75.583,304.792 75.213,304.764 74.963 C 304.733 74.682,304.831 74.403,305.023 74.229 C 305.436 73.855,305.415 73.358,304.965 72.879 C 304.715 72.613,304.610 72.316,304.638 71.952 C 304.660 71.658,304.551 71.132,304.394 70.784 L 304.109 70.151 304.646 69.661 C 305.213 69.143,305.210 69.166,304.892 67.456 C 304.844 67.202,304.859 66.170,304.924 65.164 L 305.043 63.333 305.563 63.654 C 306.415 64.179,309.915 65.167,310.926 65.167 L 311.833 65.167 311.833 65.841 C 311.833 67.152,312.995 67.737,313.970 66.917 C 314.242 66.688,314.574 66.500,314.707 66.500 C 314.976 66.500,315.528 65.956,315.489 65.729 C 315.342 64.871,316.001 64.636,316.833 65.250 C 317.161 65.492,317.624 65.667,317.937 65.667 C 318.272 65.667,319.201 66.045,320.390 66.667 C 322.125 67.573,322.400 67.667,323.329 67.667 L 324.354 67.667 323.802 66.893 C 322.464 65.015,321.977 64.617,320.388 64.091 L 318.899 63.600 318.624 62.666 C 318.012 60.591,316.407 58.707,313.179 56.275 C 308.076 52.431,303.480 51.202,299.649 52.658 L 298.784 52.987 297.584 51.868 C 295.146 49.596,292.571 48.621,291.250 49.470 M184.085 50.292 C 184.021 50.452,183.666 51.446,183.296 52.500 C 182.464 54.877,182.719 54.637,179.746 55.834 L 177.250 56.839 180.665 53.420 C 184.200 49.880,184.280 49.807,184.085 50.292 M350.667 50.333 C 351.188 50.855,350.859 52.000,350.187 52.000 C 349.675 52.000,349.338 50.685,349.747 50.277 C 350.105 49.918,350.261 49.928,350.667 50.333 M231.779 51.585 C 238.919 53.052,238.971 53.073,236.005 53.315 C 232.102 53.632,228.005 52.626,227.249 51.165 C 226.927 50.543,226.522 50.505,231.779 51.585 M195.343 55.606 L 195.369 59.118 192.053 63.601 C 190.229 66.066,188.291 68.702,187.746 69.458 C 187.201 70.215,186.641 70.832,186.502 70.830 C 186.364 70.829,185.537 70.715,184.667 70.578 C 183.796 70.441,181.771 70.287,180.167 70.236 C 178.369 70.179,176.259 69.990,174.667 69.743 C 170.400 69.082,166.807 68.850,156.417 68.566 C 151.495 68.431,151.491 68.429,154.298 67.434 C 161.143 65.008,173.754 60.119,179.544 57.646 C 180.806 57.108,181.866 56.667,181.900 56.667 C 181.934 56.667,181.745 57.473,181.479 58.458 C 181.067 59.985,180.000 64.793,180.000 65.122 C 180.000 65.283,180.874 64.422,182.382 62.775 C 183.549 61.501,183.728 61.227,183.696 60.756 C 183.663 60.264,183.698 60.219,184.059 60.288 C 184.670 60.405,185.459 59.324,185.191 58.736 C 184.894 58.084,184.961 57.971,185.484 58.242 L 185.969 58.492 187.127 56.705 C 187.764 55.721,188.483 54.572,188.726 54.152 C 189.112 53.482,189.909 52.854,190.114 53.058 C 190.233 53.178,189.712 55.838,189.280 57.312 L 188.872 58.706 190.863 56.728 C 191.958 55.640,193.385 54.129,194.033 53.370 C 194.681 52.611,195.235 52.013,195.264 52.042 C 195.293 52.071,195.329 53.675,195.343 55.606 M212.446 54.375 C 211.096 56.860,209.228 61.635,208.102 65.476 C 207.793 66.531,207.483 66.715,210.747 63.906 C 212.745 62.186,214.999 60.323,218.338 57.629 L 219.092 57.021 219.717 57.552 L 220.342 58.083 219.922 59.917 C 219.315 62.573,219.265 62.523,221.103 61.106 L 222.706 59.870 224.114 60.893 C 225.227 61.702,225.506 61.987,225.444 62.250 C 225.401 62.433,224.993 63.633,224.537 64.917 C 223.297 68.410,223.300 68.178,224.508 67.235 C 225.084 66.785,226.184 65.825,226.951 65.101 L 228.346 63.785 230.215 64.720 C 237.918 68.573,248.930 69.791,260.000 68.014 C 261.156 67.828,261.148 67.811,260.401 68.811 L 259.775 69.649 257.013 69.565 C 254.666 69.493,254.062 69.527,253.000 69.794 L 251.750 70.108 253.167 70.231 C 255.158 70.404,258.722 70.833,258.797 70.908 C 258.832 70.943,258.324 71.770,257.669 72.747 C 257.013 73.724,255.968 75.361,255.345 76.386 L 254.212 78.250 249.370 78.362 C 244.051 78.486,236.732 78.875,232.583 79.255 C 231.117 79.389,229.729 79.504,229.500 79.511 C 228.730 79.534,229.660 79.809,230.552 79.822 C 231.072 79.829,231.315 79.895,231.244 80.010 C 231.183 80.108,230.992 80.876,230.819 81.719 C 230.646 82.561,230.463 83.423,230.413 83.634 C 230.335 83.967,230.364 83.995,230.634 83.851 C 230.897 83.710,230.989 83.773,231.212 84.241 C 231.613 85.082,231.440 85.496,230.734 85.382 L 230.167 85.290 230.170 87.687 C 230.171 89.005,230.278 90.721,230.406 91.500 C 230.663 93.052,231.175 95.388,231.240 95.303 C 231.262 95.274,231.941 93.825,232.747 92.083 C 233.553 90.342,234.398 88.517,234.624 88.029 L 235.036 87.142 235.403 87.696 C 235.984 88.572,236.468 89.849,236.652 90.991 C 236.866 92.316,236.906 92.349,237.213 91.450 C 237.350 91.046,237.971 89.345,238.592 87.669 L 239.720 84.622 240.054 85.270 C 240.519 86.170,241.452 88.983,241.590 89.901 C 241.745 90.936,241.760 90.917,243.598 87.371 C 245.359 83.975,245.300 84.078,245.408 84.186 C 245.450 84.227,245.937 85.839,246.493 87.767 L 247.502 91.272 246.569 93.344 C 246.056 94.484,245.184 96.504,244.632 97.833 C 244.080 99.162,243.608 100.272,243.585 100.299 C 243.561 100.326,242.651 100.086,241.562 99.766 C 226.812 95.431,208.584 92.664,185.884 91.314 L 182.519 91.113 182.745 90.682 C 182.869 90.444,183.804 88.825,184.822 87.083 L 186.672 83.917 188.961 82.465 C 191.706 80.724,191.378 80.310,191.754 86.000 C 191.908 88.337,192.049 90.266,192.067 90.286 C 192.085 90.305,193.880 88.590,196.057 86.473 C 198.233 84.357,200.037 82.653,200.066 82.688 C 200.094 82.722,201.038 84.756,202.163 87.207 L 204.208 91.664 205.827 89.418 C 206.717 88.183,207.814 86.650,208.264 86.012 L 209.083 84.853 209.643 85.718 C 210.134 86.477,211.495 89.198,211.937 90.306 C 212.104 90.724,214.582 88.369,216.817 85.667 C 217.959 84.287,217.818 84.282,218.768 85.742 C 219.216 86.432,219.624 86.997,219.675 86.998 C 219.812 87.001,224.001 82.701,224.761 81.776 L 225.424 80.969 226.409 81.151 C 226.951 81.251,227.795 81.333,228.285 81.333 L 229.175 81.333 228.912 80.824 C 228.655 80.327,227.170 79.259,225.705 78.517 C 221.819 76.549,217.899 75.703,199.750 72.915 C 197.000 72.493,194.552 72.095,194.309 72.032 C 193.870 71.917,193.879 71.898,197.123 66.583 C 198.914 63.650,200.881 60.425,201.495 59.417 C 202.696 57.444,202.820 57.325,205.941 55.174 L 207.656 53.991 207.139 55.204 C 206.073 57.707,204.139 63.833,204.414 63.833 C 204.445 63.833,206.405 61.396,208.769 58.417 C 211.133 55.438,213.096 53.000,213.131 53.000 C 213.165 53.000,212.857 53.619,212.446 54.375 M357.638 53.598 C 358.136 53.947,357.845 54.333,357.083 54.333 C 356.410 54.333,356.028 53.951,356.333 53.583 C 356.603 53.259,357.162 53.265,357.638 53.598 M221.631 55.375 C 221.422 55.673,221.237 55.943,221.220 55.975 C 221.203 56.007,221.103 55.980,220.998 55.915 C 220.872 55.838,220.998 55.632,221.361 55.322 C 222.070 54.716,222.089 54.720,221.631 55.375 M227.629 57.625 C 226.979 58.885,226.436 59.933,226.424 59.953 C 226.411 59.972,225.968 59.681,225.438 59.306 C 224.740 58.811,224.527 58.573,224.659 58.441 C 224.998 58.102,228.582 55.352,228.697 55.343 C 228.760 55.337,228.279 56.365,227.629 57.625 M37.460 56.392 C 36.182 56.872,35.335 57.718,34.823 59.025 C 34.561 59.698,34.477 59.763,33.521 60.045 C 32.371 60.383,32.233 60.601,33.069 60.758 C 33.746 60.885,35.900 62.136,37.127 63.114 C 37.609 63.498,38.152 63.859,38.335 63.917 C 38.517 63.975,38.667 64.092,38.667 64.178 C 38.667 64.263,38.742 64.333,38.833 64.333 C 39.119 64.333,39.018 63.971,38.567 63.380 L 38.133 62.812 39.038 63.322 C 40.924 64.387,42.276 63.715,41.583 62.058 C 41.252 61.265,41.265 61.236,41.717 61.761 C 42.208 62.332,42.535 62.068,42.913 60.795 C 43.403 59.144,43.283 59.001,41.852 59.529 C 41.322 59.725,41.277 59.646,41.487 58.891 C 41.786 57.813,41.719 56.706,41.342 56.505 C 40.781 56.205,38.162 56.129,37.460 56.392 M350.881 58.595 C 350.839 59.149,350.543 59.368,350.134 59.149 C 349.790 58.965,349.727 58.173,350.032 57.868 C 350.356 57.544,350.925 58.032,350.881 58.595 M232.137 60.417 C 232.047 60.967,232.021 61.848,232.079 62.375 C 232.200 63.488,232.229 63.478,230.879 62.783 L 229.842 62.249 230.660 61.290 C 231.111 60.763,231.642 60.102,231.841 59.823 C 232.308 59.167,232.332 59.216,232.137 60.417 M46.728 59.772 C 46.163 59.898,45.037 60.958,44.814 61.575 C 44.646 62.038,44.479 62.176,43.888 62.341 C 43.003 62.589,42.983 62.724,43.792 62.972 C 44.352 63.144,44.952 63.503,47.042 64.916 C 47.695 65.357,47.885 65.187,47.375 64.617 C 47.105 64.316,47.127 64.318,47.667 64.645 C 48.751 65.302,49.611 64.996,49.465 64.006 C 49.409 63.620,49.439 63.547,49.602 63.682 C 49.889 63.920,50.336 63.216,50.454 62.339 L 50.544 61.666 49.871 61.904 L 49.197 62.141 49.349 61.613 C 49.538 60.953,49.545 60.047,49.361 59.934 C 49.154 59.806,47.136 59.682,46.728 59.772 M54.471 61.463 C 53.940 61.813,53.422 62.448,53.270 62.933 C 53.200 63.157,52.916 63.356,52.481 63.486 C 52.107 63.598,51.827 63.716,51.859 63.747 C 51.891 63.779,52.418 64.070,53.031 64.396 C 53.645 64.721,54.494 65.252,54.919 65.577 C 55.907 66.331,56.389 66.372,55.732 65.647 C 55.492 65.381,55.529 65.384,56.101 65.676 C 57.108 66.189,57.667 66.025,57.667 65.217 C 57.667 65.006,57.764 64.833,57.883 64.833 C 58.122 64.833,58.500 63.933,58.500 63.363 C 58.500 62.960,58.382 62.926,57.775 63.157 C 57.373 63.310,57.366 63.300,57.514 62.783 C 57.744 61.983,57.700 61.382,57.403 61.268 C 56.812 61.041,54.919 61.167,54.471 61.463 M23.583 61.487 C 22.557 61.770,22.125 62.020,21.266 62.833 C 20.489 63.568,20.186 64.059,19.666 65.428 C 19.571 65.678,19.192 65.872,18.268 66.140 C 16.719 66.590,16.710 66.651,18.125 67.140 C 18.744 67.353,19.625 67.775,20.083 68.076 C 20.542 68.378,21.152 68.765,21.440 68.937 C 21.727 69.109,22.337 69.550,22.794 69.917 C 23.496 70.480,24.366 71.059,24.875 71.302 C 25.214 71.463,24.931 70.813,24.385 70.175 L 23.770 69.457 25.024 70.145 C 27.468 71.486,28.998 70.785,28.250 68.667 C 27.925 67.744,27.933 67.704,28.345 68.228 C 28.848 68.867,29.091 68.775,29.568 67.768 C 29.943 66.974,30.346 65.000,30.132 65.000 C 30.088 65.000,29.616 65.150,29.083 65.333 C 27.898 65.741,27.767 65.746,27.910 65.375 C 28.691 63.356,28.525 61.854,27.500 61.642 C 26.507 61.437,24.109 61.342,23.583 61.487 M59.917 63.824 C 59.416 64.028,58.649 64.848,58.394 65.452 C 58.220 65.863,58.013 66.028,57.501 66.167 C 56.692 66.384,56.654 66.581,57.375 66.822 C 57.862 66.984,58.542 67.398,60.557 68.759 C 61.322 69.275,61.550 69.171,60.987 68.563 L 60.583 68.128 61.167 68.480 C 62.241 69.128,63.301 68.832,63.129 67.933 C 63.076 67.654,63.117 67.555,63.265 67.612 C 63.546 67.720,64.000 66.822,64.000 66.156 C 64.000 65.641,63.987 65.632,63.394 65.743 C 62.874 65.841,62.804 65.818,62.895 65.581 C 63.217 64.741,63.204 64.032,62.863 63.849 C 62.471 63.639,60.412 63.622,59.917 63.824 M46.197 66.614 C 45.610 66.903,44.945 67.675,44.761 68.281 C 44.692 68.511,44.421 68.719,44.034 68.843 C 43.234 69.099,43.026 69.297,43.430 69.418 C 44.006 69.590,45.741 70.534,46.167 70.907 C 47.106 71.731,48.067 72.100,47.503 71.421 C 47.239 71.102,47.308 71.103,48.091 71.431 C 49.077 71.843,49.570 71.549,49.456 70.619 C 49.409 70.233,49.406 70.010,49.449 70.125 C 49.693 70.772,50.500 69.701,50.500 68.730 C 50.500 68.290,50.391 68.256,49.753 68.499 L 49.317 68.665 49.428 67.682 C 49.528 66.800,49.504 66.681,49.197 66.516 C 48.678 66.239,46.836 66.298,46.197 66.614 M38.917 69.095 C 38.167 69.485,37.698 69.984,37.490 70.612 C 37.334 71.085,37.186 71.207,36.569 71.372 C 35.674 71.612,35.647 71.746,36.444 72.009 C 36.780 72.120,37.762 72.694,38.627 73.284 C 40.091 74.283,40.669 74.522,40.170 73.921 C 39.906 73.602,39.974 73.603,40.758 73.931 C 41.599 74.282,42.167 74.051,42.167 73.356 C 42.167 73.022,42.264 72.847,42.482 72.790 C 42.706 72.731,42.851 72.453,42.985 71.829 C 43.209 70.785,43.196 70.764,42.449 70.970 L 41.867 71.131 42.017 70.608 C 42.260 69.762,42.199 69.196,41.844 69.006 C 41.349 68.741,39.489 68.798,38.917 69.095 M62.400 69.475 C 61.717 69.795,61.142 70.435,60.933 71.108 C 60.858 71.347,60.634 71.500,60.250 71.572 C 59.358 71.740,59.423 71.916,60.586 72.489 C 61.179 72.781,61.872 73.187,62.124 73.392 C 63.248 74.303,64.116 74.607,63.431 73.849 C 63.156 73.546,63.177 73.547,63.831 73.870 C 64.748 74.324,65.409 74.088,65.300 73.346 C 65.249 73.000,65.290 72.891,65.449 72.952 C 65.704 73.050,66.167 72.066,66.167 71.426 C 66.167 71.046,66.128 71.023,65.739 71.171 C 65.074 71.424,65.047 71.387,65.229 70.500 C 65.440 69.469,65.361 69.384,64.083 69.256 C 63.295 69.177,62.939 69.223,62.400 69.475 M54.750 70.558 C 54.158 70.834,53.632 71.392,53.312 72.083 C 53.144 72.446,52.909 72.626,52.457 72.738 C 51.691 72.927,51.669 73.085,52.375 73.323 C 52.910 73.503,53.550 73.891,55.087 74.966 C 55.889 75.527,56.233 75.569,55.815 75.056 C 55.607 74.800,55.618 74.786,55.917 74.917 C 56.712 75.264,57.579 75.117,57.636 74.625 C 57.665 74.373,57.763 74.167,57.853 74.167 C 58.071 74.167,58.500 73.120,58.500 72.589 C 58.500 72.107,58.505 72.110,57.915 72.334 L 57.476 72.501 57.588 71.604 C 57.666 70.978,57.639 70.669,57.499 70.583 C 57.101 70.337,55.262 70.320,54.750 70.558 M139.250 71.167 C 138.795 71.362,138.667 71.362,138.667 71.167 C 138.667 71.075,138.873 71.005,139.125 71.012 C 139.531 71.022,139.545 71.040,139.250 71.167 M146.006 71.322 C 145.319 72.607,142.521 73.477,140.856 72.924 C 139.687 72.536,139.721 72.501,142.042 71.718 C 144.429 70.912,146.327 70.722,146.006 71.322 M155.833 71.333 C 154.418 72.440,151.750 73.292,150.355 73.083 C 148.824 72.853,146.833 71.752,146.833 71.134 C 146.833 71.060,148.952 71.002,151.542 71.004 C 156.245 71.007,156.250 71.008,155.833 71.333 M161.000 71.146 L 161.750 71.268 160.858 71.469 C 159.965 71.671,159.095 71.560,158.500 71.169 C 158.200 70.972,159.835 70.957,161.000 71.146 M169.135 71.904 C 173.602 72.549,173.534 72.522,172.234 73.099 C 169.876 74.144,166.840 73.689,164.984 72.010 L 164.250 71.347 164.750 71.345 C 165.025 71.344,166.998 71.595,169.135 71.904 M265.009 73.834 C 266.403 75.579,268.680 78.709,268.608 78.781 C 268.579 78.810,267.475 78.759,266.153 78.669 C 264.831 78.579,262.756 78.504,261.542 78.502 C 260.327 78.501,259.333 78.460,259.333 78.412 C 259.333 78.318,262.930 72.562,263.211 72.206 C 263.436 71.922,263.607 72.077,265.009 73.834 M179.750 73.425 C 184.707 74.134,184.812 74.174,183.147 74.697 C 181.156 75.322,177.946 75.267,176.593 74.583 C 174.958 73.758,173.856 72.498,174.958 72.715 C 175.210 72.765,177.367 73.084,179.750 73.425 M137.878 79.083 C 137.825 82.337,137.814 85.000,137.855 85.000 C 137.895 85.000,139.576 82.976,141.589 80.502 L 145.250 76.004 145.293 76.710 C 145.379 78.143,145.693 80.290,146.026 81.723 L 146.368 83.196 147.885 80.354 C 148.719 78.791,149.413 77.528,149.428 77.548 C 149.443 77.567,149.383 78.183,149.297 78.917 C 149.146 80.187,149.247 84.352,149.476 86.356 L 149.583 87.295 152.646 82.307 C 154.331 79.564,155.738 77.349,155.774 77.385 C 155.810 77.421,155.728 77.934,155.591 78.525 C 155.227 80.092,155.029 81.656,154.906 83.917 L 154.797 85.917 158.023 82.709 C 159.798 80.946,161.411 79.390,161.608 79.254 L 161.965 79.005 161.656 80.207 C 161.126 82.269,159.894 89.616,160.052 89.775 C 160.069 89.792,162.292 87.152,164.992 83.909 C 167.692 80.666,169.929 78.040,169.962 78.073 C 169.996 78.107,169.898 79.782,169.745 81.796 C 169.593 83.811,169.497 85.599,169.533 85.771 C 169.608 86.124,174.165 81.774,175.712 79.873 C 176.735 78.616,176.627 78.514,177.471 81.551 L 178.157 84.019 177.023 86.051 C 176.400 87.169,175.559 88.703,175.153 89.461 L 174.417 90.839 171.583 90.751 C 170.025 90.702,167.700 90.627,166.417 90.584 C 165.133 90.541,158.871 90.419,152.500 90.314 C 130.914 89.957,119.011 90.307,109.344 91.582 C 108.296 91.720,107.414 91.833,107.386 91.833 C 107.208 91.833,107.389 92.287,107.696 92.614 C 108.017 92.957,108.212 93.000,109.426 93.000 L 110.793 93.000 109.955 96.375 C 109.494 98.231,109.091 99.780,109.061 99.816 C 108.765 100.174,102.582 94.783,98.083 90.243 C 95.700 87.839,93.475 85.657,93.139 85.394 L 92.528 84.917 95.222 84.910 C 101.471 84.896,105.458 83.843,130.417 75.617 C 134.450 74.288,137.801 73.193,137.863 73.184 C 137.925 73.174,137.932 75.829,137.878 79.083 M193.657 75.505 C 193.816 75.589,193.447 75.775,192.574 76.051 C 191.024 76.540,191.052 76.547,191.507 75.776 C 191.867 75.165,192.793 75.049,193.657 75.505 M201.542 76.612 C 206.206 77.277,206.355 77.328,204.757 77.730 C 202.121 78.392,199.246 77.849,197.186 76.299 C 196.667 75.908,196.552 75.900,201.542 76.612 M210.931 77.993 C 211.841 78.479,211.884 78.485,213.729 78.386 C 215.522 78.290,217.700 78.569,218.480 78.995 C 218.875 79.211,216.692 79.851,215.215 79.952 C 212.925 80.109,209.817 79.141,208.661 77.911 L 208.275 77.500 209.141 77.500 C 209.781 77.500,210.247 77.629,210.931 77.993 M196.667 80.084 C 196.826 80.275,196.765 80.289,196.304 80.167 C 195.999 80.087,195.567 79.998,195.344 79.969 C 194.960 79.920,194.974 79.893,195.594 79.481 L 196.250 79.045 196.363 79.450 C 196.426 79.673,196.562 79.958,196.667 80.084 M235.125 80.625 C 233.400 81.934,231.951 82.014,231.682 80.816 C 231.478 79.908,231.489 79.903,233.667 80.065 L 235.667 80.214 235.125 80.625 M223.250 80.418 C 224.445 80.785,224.497 80.817,223.750 80.725 C 223.292 80.669,222.654 80.486,222.333 80.319 C 221.569 79.920,221.664 79.930,223.250 80.418 M241.167 80.651 L 242.250 80.762 241.311 81.373 C 239.525 82.538,237.753 82.619,236.718 81.585 C 235.425 80.291,236.150 80.139,241.167 80.651 M247.333 80.978 L 248.417 81.083 247.689 81.577 C 246.335 82.495,244.287 82.313,243.266 81.184 L 242.948 80.833 244.599 80.853 C 245.507 80.864,246.737 80.920,247.333 80.978 M252.417 81.500 C 252.110 82.093,251.964 82.107,250.759 81.656 C 249.378 81.139,249.463 81.000,251.161 81.000 L 252.675 81.000 252.417 81.500 M267.438 81.216 C 267.632 81.410,265.335 82.357,264.450 82.449 C 263.246 82.573,261.640 82.258,260.596 81.694 L 259.776 81.250 262.846 81.167 C 266.223 81.075,267.309 81.087,267.438 81.216 M270.959 81.687 C 271.876 82.696,271.934 82.839,271.359 82.674 C 270.459 82.416,269.000 81.478,269.000 81.158 C 269.000 80.655,270.352 81.020,270.959 81.687 M276.402 81.395 C 276.353 81.521,275.935 81.831,275.472 82.083 L 274.629 82.541 273.942 81.854 L 273.255 81.167 274.872 81.167 C 276.175 81.167,276.472 81.211,276.402 81.395 M283.395 81.337 C 285.424 81.431,287.339 81.549,287.652 81.600 L 288.220 81.692 287.735 82.015 C 285.181 83.716,279.444 83.562,277.378 81.736 L 276.750 81.181 278.229 81.174 C 279.042 81.170,281.367 81.243,283.395 81.337 M345.531 81.781 C 344.922 82.024,345.057 83.426,345.732 83.872 C 346.153 84.151,346.779 84.001,346.973 83.575 C 347.488 82.446,346.608 81.350,345.531 81.781 M262.331 89.081 C 262.043 92.261,261.832 94.884,261.862 94.909 C 261.892 94.933,263.672 92.864,265.818 90.309 C 267.964 87.755,269.744 85.688,269.772 85.717 C 269.929 85.873,270.341 88.367,270.437 89.742 C 270.499 90.617,270.595 91.333,270.652 91.333 C 270.708 91.333,271.873 90.213,273.240 88.843 L 275.726 86.353 276.238 86.706 C 276.520 86.900,276.778 87.080,276.813 87.106 C 276.848 87.132,277.044 87.985,277.250 89.000 C 277.709 91.268,277.629 91.203,278.500 89.999 C 279.333 88.850,279.239 88.892,279.923 89.361 L 280.451 89.723 280.669 92.111 C 280.928 94.943,280.915 94.933,281.754 92.917 C 282.531 91.050,282.337 91.111,283.910 92.240 C 284.605 92.738,286.034 93.726,287.085 94.436 C 288.137 95.145,288.979 95.739,288.957 95.755 C 288.935 95.771,287.454 95.720,285.667 95.642 C 282.820 95.516,277.923 95.688,277.691 95.921 C 277.545 96.066,283.165 96.806,289.137 97.429 C 291.535 97.679,291.966 97.771,292.768 98.205 L 293.678 98.698 293.289 99.391 C 293.075 99.772,292.236 101.255,291.425 102.686 L 289.950 105.289 287.934 105.402 C 286.824 105.464,284.604 105.671,283.000 105.863 C 279.644 106.263,280.142 106.264,274.833 105.837 C 267.967 105.284,257.878 104.755,250.500 104.561 C 248.254 104.502,246.394 104.435,246.366 104.413 C 246.235 104.305,248.492 98.904,250.366 94.845 C 251.500 92.388,251.884 91.729,252.754 90.749 C 253.324 90.106,254.607 88.486,255.604 87.148 C 256.601 85.810,257.581 84.498,257.782 84.232 L 258.148 83.750 258.178 85.000 C 258.195 85.688,258.255 86.745,258.312 87.351 L 258.417 88.452 260.572 85.811 C 261.757 84.359,262.756 83.200,262.791 83.235 C 262.826 83.270,262.619 85.901,262.331 89.081 M333.423 84.590 C 332.417 84.866,328.593 85.418,325.385 85.749 C 320.091 86.297,318.587 87.338,317.770 91.016 C 317.255 93.338,317.262 93.788,317.820 94.077 C 318.471 94.413,318.442 94.428,318.558 93.708 C 318.843 91.935,319.982 91.944,320.017 93.720 C 320.044 95.163,320.217 95.547,320.465 94.719 C 320.685 93.985,321.048 93.574,321.326 93.745 C 321.643 93.941,321.507 95.193,321.061 96.186 C 320.696 96.999,320.659 97.206,320.838 97.422 C 321.214 97.875,321.338 97.457,321.657 94.652 C 321.998 91.660,322.138 91.143,322.792 90.458 C 323.739 89.466,324.020 89.927,323.580 91.750 C 323.433 92.358,323.338 93.608,323.336 94.937 C 323.332 98.073,323.010 98.760,319.970 102.112 C 318.265 103.992,317.588 105.089,317.147 106.685 C 316.960 107.362,316.363 108.844,315.820 109.978 C 315.277 111.112,314.833 112.075,314.833 112.118 C 314.833 112.162,315.213 111.856,315.677 111.439 C 316.140 111.023,317.040 110.359,317.676 109.966 C 318.637 109.371,318.814 109.194,318.722 108.917 C 318.535 108.346,318.499 104.981,318.677 104.648 C 318.894 104.242,319.117 104.248,319.249 104.664 C 319.347 104.972,319.380 104.977,319.753 104.733 C 320.617 104.167,320.744 104.958,320.000 106.276 C 319.197 107.698,319.339 109.079,320.206 108.276 C 321.070 107.475,321.230 107.043,321.344 105.185 C 321.477 103.028,322.153 101.069,323.071 100.179 L 323.644 99.624 323.755 100.216 C 323.881 100.890,323.786 101.475,323.305 102.969 C 323.118 103.548,322.998 104.053,323.037 104.092 C 323.273 104.328,323.710 103.600,323.912 102.633 C 324.284 100.856,325.000 100.084,325.000 101.460 C 325.000 101.932,325.044 102.022,325.200 101.867 C 325.779 101.287,326.177 102.088,325.781 103.036 C 325.409 103.924,323.671 105.333,322.946 105.333 C 322.622 105.333,322.500 105.695,322.500 106.659 C 322.500 108.499,321.592 109.699,319.081 111.179 C 317.478 112.124,317.518 112.124,320.200 111.178 C 324.447 109.681,325.387 109.050,326.346 107.051 C 327.199 105.273,328.429 99.948,328.822 96.333 C 329.539 89.727,331.210 87.667,335.850 87.667 C 336.288 87.667,336.687 87.601,336.737 87.521 C 336.859 87.324,334.701 84.330,334.450 84.348 C 334.340 84.356,333.878 84.465,333.423 84.590 M347.250 91.231 C 341.987 92.650,340.646 93.203,339.185 94.559 C 338.644 95.061,338.624 95.067,338.718 94.683 C 339.003 93.511,337.607 92.482,336.240 92.855 C 333.446 93.619,331.938 101.071,332.697 110.358 L 332.897 112.799 333.657 112.893 C 334.075 112.945,334.879 113.037,335.445 113.097 L 336.473 113.207 336.799 112.562 C 336.979 112.207,337.407 111.092,337.752 110.083 C 339.095 106.150,341.219 104.291,343.174 105.337 C 343.445 105.482,343.507 105.439,343.597 105.045 C 344.512 101.040,344.648 100.754,345.723 100.576 C 348.172 100.168,349.894 98.736,350.222 96.833 C 350.278 96.513,350.404 95.275,350.503 94.083 C 350.641 92.428,350.778 91.710,351.083 91.042 C 351.335 90.488,351.408 90.173,351.282 90.183 C 351.173 90.191,349.358 90.663,347.250 91.231 M137.520 92.348 C 138.822 92.620,138.856 92.765,137.738 93.278 C 136.072 94.042,134.015 93.808,132.500 92.683 L 131.917 92.250 132.583 92.137 C 133.467 91.988,136.394 92.113,137.520 92.348 M130.434 92.815 C 129.279 94.090,125.313 94.566,123.333 93.667 L 122.417 93.250 125.667 93.144 C 127.873 93.072,129.157 92.956,129.667 92.785 C 130.679 92.445,130.765 92.448,130.434 92.815 M119.122 93.267 C 118.599 93.789,113.908 94.591,112.854 94.338 C 111.960 94.124,110.970 93.418,111.275 93.212 C 111.486 93.070,119.264 93.125,119.122 93.267 M151.333 93.498 C 152.127 93.712,148.631 94.053,146.958 93.925 C 145.454 93.809,143.192 93.414,143.013 93.235 C 142.887 93.110,150.824 93.360,151.333 93.498 M164.000 94.019 C 169.355 94.240,169.645 94.296,168.233 94.829 C 165.118 96.007,161.358 95.849,158.208 94.408 C 156.710 93.722,156.695 93.597,158.125 93.723 C 158.744 93.778,161.387 93.911,164.000 94.019 M172.500 94.496 C 172.500 94.752,171.611 96.500,171.481 96.500 C 171.283 96.500,170.333 94.960,170.333 94.638 C 170.333 94.374,170.478 94.333,171.417 94.333 C 172.012 94.333,172.500 94.407,172.500 94.496 M182.561 94.979 C 183.118 95.198,179.612 97.833,178.763 97.833 C 178.634 97.833,179.020 97.061,179.782 95.792 L 180.357 94.833 181.304 94.845 C 181.824 94.851,182.390 94.912,182.561 94.979 M192.250 95.507 C 195.550 95.692,198.385 95.861,198.549 95.881 C 198.756 95.905,198.587 96.088,198.004 96.467 C 194.382 98.828,188.707 98.431,185.417 95.586 L 184.750 95.010 185.500 95.089 C 185.912 95.133,188.950 95.321,192.250 95.507 M317.099 96.145 C 316.789 98.228,316.787 98.333,317.064 98.333 C 317.344 98.333,317.388 98.521,317.337 99.500 C 317.312 99.972,317.347 100.044,317.520 99.875 C 318.453 98.965,318.568 100.198,317.667 101.457 C 317.011 102.372,316.901 102.716,317.100 103.232 C 317.173 103.423,317.386 103.239,317.904 102.538 C 318.291 102.013,318.910 101.236,319.278 100.811 C 319.647 100.386,320.116 99.768,320.321 99.437 L 320.693 98.834 320.203 98.421 C 319.837 98.113,318.933 96.646,318.737 96.042 C 318.729 96.020,318.378 95.897,317.956 95.770 L 317.189 95.539 317.099 96.145 M206.295 96.476 C 210.305 96.786,210.407 96.839,208.667 97.705 C 205.756 99.153,202.161 98.635,200.560 96.537 L 200.142 95.990 201.446 96.096 C 202.163 96.154,204.345 96.325,206.295 96.476 M118.830 99.750 C 118.832 99.888,112.340 100.728,112.217 100.606 C 112.196 100.585,112.850 100.095,113.669 99.516 C 114.489 98.938,115.742 97.959,116.455 97.341 L 117.750 96.217 118.288 97.900 C 118.584 98.826,118.828 99.658,118.830 99.750 M214.153 97.183 L 216.390 97.380 215.773 97.697 C 214.669 98.263,213.235 98.273,212.174 97.722 C 211.204 97.218,210.898 96.841,211.535 96.932 C 211.745 96.962,212.923 97.075,214.153 97.183 M307.617 98.112 L 307.150 98.881 307.617 99.398 C 307.873 99.683,308.948 100.816,310.005 101.916 C 312.901 104.931,313.658 106.348,313.676 108.788 C 313.682 109.500,313.745 110.383,313.818 110.750 L 313.950 111.417 314.225 110.792 C 315.393 108.136,315.377 107.799,313.987 105.765 C 313.300 104.761,312.712 104.090,312.345 103.892 C 310.748 103.031,308.667 99.866,308.667 98.301 C 308.667 97.062,308.295 96.995,307.617 98.112 M221.716 97.921 C 226.528 98.439,237.816 99.927,237.951 100.062 C 238.038 100.149,236.607 101.110,235.667 101.597 C 233.161 102.892,229.802 101.427,230.838 99.491 C 230.970 99.245,230.788 99.305,230.046 99.755 C 226.364 101.989,220.680 101.186,218.949 98.188 C 218.581 97.550,218.415 97.566,221.716 97.921 M309.667 98.444 C 309.667 98.872,309.694 99.191,309.727 99.153 C 309.873 98.985,309.953 97.667,309.817 97.667 C 309.735 97.667,309.667 98.017,309.667 98.444 M127.169 98.257 C 127.641 99.499,127.641 99.500,126.495 99.500 L 125.453 99.500 126.185 98.684 C 127.065 97.702,126.973 97.741,127.169 98.257 M311.088 98.466 C 310.801 99.212,311.428 101.456,312.071 101.990 C 312.307 102.186,312.333 102.021,312.333 100.354 C 312.333 99.334,312.314 98.500,312.291 98.500 C 312.267 98.500,312.010 98.432,311.719 98.348 C 311.293 98.226,311.171 98.249,311.088 98.466 M134.937 99.618 C 134.890 99.665,134.574 99.638,134.234 99.558 L 133.616 99.412 134.266 98.979 L 134.917 98.545 134.970 99.039 C 134.999 99.310,134.985 99.571,134.937 99.618 M149.366 101.385 C 151.078 103.896,151.541 105.581,151.100 107.701 C 150.802 109.136,150.755 110.167,150.987 110.167 C 151.550 110.167,153.556 107.268,155.341 103.875 C 156.213 102.216,156.139 102.225,156.728 103.710 C 157.357 105.299,158.925 108.309,160.296 110.561 L 161.399 112.372 161.717 111.979 C 162.336 111.214,162.803 110.053,163.499 107.545 C 164.153 105.188,164.962 103.364,165.417 103.220 C 165.508 103.191,165.908 104.021,166.305 105.066 L 167.027 106.965 165.612 110.524 C 164.833 112.482,163.358 116.296,162.334 119.000 C 161.309 121.704,160.409 123.982,160.333 124.061 C 160.255 124.142,158.263 123.789,155.805 123.258 C 153.392 122.737,147.404 121.451,142.500 120.401 C 132.025 118.157,133.295 118.592,130.964 116.454 C 128.993 114.647,126.909 112.937,124.038 110.773 L 122.326 109.482 123.157 108.283 C 123.614 107.623,124.422 106.552,124.953 105.902 L 125.918 104.721 126.367 106.652 C 126.614 107.714,126.946 109.401,127.103 110.400 L 127.390 112.217 130.367 106.267 C 132.003 102.994,133.306 100.258,133.262 100.186 C 133.218 100.114,133.272 100.054,133.382 100.053 C 133.493 100.051,133.902 99.994,134.292 99.927 L 135.000 99.804 135.000 105.506 C 135.000 112.029,134.847 111.650,136.580 109.422 C 138.383 107.103,140.030 103.816,141.340 99.917 L 141.732 98.750 142.276 101.000 C 142.575 102.237,142.869 103.649,142.930 104.136 L 143.041 105.023 143.534 104.553 C 144.196 103.921,145.260 102.278,146.339 100.219 L 147.229 98.522 147.967 99.469 C 148.373 99.990,149.003 100.852,149.366 101.385 M314.688 99.542 L 314.344 100.083 315.005 100.135 C 315.732 100.191,315.815 100.319,315.375 100.703 C 314.721 101.273,314.322 101.382,314.082 101.055 C 313.867 100.763,313.852 100.763,313.742 101.048 C 313.442 101.821,314.068 103.506,315.145 104.823 C 315.478 105.230,315.836 105.678,315.941 105.817 C 316.362 106.379,316.524 104.895,316.160 103.814 C 315.776 102.674,315.735 101.047,316.062 99.960 L 316.291 99.200 315.791 99.100 C 315.060 98.954,315.063 98.953,314.688 99.542 M243.314 100.932 C 243.482 101.082,242.789 101.817,242.221 102.091 C 240.197 103.067,237.370 102.020,237.990 100.524 L 238.181 100.064 240.715 100.469 C 242.109 100.692,243.279 100.901,243.314 100.932 M132.417 100.533 C 131.593 100.968,130.546 101.407,130.690 101.258 C 131.065 100.870,132.318 100.192,132.667 100.187 C 133.029 100.182,132.996 100.227,132.417 100.533 M127.739 100.978 C 127.100 101.548,123.706 101.968,123.424 101.512 C 123.243 101.218,123.754 101.087,125.750 100.914 C 127.812 100.735,128.004 100.741,127.739 100.978 M210.552 101.375 C 211.084 102.092,211.307 102.800,211.424 104.141 C 211.477 104.751,211.551 105.405,211.589 105.594 C 211.639 105.847,211.537 105.987,211.204 106.118 L 210.750 106.298 211.185 106.316 C 211.602 106.333,211.625 106.384,211.730 107.542 C 211.940 109.861,211.934 109.858,213.138 108.157 C 214.165 106.705,214.753 106.299,215.076 106.821 C 215.128 106.905,215.020 109.249,214.836 112.029 C 214.435 118.083,214.433 117.738,214.864 116.917 C 215.448 115.805,216.566 114.500,218.400 112.790 C 219.359 111.896,220.389 110.786,220.689 110.324 L 221.233 109.485 221.479 109.951 C 222.424 111.734,223.405 114.719,223.604 116.411 C 223.664 116.918,223.763 117.333,223.824 117.333 C 224.020 117.333,226.494 112.593,227.122 111.016 C 227.453 110.184,227.751 109.528,227.782 109.560 C 227.814 109.592,227.945 110.210,228.073 110.934 C 228.201 111.658,228.437 112.770,228.598 113.406 L 228.890 114.563 229.502 113.873 C 229.838 113.494,230.189 112.936,230.281 112.633 L 230.449 112.083 230.577 112.877 C 230.763 114.027,230.811 113.998,232.160 111.905 C 232.835 110.857,233.435 110.000,233.494 110.000 C 233.553 110.000,234.127 112.150,234.771 114.778 L 235.941 119.555 235.289 121.319 C 233.181 127.023,231.641 131.842,230.513 136.267 L 229.913 138.618 226.998 138.052 C 225.395 137.742,220.971 136.856,217.167 136.085 C 213.362 135.313,207.813 134.188,204.833 133.585 C 198.636 132.329,174.050 127.197,173.654 127.076 C 173.080 126.901,172.382 120.570,172.571 117.250 C 172.761 113.919,173.258 111.154,174.257 107.878 L 174.677 106.502 176.380 104.990 C 178.007 103.545,179.488 102.433,179.616 102.560 C 179.649 102.593,179.523 103.862,179.338 105.381 C 179.007 108.085,178.901 112.445,179.145 113.316 C 179.256 113.714,179.258 113.714,179.676 113.149 C 180.494 112.047,180.705 111.607,181.848 108.628 C 182.972 105.700,183.755 104.077,184.239 103.676 C 184.432 103.516,184.644 103.683,185.382 104.579 C 187.123 106.689,187.759 108.460,187.919 111.637 C 188.033 113.901,188.132 114.667,188.310 114.667 C 188.654 114.667,189.232 113.110,189.684 110.963 C 190.266 108.203,190.776 106.999,191.569 106.509 C 193.460 105.340,194.821 107.046,194.989 110.793 L 195.083 112.886 195.768 111.901 C 196.144 111.360,196.888 110.061,197.421 109.015 C 198.917 106.077,202.319 101.980,202.462 102.945 C 202.763 104.991,203.830 107.921,204.147 107.572 C 205.335 106.261,207.288 103.943,208.360 102.569 C 209.855 100.654,209.970 100.592,210.552 101.375 M301.758 102.015 C 301.669 102.466,301.718 102.744,301.959 103.140 C 302.532 104.081,302.713 103.232,302.184 102.083 L 301.877 101.417 301.758 102.015 M218.586 104.517 L 218.682 104.950 217.068 105.063 C 215.068 105.204,215.119 105.368,216.541 103.356 L 217.744 101.652 218.117 102.868 C 218.322 103.536,218.533 104.278,218.586 104.517 M119.667 102.250 C 119.667 102.529,119.596 102.543,119.009 102.386 C 118.631 102.285,118.625 102.268,118.926 102.150 C 119.439 101.950,119.667 101.980,119.667 102.250 M104.664 104.748 C 105.333 105.437,105.325 105.451,104.093 105.679 C 102.687 105.939,101.111 105.640,100.027 104.908 L 99.470 104.532 100.860 104.431 C 102.498 104.312,103.484 104.233,103.842 104.195 C 103.985 104.179,104.355 104.428,104.664 104.748 M227.333 104.417 C 227.333 104.617,227.094 104.664,226.125 104.654 C 224.929 104.641,224.923 104.639,225.500 104.417 C 226.327 104.098,227.333 104.098,227.333 104.417 M97.000 105.179 C 94.392 106.621,90.817 106.882,90.172 105.677 C 89.715 104.822,89.729 104.820,96.083 104.706 L 97.917 104.673 97.000 105.179 M118.150 106.210 C 118.164 106.456,118.116 106.471,117.852 106.306 C 117.582 106.138,117.563 106.037,117.718 105.597 L 117.898 105.083 118.016 105.500 C 118.081 105.729,118.141 106.049,118.150 106.210 M251.750 106.979 L 252.917 107.083 252.092 107.410 C 250.710 107.958,247.334 107.676,246.902 106.976 C 246.803 106.816,249.955 106.819,251.750 106.979 M226.667 107.286 C 225.874 107.655,224.088 107.753,223.163 107.478 L 222.417 107.255 223.583 107.169 C 224.225 107.122,225.313 107.068,226.000 107.048 L 227.250 107.013 226.667 107.286 M261.250 107.143 L 262.750 107.250 261.917 107.547 C 260.120 108.186,257.432 108.010,256.167 107.171 C 255.881 106.982,258.776 106.966,261.250 107.143 M234.167 107.246 C 234.167 107.377,233.142 107.864,233.053 107.775 C 233.008 107.730,233.183 107.577,233.444 107.436 C 233.933 107.171,234.167 107.109,234.167 107.246 M270.251 107.277 L 273.055 107.388 272.153 107.794 C 269.194 109.124,267.233 109.179,265.770 107.973 C 264.692 107.085,264.828 107.063,270.251 107.277 M259.027 115.082 C 259.074 115.130,259.744 114.351,260.515 113.351 C 262.153 111.227,262.077 111.179,262.235 114.417 C 262.298 115.700,262.392 116.994,262.443 117.292 L 262.537 117.833 260.394 117.838 C 259.215 117.840,257.087 117.914,255.667 118.001 C 253.814 118.116,253.066 118.109,253.021 117.978 C 252.979 117.853,252.920 117.859,252.835 117.998 C 252.766 118.109,252.598 118.173,252.461 118.141 C 252.291 118.102,252.797 117.368,254.064 115.820 C 255.083 114.576,256.554 112.744,257.333 111.750 L 258.750 109.943 258.845 112.469 C 258.897 113.859,258.979 115.035,259.027 115.082 M266.984 114.449 C 267.089 114.833,267.306 115.441,267.467 115.801 L 267.759 116.454 268.505 115.371 L 269.250 114.289 269.363 115.629 C 269.425 116.366,269.591 117.193,269.733 117.466 L 269.990 117.963 266.786 117.876 C 265.025 117.829,263.559 117.769,263.529 117.744 C 263.500 117.718,264.137 116.235,264.946 114.447 L 266.417 111.196 266.605 112.473 C 266.709 113.175,266.879 114.064,266.984 114.449 M198.083 112.430 C 197.900 112.470,197.356 112.583,196.875 112.680 C 195.852 112.887,195.813 113.013,196.544 113.744 C 197.588 114.788,199.773 115.033,201.493 114.299 C 202.221 113.989,202.240 113.989,202.493 114.297 C 202.739 114.598,204.186 115.500,204.423 115.500 C 204.627 115.500,204.316 114.591,203.993 114.245 C 203.652 113.880,204.422 113.000,205.084 113.000 C 205.232 113.000,205.307 112.925,205.250 112.833 C 205.094 112.581,203.734 112.634,203.050 112.920 C 202.493 113.153,202.368 113.147,201.514 112.853 C 200.570 112.528,198.692 112.297,198.083 112.430 M186.542 115.941 C 185.047 116.400,185.587 117.297,187.694 117.854 C 189.052 118.213,189.751 118.165,190.962 117.629 L 191.719 117.294 191.985 117.631 C 192.459 118.232,194.000 118.908,194.000 118.516 C 194.000 118.338,193.818 117.976,193.595 117.711 L 193.191 117.231 193.753 116.782 C 194.062 116.535,194.436 116.333,194.584 116.333 C 194.732 116.333,194.807 116.258,194.750 116.167 C 194.595 115.916,193.237 115.966,192.564 116.247 C 192.021 116.474,191.888 116.466,190.945 116.147 C 189.572 115.682,187.673 115.593,186.542 115.941 M205.509 116.921 C 204.361 117.244,204.388 117.194,204.995 117.885 C 205.952 118.975,208.147 119.331,209.828 118.669 L 210.669 118.337 211.414 118.906 C 212.182 119.492,212.788 119.767,212.952 119.604 C 213.091 119.464,212.658 118.512,212.385 118.359 C 212.135 118.219,213.213 117.333,213.634 117.333 C 213.744 117.333,213.833 117.258,213.833 117.167 C 213.833 116.909,212.041 116.970,211.507 117.246 C 211.076 117.469,210.939 117.461,210.057 117.155 C 208.744 116.699,206.678 116.593,205.509 116.921 M178.500 118.486 C 177.335 118.756,176.972 118.971,177.145 119.290 C 177.900 120.691,180.637 121.254,182.670 120.428 C 183.606 120.048,183.677 120.041,183.824 120.317 C 184.092 120.817,186.000 121.754,185.999 121.385 C 185.999 120.973,185.387 120.001,185.127 119.997 C 184.905 119.994,186.044 119.244,186.542 119.066 C 187.120 118.859,186.815 118.667,185.908 118.667 C 185.387 118.667,184.759 118.783,184.469 118.933 C 183.987 119.182,183.885 119.176,182.852 118.832 C 181.661 118.436,179.468 118.262,178.500 118.486 M260.333 119.842 C 266.745 120.444,266.666 120.429,265.705 120.861 C 261.519 122.747,253.520 122.053,253.150 119.771 L 253.046 119.126 253.898 119.222 C 254.367 119.274,257.262 119.553,260.333 119.842 M218.842 120.266 C 217.693 120.575,217.719 120.525,218.339 121.231 C 219.276 122.298,221.506 122.654,223.162 122.002 L 224.002 121.671 224.748 122.240 C 225.528 122.835,226.122 123.100,226.292 122.930 C 226.447 122.775,225.866 121.667,225.628 121.663 C 225.402 121.659,225.931 121.185,226.750 120.657 L 227.250 120.335 226.283 120.334 C 225.724 120.334,225.101 120.445,224.803 120.599 C 224.333 120.842,224.239 120.842,223.687 120.598 C 222.312 119.990,220.364 119.857,218.842 120.266 M196.833 120.686 C 195.967 120.944,195.924 121.069,196.484 121.707 C 197.442 122.797,199.438 123.105,201.218 122.435 C 202.242 122.049,202.282 122.046,202.471 122.349 C 202.683 122.688,204.311 123.578,204.456 123.433 C 204.611 123.278,204.135 122.330,203.773 122.077 C 203.559 121.927,203.514 121.833,203.656 121.833 C 203.782 121.833,204.131 121.646,204.431 121.417 C 204.732 121.188,205.077 120.999,205.197 120.997 C 205.358 120.996,205.350 120.952,205.167 120.833 C 204.767 120.575,203.632 120.655,203.012 120.985 C 202.455 121.282,202.424 121.281,201.679 120.944 C 200.799 120.545,197.836 120.388,196.833 120.686 M209.833 121.936 C 207.984 122.255,207.626 122.591,208.380 123.299 C 209.378 124.237,211.760 124.506,213.243 123.849 C 214.051 123.490,214.074 123.489,214.326 123.799 C 214.539 124.061,216.060 125.000,216.271 125.000 C 216.487 125.000,216.268 124.281,215.929 123.878 L 215.524 123.397 216.087 122.949 C 216.396 122.702,216.770 122.500,216.918 122.500 C 217.065 122.500,217.140 122.425,217.083 122.333 C 216.927 122.081,215.567 122.134,214.883 122.420 C 214.326 122.653,214.202 122.647,213.347 122.353 C 212.392 122.024,210.573 121.808,209.833 121.936 M185.509 122.589 C 184.372 122.908,184.370 122.911,184.772 123.461 C 185.593 124.584,188.108 125.021,189.825 124.339 C 190.725 123.982,190.735 123.982,190.991 124.306 C 191.255 124.639,192.503 125.333,192.838 125.333 C 193.091 125.333,192.875 124.671,192.481 124.239 C 192.110 123.833,192.084 123.667,192.391 123.667 C 192.514 123.667,192.751 123.517,192.917 123.333 C 193.083 123.150,193.361 123.000,193.536 123.000 C 193.710 123.000,193.807 122.925,193.750 122.833 C 193.597 122.586,192.125 122.631,191.474 122.903 C 190.964 123.116,190.809 123.106,189.912 122.803 C 188.590 122.354,186.675 122.261,185.509 122.589 M200.501 124.768 C 199.283 125.095,199.221 125.194,199.812 125.867 C 200.827 127.023,203.647 127.362,205.286 126.525 C 205.960 126.181,205.995 126.178,206.151 126.472 C 206.403 126.942,208.333 127.927,208.333 127.585 C 208.333 127.187,207.875 126.374,207.542 126.180 C 207.277 126.026,207.276 126.010,207.529 126.005 C 207.682 126.002,208.031 125.813,208.303 125.583 C 208.575 125.354,208.923 125.167,209.076 125.167 C 209.228 125.167,209.307 125.092,209.250 125.000 C 209.075 124.717,207.451 124.810,206.804 125.139 C 206.285 125.404,206.146 125.415,205.780 125.223 C 204.494 124.549,202.088 124.342,200.501 124.768 M219.167 126.861 C 218.302 127.106,218.257 127.235,218.818 127.873 C 219.775 128.964,221.772 129.271,223.551 128.602 C 224.576 128.216,224.615 128.213,224.804 128.515 C 225.016 128.855,226.644 129.745,226.789 129.600 C 226.945 129.444,226.468 128.496,226.107 128.243 C 225.893 128.094,225.847 128.000,225.989 128.000 C 226.115 128.000,226.464 127.813,226.765 127.583 C 227.065 127.354,227.410 127.166,227.531 127.164 C 227.692 127.162,227.684 127.119,227.500 127.000 C 227.102 126.743,225.967 126.820,225.356 127.146 C 224.808 127.438,224.772 127.436,223.723 127.056 C 222.558 126.633,220.316 126.537,219.167 126.861 M191.417 127.779 C 190.132 128.061,189.989 128.264,190.579 128.964 C 191.399 129.939,193.600 130.253,195.356 129.646 C 196.292 129.322,196.393 129.315,196.533 129.564 C 196.663 129.797,198.145 130.667,198.411 130.667 C 198.657 130.667,198.449 129.965,198.069 129.513 C 197.831 129.231,197.719 129.000,197.820 129.000 C 197.921 129.000,198.307 128.779,198.680 128.510 L 199.356 128.019 198.738 127.903 C 198.282 127.818,197.900 127.880,197.290 128.138 C 196.563 128.445,196.406 128.460,196.022 128.264 C 195.071 127.779,192.600 127.518,191.417 127.779 M208.917 128.597 C 208.733 128.637,208.198 128.748,207.726 128.843 C 206.227 129.146,207.081 130.264,209.176 130.741 C 210.473 131.036,211.136 130.975,212.312 130.455 C 213.048 130.130,213.054 130.130,213.318 130.455 C 213.539 130.727,215.056 131.667,215.274 131.667 C 215.438 131.667,215.091 130.715,214.817 130.412 C 214.486 130.046,215.263 129.167,215.918 129.167 C 216.065 129.167,216.140 129.092,216.083 129.000 C 215.927 128.747,214.567 128.801,213.883 129.087 C 213.326 129.319,213.202 129.314,212.347 129.020 C 211.404 128.695,209.526 128.463,208.917 128.597 M279.342 136.225 C 279.201 136.366,279.113 136.351,278.996 136.165 C 278.769 135.807,278.796 135.699,279.125 135.632 C 279.470 135.563,279.613 135.954,279.342 136.225 M244.067 141.708 C 244.474 143.155,244.531 144.653,244.269 147.043 C 243.595 153.202,244.264 156.176,247.366 160.799 C 248.000 161.744,248.609 162.544,248.718 162.575 C 248.827 162.607,249.693 162.870,250.642 163.161 C 252.733 163.802,252.654 163.896,251.546 162.083 C 248.760 157.520,248.339 155.297,249.482 151.167 C 250.731 146.652,250.659 143.236,249.296 142.393 C 249.184 142.325,244.266 141.333,244.036 141.333 C 243.995 141.333,244.009 141.502,244.067 141.708 M223.192 146.752 C 222.802 147.645,222.817 148.000,223.248 148.000 C 223.399 148.000,223.514 147.695,223.589 147.095 C 223.749 145.815,223.643 145.723,223.192 146.752 M280.667 147.437 C 276.516 149.742,276.812 149.316,276.255 153.784 C 275.718 158.090,275.884 158.806,277.713 160.065 C 278.195 160.397,278.903 161.071,279.287 161.562 C 280.850 163.563,283.127 163.452,286.401 161.216 C 289.304 159.232,290.032 156.910,288.950 153.083 C 288.717 152.258,288.478 151.227,288.420 150.792 C 288.302 149.918,287.756 149.141,286.975 148.737 C 286.709 148.599,285.937 147.927,285.259 147.243 C 283.713 145.682,283.835 145.677,280.667 147.437 M213.706 153.990 C 215.305 155.846,216.000 157.738,216.000 160.235 C 216.000 161.919,216.096 161.933,216.735 160.346 C 217.430 158.622,217.349 158.077,216.125 156.238 C 215.552 155.377,214.941 154.625,214.767 154.568 C 214.594 154.510,214.108 154.152,213.689 153.773 L 212.926 153.083 213.706 153.990 M257.355 157.000 C 256.819 159.009,255.918 161.567,255.264 162.938 L 254.539 164.459 255.578 164.872 L 256.617 165.284 257.251 163.267 C 257.989 160.924,258.179 158.751,257.784 157.167 L 257.556 156.250 257.355 157.000 M210.409 166.865 C 205.584 171.182,205.122 171.837,207.781 170.589 C 209.692 169.692,210.924 168.369,211.580 166.510 C 211.931 165.515,211.912 165.521,210.409 166.865  M -25 0 L -5 0 L -5 20 L -25 20 Z M 405 0 L 425 0 L 425 20 L 405 20 Z" id="path1" xmlns="http://www.w3.org/2000/svg"/>
  <path d="M 612.735 148.044 C 612.735 150.834 614.665 152.658 616.152 154.146 C 618.219 156.213 619.562 158.288 621.522 160.248 C 622.961 161.687 625.045 162.551 626.404 163.909 C 632.939 170.445 641.961 174.129 650.324 178.31 C 655.37 180.833 663.352 180.469 669.362 181.971 C 675.593 183.529 682.507 182.648 688.889 183.924 C 691.867 184.52 695.604 183.924 698.652 183.924 C 707.724 183.924 717.716 183.043 726.722 184.168 C 737.514 185.517 748.643 184.285 759.429 185.633 C 767.163 186.6 775.115 185.885 782.86 186.853 C 792.282 188.031 801.855 188.318 811.418 188.318 C 818.675 188.318 826.948 187.364 833.874 185.633 C 835.285 185.28 839.949 186.148 840.952 185.145 C 841.248 184.848 839.933 184.943 840.464 184.412 C 841.067 183.81 845.421 184.412 846.322 184.412 C 851.448 184.412 856.573 184.412 861.699 184.412 C 862.691 184.412 866.491 184.502 867.069 183.924 C 868.004 182.989 870.055 183.651 871.462 182.948 C 876.134 180.612 882.207 182.457 886.596 180.263 C 890.155 178.483 894.065 176.211 896.847 173.429 C 897.967 172.309 899.877 171.517 900.508 170.256 C 901.21 168.853 902.542 167.001 903.437 166.106 C 904.292 165.251 903.883 162.487 904.658 161.713 C 905.256 161.114 904.826 159.256 905.146 158.295 C 905.973 155.815 906.286 147.885 905.146 145.603 C 904.665 144.641 905.487 142.967 905.146 141.942 C 903.956 138.374 905.362 133.804 904.169 130.226 C 903.177 127.248 903.681 123.239 903.681 119.975 C 903.681 113.233 903.359 106.451 904.658 99.96 C 905.204 97.228 904.269 94.046 905.146 91.417 C 905.777 89.523 905.139 87.293 905.634 85.315 C 907.157 79.224 906.61 72.03 906.61 65.544 C 906.61 63.855 907.345 58.469 906.366 57.489 C 905.343 56.467 905.609 60.869 906.122 61.639 C 906.393 62.045 905.777 60.52 906.122 60.174 C 906.994 59.302 906.854 57.528 906.854 56.025 C 906.854 53.299 905.915 48.289 904.902 46.262 C 902.879 42.217 899.981 38.656 897.091 35.766 C 895.71 34.385 889.058 35.278 886.596 35.278 C 884.304 35.278 881.19 36.29 880.005 37.475 C 879.282 38.198 877.362 37.922 876.588 38.695 C 875.853 39.43 874.034 39.297 873.415 39.916 C 872.346 40.985 870.486 40.648 869.51 41.624 C 867.792 43.342 864.177 42.319 862.675 43.821 C 861.645 44.851 859.615 45.173 858.526 46.262 C 857.596 47.192 856.329 52.592 856.329 54.316 C 856.329 55.172 856.874 59.141 856.329 59.686 C 855.394 60.622 855.646 62.811 854.621 63.836 C 852.915 65.542 851.463 67.97 849.739 69.694 C 845.107 74.325 838.98 77.279 834.606 81.654 C 833.175 83.084 828.805 81.597 827.283 83.118 C 825.941 84.46 822.28 83.484 820.937 84.827 C 817.954 87.81 811.669 87.749 808.733 90.685 C 807.106 92.312 808.896 97.356 807.269 98.983 C 807.046 99.206 805.422 98.983 805.072 98.983 C 803.204 98.983 799.559 98.596 798.482 97.519 C 798.36 97.397 795.675 97.397 795.553 97.519 C 794.129 98.943 792.727 100.1 791.403 101.424 C 790.239 102.588 792.648 106.038 791.892 106.794 C 790.711 107.974 788.611 108.611 787.254 109.967 C 786.603 110.618 784.488 109.804 783.837 110.455 C 782.568 111.724 778.704 111.432 776.27 111.432 C 774.471 111.432 768.281 112.099 767.239 113.14 C 766.588 113.791 764.717 113.222 764.066 113.872 C 762.439 115.5 762.52 118.835 760.893 120.463 C 760.486 120.869 760.995 123.493 761.137 123.636 C 761.422 123.921 760.852 125.06 761.137 125.344 C 762.778 126.985 765.772 132.67 763.09 135.352 C 760.094 138.348 753.925 137.194 750.886 140.233 C 750.142 140.977 748.368 140.555 747.713 141.21 C 746.533 142.39 743.035 141.25 741.855 142.43 C 741.641 142.644 736.943 142.644 736.729 142.43 C 734.891 140.593 731.405 140.722 727.698 140.722 C 726.92 140.722 723.311 141.217 722.816 140.722 C 720.864 138.769 714.761 140.966 712.809 139.013 C 712.239 138.443 710.205 139.338 709.636 138.769 C 708.822 137.955 705.568 139.582 704.754 138.769 C 703.191 137.206 698.111 138.96 696.455 137.304 C 695.153 136.002 691.521 136.764 690.109 135.352 C 688.946 134.189 684.992 135.116 683.763 133.887 C 682.982 133.106 680.277 133.819 679.37 132.911 C 678.873 132.415 676.937 132.919 676.441 132.423 C 674.627 130.609 669.332 132.164 666.921 130.958 C 665.989 130.492 663.407 131.105 662.772 130.47 C 662.198 129.896 659.703 129.982 658.623 129.982 C 656.087 129.982 652.531 129.738 649.591 129.738 C 648.697 129.738 644.547 129.168 643.978 129.738 C 642.958 130.757 639.403 129.675 638.364 130.714 C 637.347 131.731 634.255 130.673 633.238 131.69 C 631.339 133.59 627.248 133.532 625.183 135.596 C 622.627 138.151 619.462 141.073 616.884 143.651 C 616.28 144.255 614.619 146.824 613.711 146.824" style="fill: rgb(155, 228, 246);"/>
</svg>