<?xml version="1.0" encoding="UTF-8"?>
<svg xmlns="http://www.w3.org/2000/svg" xmlns:xlink="http://www.w3.org/1999/xlink" width="300px" height="308px" viewBox="0 0 300 308" version="1.1">
<g id="surface1">
<path style=" stroke:none;fill-rule:evenodd;fill:rgb(1.568627%,29.803922%,42.352941%);fill-opacity:1;" d="M 277.367188 87.972656 C 274.679688 93.730469 274.582031 96.320312 276.898438 100.332031 C 278.917969 103.835938 278.886719 104.988281 276.644531 109.585938 C 274.332031 114.335938 274.164062 115.308594 274.625 121.367188 C 275.027344 126.632812 274.75 128.011719 272.371094 132.484375 C 271.714844 133.71875 271.140625 134.859375 271.101562 135.011719 C 271 135.398438 270.863281 135.363281 270.675781 134.90625 C 270.585938 134.691406 270.234375 134.058594 269.890625 133.5 C 267.566406 129.699219 267.476562 126.640625 269.496094 120.300781 C 271.054688 115.398438 271.140625 113.359375 269.886719 110.871094 C 268.984375 109.085938 266.65625 106.53125 267.191406 107.917969 C 268.609375 111.589844 268.003906 115.851562 265.375 120.6875 C 263.066406 124.929688 263.175781 126.640625 266.046875 131.121094 C 267.503906 133.402344 268.347656 135.03125 268.625 136.101562 C 268.917969 137.25 268.800781 141.203125 268.496094 140.472656 C 267.964844 139.207031 266.480469 137.039062 264.992188 135.355469 C 263.238281 133.367188 263.222656 133.300781 263.875 131.355469 C 264.941406 128.164062 263.855469 126.117188 259.441406 122.996094 C 255.402344 120.144531 254.007812 117.707031 253.9375 113.394531 C 253.929688 112.921875 253.90625 112.957031 253.488281 114.015625 C 251.5 119.054688 252.164062 120.996094 257.335938 125.277344 C 261.679688 128.875 262.25 130.082031 261.625 134.398438 C 261.078125 138.1875 261.726562 139.820312 264.085938 140.605469 C 265.542969 141.089844 265.988281 141.746094 266.144531 143.648438 L 266.21875 144.492188 L 265.359375 144.582031 C 259.652344 145.160156 256.300781 147.136719 252.515625 152.140625 C 251.011719 154.128906 249.140625 156.078125 248.394531 156.429688 C 247.882812 156.675781 247.796875 156.671875 245.828125 156.316406 C 244.253906 156.035156 243.507812 156.289062 242.066406 157.613281 C 240.847656 158.730469 240.277344 158.792969 238.046875 158.050781 C 236.9375 157.683594 236.953125 157.742188 237.628906 156.445312 C 238.226562 155.296875 239.550781 154.0625 241.617188 152.714844 C 243.871094 151.246094 244.207031 150.800781 244.203125 149.28125 C 244.195312 146.484375 239.65625 147.011719 237.628906 150.042969 C 237.1875 150.703125 237.179688 150.695312 237.015625 149.453125 C 236.886719 148.460938 237.238281 147.378906 238.609375 144.546875 C 241.144531 139.308594 241.335938 137.167969 239.4375 135.328125 C 236.050781 132.046875 231.21875 137.953125 231.21875 145.386719 L 231.214844 146.683594 L 230.472656 145.980469 C 228.734375 144.320312 226.398438 144.03125 225.363281 145.34375 C 224.691406 146.195312 224.953125 146.808594 226.847656 148.832031 C 230.148438 152.359375 233.121094 156.832031 232.464844 157.292969 C 232.328125 157.386719 231.933594 157.863281 231.59375 158.347656 C 230.636719 159.710938 230.375 159.679688 229.136719 158.046875 C 226.519531 154.59375 222.734375 154.332031 220.964844 157.476562 C 220.359375 158.546875 219.976562 158.371094 219.394531 156.742188 C 218.84375 155.195312 218.621094 154.910156 217.085938 153.765625 C 214.941406 152.167969 214.078125 151.914062 212.796875 152.496094 C 212.003906 152.851562 211.691406 152.894531 211.308594 152.695312 C 209.964844 152 207.34375 154.078125 207.859375 155.433594 C 208.039062 155.90625 208.175781 155.9375 210.421875 156.019531 C 213.449219 156.132812 214.714844 156.699219 215.074219 158.117188 C 215.257812 158.835938 215.058594 158.886719 213.835938 158.457031 L 212.867188 158.113281 L 212.316406 158.355469 C 211.316406 158.796875 210.699219 159.921875 210.714844 161.28125 C 210.726562 162.527344 209.957031 162.742188 205.539062 162.746094 C 204.476562 162.746094 203.042969 162.84375 201.929688 162.996094 C 200.167969 163.234375 198.371094 163.324219 198.371094 163.171875 C 198.371094 163.007812 198.683594 162.527344 199.074219 162.089844 C 199.875 161.195312 199.480469 160.410156 197.808594 159.578125 C 196.832031 159.09375 195.15625 158.503906 194.753906 158.503906 C 194.167969 158.503906 194.339844 157.796875 195.117188 157.027344 C 195.492188 156.65625 195.625 156.425781 195.625 156.140625 C 195.625 155.320312 194.03125 154.136719 192.929688 154.136719 C 191.933594 154.136719 192.15625 153.210938 193.429688 152.035156 C 193.925781 151.578125 194.445312 151.292969 196.425781 150.398438 C 198.382812 149.515625 199.488281 147.972656 199.59375 145.984375 C 199.652344 144.914062 199.507812 144.230469 198.667969 141.53125 C 198.207031 140.050781 198.121094 138.238281 198.472656 137.320312 L 198.722656 136.664062 L 198.367188 136.875 C 197.199219 137.5625 196.859375 139.164062 197.382812 141.46875 C 198.273438 145.390625 197.589844 147.203125 194.464844 149.191406 C 192.773438 150.265625 192.804688 150.257812 192.707031 149.679688 C 192.5625 148.8125 192.617188 148.550781 193.0625 147.96875 C 193.304688 147.652344 193.699219 147.140625 193.9375 146.824219 C 194.5625 146.011719 194.546875 145.269531 193.875 143.480469 C 193.082031 141.367188 193.214844 140.523438 194.625 138.785156 C 195.472656 137.742188 195.777344 137.0625 195.765625 136.226562 C 195.757812 135.574219 195.6875 135.355469 194.824219 133.265625 C 194.289062 131.972656 194.128906 130.992188 194.207031 129.480469 L 194.261719 128.367188 L 194.007812 128.820312 C 192.789062 131.03125 192.710938 132.753906 193.757812 134.542969 C 194.570312 135.933594 194.535156 136.714844 193.554688 138.671875 C 192.644531 140.488281 192.578125 140.855469 192.675781 143.585938 C 192.777344 146.433594 192.722656 146.71875 191.632812 148.855469 C 190.875 150.34375 190.597656 151.203125 190.433594 152.574219 L 190.347656 153.324219 L 190.128906 152.6875 C 189.855469 151.90625 189.433594 151.21875 188.488281 150.039062 C 187.703125 149.066406 187.652344 148.882812 187.941406 148.1875 C 188.453125 146.972656 187.894531 145.925781 186.007812 144.554688 C 184.347656 143.347656 183.90625 142.707031 183.625 141.105469 L 183.476562 140.242188 L 183.234375 140.855469 C 182.476562 142.773438 182.882812 143.652344 185.65625 146.050781 C 186.898438 147.128906 187.015625 147.449219 186.976562 149.671875 C 186.941406 151.726562 186.984375 151.847656 187.941406 152.261719 C 188.730469 152.605469 188.875 152.847656 188.960938 153.960938 L 189.035156 154.945312 L 188.066406 155.3125 C 184.894531 156.511719 183.234375 158.792969 184.890625 159.6875 C 186.253906 160.425781 186.628906 160.859375 186.632812 161.707031 C 186.632812 162.214844 186.257812 162.714844 186 162.554688 C 185.441406 162.210938 181.34375 161.472656 179.074219 161.3125 C 177.863281 161.222656 176.179688 160.800781 175.054688 160.304688 C 174.667969 160.136719 174.253906 160.027344 174.132812 160.066406 C 173.71875 160.199219 173.746094 159.855469 174.222656 158.910156 C 174.703125 157.96875 174.707031 157.960938 174.707031 156.457031 L 174.707031 154.945312 L 173.910156 153.699219 C 172.386719 151.308594 171.464844 150.710938 169.273438 150.707031 C 165.753906 150.699219 164.503906 152.382812 167.046875 153.699219 C 169.71875 155.082031 170.273438 156.214844 169.304688 158.289062 L 168.925781 159.089844 L 168.296875 159.152344 C 167.542969 159.226562 167.097656 159.492188 166.753906 160.070312 C 166.390625 160.683594 165.949219 160.648438 164.78125 159.925781 C 162.722656 158.644531 161.707031 158.675781 160.316406 160.0625 C 159.152344 161.226562 158.640625 161.09375 158.46875 159.59375 C 158.34375 158.488281 158.136719 158.0625 157.582031 157.777344 L 157.113281 157.539062 L 157.75 156.863281 C 158.136719 156.457031 158.910156 155.878906 159.714844 155.402344 C 162.203125 153.925781 162.902344 153.152344 162.90625 151.871094 C 162.90625 150.992188 163.011719 150.640625 163.265625 150.640625 C 163.691406 150.640625 164.898438 149.753906 165.222656 149.203125 C 165.648438 148.472656 165.605469 147.949219 165.121094 147.980469 C 164.804688 148.003906 164.777344 147.96875 164.777344 147.546875 C 164.777344 146.808594 164.332031 147.386719 164.050781 148.484375 C 163.847656 149.296875 163.515625 149.890625 163.273438 149.890625 C 163.222656 149.890625 163.34375 149.429688 163.539062 148.863281 C 163.902344 147.824219 164.03125 146.523438 163.773438 146.523438 C 163.046875 146.523438 162.035156 149.097656 162.050781 150.902344 C 162.058594 151.820312 161.886719 152.25 161.285156 152.824219 C 160.578125 153.496094 160.402344 152.542969 161.03125 151.433594 C 161.59375 150.433594 161.496094 149.765625 160.851562 150.1875 C 160.578125 150.367188 160.550781 150.363281 160.492188 150.136719 C 160.40625 149.804688 160.226562 149.832031 160.054688 150.199219 C 159.898438 150.546875 159.992188 152.929688 160.179688 153.296875 C 160.269531 153.472656 160.210938 153.558594 159.898438 153.730469 C 159.367188 154.023438 158.4375 154.703125 157.65625 155.371094 L 157.011719 155.925781 L 157.765625 154.421875 C 158.179688 153.59375 158.636719 152.53125 158.78125 152.058594 C 159.265625 150.453125 159.808594 149.554688 161.332031 147.847656 C 163.34375 145.59375 163.433594 145.382812 163.535156 142.71875 C 163.578125 141.550781 163.679688 140.4375 163.757812 140.246094 C 163.90625 139.882812 163.957031 139.160156 163.835938 139.160156 C 163.007812 139.160156 162.609375 140.117188 162.339844 142.757812 C 162.128906 144.796875 162.070312 144.988281 161.71875 144.730469 C 161.488281 144.5625 161.492188 144.535156 161.816406 143.808594 C 162.003906 143.394531 162.152344 142.835938 162.152344 142.550781 C 162.152344 141.648438 161.824219 141.785156 161.402344 142.867188 L 161.167969 143.464844 L 161.15625 142.78125 C 161.144531 141.59375 160.902344 140.917969 160.492188 140.910156 C 160.347656 140.90625 160.03125 141.71875 160.03125 142.089844 C 160.03125 142.480469 159.925781 142.480469 159.179688 142.105469 C 158.257812 141.636719 157.855469 142.070312 158.515625 142.824219 C 158.773438 143.117188 159.570312 143.527344 159.882812 143.527344 C 160.050781 143.527344 160.234375 143.757812 160.507812 144.308594 C 160.71875 144.738281 161.058594 145.253906 161.265625 145.449219 L 161.640625 145.808594 L 161.285156 146.328125 C 161.085938 146.617188 160.558594 147.285156 160.105469 147.8125 C 159.65625 148.34375 159.21875 148.902344 159.140625 149.050781 C 158.996094 149.316406 158.992188 149.320312 158.894531 149.078125 C 158.734375 148.667969 158.761719 148.589844 159.34375 147.703125 C 160.050781 146.628906 160.007812 145.929688 159.277344 146.589844 C 159.035156 146.808594 159.03125 146.800781 159.097656 146.261719 C 159.238281 145.132812 158.707031 145.117188 158.28125 146.234375 C 157.894531 147.253906 157.878906 148.734375 158.25 149.554688 C 158.460938 150.011719 158.496094 150.222656 158.402344 150.464844 C 158.335938 150.640625 158.28125 150.925781 158.28125 151.101562 C 158.28125 151.40625 158.265625 151.398438 157.953125 150.9375 C 157.773438 150.671875 157.457031 150.261719 157.25 150.023438 C 156.1875 148.808594 156.082031 147.78125 156.890625 146.546875 C 157.832031 145.113281 158.191406 143.96875 157.777344 143.710938 C 157.632812 143.621094 156.855469 144.414062 156.582031 144.933594 C 156.164062 145.726562 156.214844 144.261719 156.65625 142.71875 C 157.15625 140.988281 156.636719 140.242188 156.027344 141.804688 L 155.824219 142.320312 L 155.742188 141.808594 C 155.640625 141.183594 155.492188 141.074219 155.09375 141.335938 C 154.601562 141.660156 154.703125 142.835938 155.28125 143.464844 C 155.523438 143.726562 155.515625 148.269531 155.277344 148.269531 C 154.863281 148.269531 154.410156 146.972656 154.410156 145.78125 C 154.410156 144.570312 154.21875 144.21875 153.796875 144.644531 C 153.558594 144.882812 153.523438 145.03125 153.558594 145.65625 C 153.617188 146.679688 153.394531 146.371094 153.296875 145.289062 C 153.183594 144.042969 152.773438 143.847656 152.605469 144.960938 C 152.433594 146.121094 153.296875 147.722656 154.808594 149.050781 C 157.324219 151.261719 157.75 152.28125 156.984375 154.25 C 156.523438 155.4375 156.414062 155.367188 156.410156 153.875 C 156.40625 151.402344 155.847656 150.351562 152.949219 147.386719 C 151.265625 145.664062 151.316406 145.746094 151.648438 145.386719 C 152.292969 144.699219 152.710938 142.769531 152.320312 142.289062 C 151.988281 141.882812 151.824219 142.035156 151.644531 142.910156 C 151.484375 143.667969 151.289062 143.90625 151.289062 143.335938 C 151.289062 142.875 150.945312 142.125 150.761719 142.1875 C 150.386719 142.308594 150.574219 143.699219 151.039062 144.214844 C 151.203125 144.398438 151.234375 144.539062 151.15625 144.746094 C 150.992188 145.167969 150.84375 145.089844 150.496094 144.390625 C 150.167969 143.734375 150.066406 143.316406 149.722656 141.257812 C 149.523438 140.054688 149.335938 139.695312 148.988281 139.828125 C 148.71875 139.929688 148.628906 140.644531 148.765625 141.546875 C 148.832031 141.984375 148.863281 142.371094 148.828125 142.40625 C 148.679688 142.558594 148.046875 141.558594 147.800781 140.777344 C 147.496094 139.816406 147.335938 139.636719 147.085938 139.976562 C 146.523438 140.746094 147.84375 143.277344 148.804688 143.277344 C 149.082031 143.277344 149.167969 143.421875 149.65625 144.660156 C 150.347656 146.414062 150.609375 146.785156 151.921875 147.929688 C 154.550781 150.222656 156.121094 153.273438 155.726562 155.339844 L 155.636719 155.820312 L 155.441406 155.320312 C 154.914062 153.980469 152.699219 151.589844 151.703125 151.292969 C 150.75 151.003906 150.605469 150.503906 151.042969 148.996094 C 151.164062 148.578125 151.179688 148.273438 151.09375 147.933594 C 150.949219 147.339844 150.65625 147.3125 150.507812 147.886719 L 150.398438 148.3125 L 150.085938 147.792969 C 149.472656 146.765625 149.273438 147.113281 149.714844 148.4375 C 150.144531 149.710938 150.179688 149.9375 150.027344 150.375 C 149.804688 151.011719 149.542969 150.691406 148.789062 148.875 C 148.34375 147.804688 148.023438 147.199219 147.894531 147.171875 C 147.617188 147.117188 147.503906 147.53125 147.675781 147.972656 C 148.210938 149.324219 148.03125 149.644531 147.304688 148.644531 C 146.667969 147.773438 146.542969 147.726562 146.546875 148.363281 C 146.546875 149.15625 147.25 150.253906 148.050781 150.726562 C 148.425781 150.941406 148.972656 151.277344 149.265625 151.472656 C 149.5625 151.667969 150.042969 151.984375 150.339844 152.175781 C 150.710938 152.417969 151.117188 152.550781 151.675781 152.613281 C 152.6875 152.722656 152.757812 152.984375 151.851562 153.269531 C 151.375 153.421875 151.21875 153.535156 151.1875 153.75 C 151.097656 154.351562 151.8125 154.535156 152.832031 154.167969 L 153.441406 153.949219 L 153.800781 154.378906 C 154.15625 154.804688 155.332031 157.058594 155.472656 157.585938 C 155.636719 158.195312 153.890625 158.425781 152.296875 158 C 150.363281 157.488281 149.507812 157.832031 149.488281 159.136719 L 149.476562 159.8125 L 148.355469 159.886719 C 147.675781 159.929688 147.070312 160.039062 146.828125 160.167969 L 146.425781 160.378906 L 146.183594 159.90625 C 145.792969 159.140625 145.75 158.410156 145.988281 156.699219 C 146.3125 154.371094 145.742188 153.011719 144.4375 153.011719 C 144.101562 153.011719 143.796875 152.683594 143.796875 152.328125 C 143.796875 151.476562 142.617188 151.171875 141.597656 151.757812 C 140.042969 152.648438 139.242188 154.09375 138.996094 156.433594 C 138.824219 158.070312 138.746094 158.269531 138.140625 158.582031 C 137.617188 158.851562 137.269531 158.714844 136.863281 158.070312 C 135.628906 156.121094 132.300781 157.050781 130.683594 159.796875 C 129.652344 161.550781 128.777344 161.585938 126.410156 159.96875 C 124.5 158.660156 123.933594 158.625 121.835938 159.683594 C 119.199219 161.015625 118.144531 160.691406 117.386719 158.320312 C 116.960938 156.980469 116.550781 156.476562 115.660156 156.1875 C 114.4375 155.789062 114.160156 155.308594 114.960938 154.957031 C 116.972656 154.070312 116.554688 150.980469 114.261719 149.832031 C 113.988281 149.691406 113.554688 149.429688 113.292969 149.25 C 112.699219 148.832031 112.042969 148.683594 110.078125 148.515625 C 107.488281 148.296875 106.246094 147.863281 104.746094 146.648438 C 103.792969 145.878906 103.476562 145.429688 103.796875 145.316406 C 104.441406 145.085938 104.402344 145.023438 102.679688 143.515625 C 102.441406 143.308594 102.273438 142.972656 102.136719 142.421875 L 101.9375 141.628906 L 102.339844 141.210938 L 102.746094 140.796875 L 103.140625 141.097656 C 104.585938 142.199219 107.003906 141.386719 108.246094 139.382812 L 108.457031 139.042969 L 108.113281 139.183594 C 107.910156 139.265625 106.976562 139.332031 105.871094 139.335938 L 103.972656 139.347656 L 104.222656 138.972656 C 104.363281 138.769531 104.617188 138.304688 104.789062 137.941406 L 105.101562 137.285156 L 105.453125 137.535156 C 106.152344 138.035156 106.722656 137.867188 108.390625 136.667969 C 108.941406 136.277344 109.523438 135.882812 109.683594 135.796875 C 110.097656 135.582031 109.902344 135.445312 108.863281 135.230469 C 107.847656 135.015625 106.945312 135.125 106.230469 135.546875 C 105.640625 135.894531 105.640625 135.878906 106.152344 134.40625 C 106.777344 132.613281 106.730469 132.679688 107.292969 132.828125 C 107.769531 132.957031 108.042969 132.90625 110.453125 132.234375 C 110.828125 132.128906 111.632812 132.007812 112.238281 131.964844 C 113.476562 131.875 113.597656 131.722656 112.839844 131.210938 C 111.699219 130.445312 109.058594 130.503906 107.726562 131.324219 L 107.300781 131.585938 L 107.457031 131.289062 C 107.984375 130.292969 108.335938 129.925781 108.777344 129.925781 C 109.925781 129.925781 112.414062 127.992188 113.40625 126.320312 L 113.734375 125.773438 L 113.246094 125.859375 C 110.503906 126.34375 107.953125 127.980469 107.953125 129.257812 C 107.953125 129.375 107.714844 129.839844 107.421875 130.289062 L 106.890625 131.101562 L 106.8125 130.191406 C 106.695312 128.921875 105.339844 126.34375 105.328125 127.378906 C 105.324219 128.097656 104.808594 128.578125 103.984375 128.632812 C 103.554688 128.660156 102.921875 128.789062 102.582031 128.917969 C 102.238281 129.046875 101.960938 129.128906 101.960938 129.097656 C 101.960938 128.886719 102.917969 127.6875 103.289062 127.429688 C 104.316406 126.730469 104.765625 125.058594 104.566406 122.695312 C 104.382812 120.554688 104.351562 120.519531 103.578125 121.714844 C 102.566406 123.273438 101.871094 126.320312 102.328125 127.171875 C 102.441406 127.382812 101.640625 128.804688 101.414062 128.804688 C 101.40625 128.804688 101.394531 128.3125 101.390625 127.710938 C 101.378906 125.703125 100.09375 123.4375 98.96875 123.4375 C 98.753906 123.4375 98.765625 123.515625 99.101562 124.566406 C 99.3125 125.214844 99.519531 126.238281 99.59375 126.96875 C 99.753906 128.53125 99.882812 129.042969 100.234375 129.492188 L 100.511719 129.84375 L 99.832031 130.453125 C 99.457031 130.785156 98.890625 131.28125 98.570312 131.554688 L 97.992188 132.046875 L 98.050781 131.265625 C 98.148438 130.03125 96.839844 127.292969 96.582031 128.183594 C 95.757812 131.003906 95.71875 132.097656 96.417969 132.757812 L 96.847656 133.164062 L 96.0625 134.117188 L 95.28125 135.074219 L 95.195312 134.589844 C 95.148438 134.324219 94.882812 133.609375 94.601562 133.003906 C 94 131.699219 93.992188 131.605469 94.425781 131.152344 C 94.84375 130.71875 94.8125 130.6875 93.761719 130.535156 C 92.742188 130.386719 91.859375 130.476562 91.105469 130.808594 C 90.402344 131.121094 90.402344 131.121094 90.816406 130.101562 C 91.011719 129.628906 91.304688 128.839844 91.46875 128.351562 L 91.765625 127.460938 L 92.148438 127.695312 C 93.3125 128.40625 94.820312 127.621094 95.40625 125.996094 C 95.53125 125.652344 95.6875 125.300781 95.75 125.214844 C 96.324219 124.464844 93.46875 125.460938 92.5 126.351562 C 92.097656 126.71875 91.957031 126.796875 92.011719 126.621094 C 92.054688 126.484375 92.144531 126.070312 92.214844 125.707031 C 92.285156 125.339844 92.464844 124.867188 92.613281 124.65625 C 93.339844 123.636719 92.941406 121.378906 91.648438 119.210938 L 91.035156 118.175781 L 90.847656 118.59375 C 90.308594 119.78125 90.707031 123.613281 91.46875 124.574219 L 91.824219 125.023438 L 91.632812 125.789062 C 91.429688 126.59375 91.292969 126.671875 91.15625 126.0625 C 90.847656 124.652344 88.605469 122.574219 87.386719 122.566406 C 86.832031 122.5625 86.792969 122.714844 87.238281 123.136719 C 87.789062 123.660156 88.597656 124.835938 89.234375 126.042969 C 89.578125 126.699219 89.988281 127.269531 90.335938 127.574219 L 90.886719 128.0625 L 90.179688 129.515625 C 89.789062 130.3125 89.472656 130.882812 89.472656 130.777344 C 89.472656 129.992188 88.316406 128.527344 87.289062 128.011719 C 86.503906 127.617188 86.535156 127.492188 86.894531 129.457031 C 87.296875 131.675781 87.546875 132.128906 88.488281 132.359375 L 88.8125 132.441406 L 88.519531 133.371094 C 88.355469 133.886719 88.222656 134.386719 88.222656 134.484375 C 88.222656 134.785156 88.054688 134.695312 87.734375 134.226562 C 87.570312 133.984375 87.109375 133.507812 86.710938 133.164062 C 86.316406 132.816406 85.820312 132.277344 85.609375 131.964844 C 85.132812 131.246094 85.039062 131.402344 85.042969 132.921875 C 85.046875 134.828125 86.277344 136.523438 87.664062 136.539062 C 87.890625 136.539062 87.933594 136.667969 88.066406 137.757812 C 88.152344 138.425781 88.257812 139.109375 88.304688 139.277344 L 88.386719 139.582031 L 88 139.304688 C 87.203125 138.738281 86.539062 138.539062 85.179688 138.457031 L 83.863281 138.375 L 83.996094 138.808594 C 84.546875 140.609375 86.605469 141.878906 88.535156 141.613281 L 89.078125 141.539062 L 89.542969 142.378906 C 89.796875 142.839844 90.089844 143.3125 90.191406 143.433594 C 90.378906 143.648438 90.03125 143.902344 89.542969 143.902344 C 89.457031 143.902344 88.921875 144.238281 88.355469 144.644531 C 87.792969 145.050781 87.269531 145.40625 87.191406 145.429688 C 86.726562 145.585938 87.910156 146.207031 88.925781 146.34375 L 89.566406 146.425781 L 89.621094 147.136719 C 89.648438 147.527344 89.789062 148.078125 89.933594 148.355469 L 90.199219 148.863281 L 89.679688 148.746094 C 88.292969 148.433594 86.523438 149.621094 86.285156 151.019531 L 86.203125 151.515625 L 83.984375 151.515625 C 82.765625 151.515625 81.253906 151.476562 80.628906 151.433594 L 79.496094 151.351562 L 79.796875 150.757812 C 79.960938 150.433594 80.5 149.667969 80.992188 149.0625 C 83.886719 145.492188 82.726562 142.53125 79.0625 144.136719 C 76.625 145.207031 75.75 144.902344 74.167969 142.453125 C 73.804688 141.890625 73.304688 141.207031 73.0625 140.9375 C 72.46875 140.28125 72.828125 140.003906 75.902344 138.734375 C 79.273438 137.34375 79.613281 136.871094 78.863281 134.632812 C 78.117188 132.390625 78.441406 130.5 79.800781 129.148438 L 80.269531 128.679688 L 79.59375 128.679688 C 77.328125 128.683594 76.425781 129.773438 76.105469 132.898438 C 75.839844 135.539062 75.449219 136.257812 73.386719 137.941406 L 72.449219 138.707031 L 72.539062 138.21875 C 72.710938 137.234375 73.429688 135.972656 74.394531 134.941406 C 76.445312 132.746094 76.484375 131.339844 74.566406 128.761719 C 73.503906 127.335938 73.230469 126.601562 73.144531 124.96875 C 73.070312 123.574219 73.027344 123.539062 72.46875 124.417969 C 71.222656 126.386719 71.140625 129.082031 72.257812 131.5 C 72.84375 132.765625 72.808594 133.292969 71.988281 135.667969 C 71.375 137.433594 71.316406 137.699219 71.308594 138.734375 C 71.300781 139.710938 71.273438 139.863281 71.101562 139.816406 C 70.992188 139.789062 70.695312 139.851562 70.445312 139.957031 C 69.996094 140.144531 69.988281 140.140625 69.910156 139.828125 C 69.757812 139.226562 69.953125 138.035156 70.3125 137.367188 C 71.472656 135.222656 71.71875 134.4375 71.5625 133.394531 C 71.40625 132.351562 70.84375 131.695312 69.554688 131.050781 C 68.28125 130.410156 67.867188 129.871094 67.867188 128.847656 C 67.867188 128.128906 67.703125 128.164062 67.316406 128.960938 C 66.375 130.90625 66.402344 132.210938 67.414062 133.652344 C 68.132812 134.667969 68.1875 135.019531 67.855469 136.429688 C 67.433594 138.226562 67.746094 139.578125 68.800781 140.507812 C 69.242188 140.894531 69.3125 141.015625 69.226562 141.25 C 69.167969 141.40625 69.035156 142.023438 68.925781 142.625 C 68.75 143.582031 68.28125 145.273438 68.1875 145.273438 C 68.167969 145.273438 67.960938 145.179688 67.730469 145.0625 C 66.464844 144.421875 64.921875 145.03125 64.121094 146.492188 C 63.640625 147.367188 63.679688 147.359375 60.972656 147.035156 C 57.734375 146.648438 57.914062 146.691406 57.902344 146.269531 C 57.855469 144.707031 55.402344 144.1875 53.238281 145.28125 C 51.816406 146.003906 51.714844 152.019531 53.058594 155.746094 L 53.257812 156.292969 L 50.789062 156.21875 C 46.839844 156.097656 46.261719 155.933594 45.847656 154.808594 C 45.414062 153.632812 45.28125 153.574219 43.164062 153.578125 C 40.484375 153.585938 39.359375 153.980469 38.332031 155.265625 C 37.84375 155.875 37.167969 156.257812 36.570312 156.257812 C 36.128906 156.257812 30.894531 155.402344 30.792969 155.3125 C 30.765625 155.289062 30.894531 154.75 31.078125 154.109375 C 31.796875 151.601562 33.082031 150.054688 36.457031 147.644531 C 41.316406 144.167969 42.476562 142.582031 42.589844 139.226562 C 42.679688 136.558594 42.707031 136.414062 43.125 136.414062 C 44.007812 136.414062 46.433594 134.3125 47.078125 132.988281 C 47.914062 131.265625 47.574219 129.394531 46.554688 130.109375 C 46.296875 130.289062 46.289062 130.277344 46.203125 129.410156 C 46.085938 128.214844 46.042969 128.113281 45.75 128.378906 C 45.289062 128.792969 44.511719 131.585938 44.511719 132.816406 C 44.511719 133.269531 43.367188 134.816406 43.175781 134.621094 C 43.148438 134.59375 43.359375 133.726562 43.640625 132.6875 C 44.277344 130.367188 44.476562 129.046875 44.390625 127.722656 C 44.3125 126.542969 44.261719 126.449219 43.847656 126.765625 C 42.351562 127.890625 40.890625 132.792969 40.890625 136.691406 C 40.890625 139.425781 40.523438 140.488281 39.070312 141.945312 L 38.597656 142.421875 L 38.402344 142.070312 C 37.941406 141.234375 38.125 139.890625 38.933594 138.199219 C 39.335938 137.359375 39.691406 136.460938 39.726562 136.203125 C 39.875 135.058594 39.210938 134.667969 38.460938 135.464844 L 38.0625 135.890625 L 37.945312 135.382812 C 37.578125 133.769531 36.632812 135.320312 36.828125 137.21875 C 36.925781 138.167969 36.929688 138.28125 36.871094 140.347656 C 36.839844 141.589844 36.867188 141.792969 37.15625 142.488281 L 37.480469 143.253906 L 36.34375 144.039062 C 35.601562 144.554688 34.527344 145.515625 33.230469 146.828125 C 31.542969 148.539062 31.285156 148.757812 31.460938 148.332031 C 33.488281 143.492188 34.136719 141.6875 34.699219 139.347656 C 35.664062 135.34375 36.292969 134.097656 39.617188 129.617188 C 43.339844 124.601562 43.769531 123.394531 43.757812 118.011719 C 43.746094 114.183594 43.824219 113.179688 44.265625 111.449219 C 44.753906 109.535156 44.558594 108.804688 43.683594 109.273438 C 42.453125 109.9375 41.664062 112.738281 41.453125 117.199219 C 41.367188 119.042969 41.082031 121.597656 40.875 122.367188 L 40.746094 122.851562 L 40.257812 122.363281 L 39.769531 121.878906 L 40.125 121.003906 C 41.058594 118.703125 41.378906 116.941406 41.03125 116.042969 C 40.65625 115.082031 39.65625 116.878906 39.324219 119.109375 C 39.179688 120.101562 39.121094 119.707031 39.027344 116.988281 C 38.949219 114.828125 38.894531 114.3125 38.703125 113.917969 C 38.050781 112.605469 37.109375 113.695312 36.933594 115.96875 C 36.84375 117.136719 36.945312 117.113281 35.574219 116.253906 C 33.816406 115.152344 33.167969 115.28125 33.515625 116.667969 C 33.859375 118.035156 34.730469 118.886719 36.359375 119.4375 L 37.304688 119.757812 L 37.574219 120.695312 C 37.933594 121.929688 38.636719 123.238281 39.398438 124.09375 C 40.261719 125.0625 40.347656 124.828125 37.644531 128.867188 C 36.632812 130.375 35.621094 131.933594 35.386719 132.324219 C 34.902344 133.144531 34.785156 133.113281 34.683594 132.125 C 34.597656 131.289062 34.726562 130.949219 35.804688 129.152344 C 37.085938 127.019531 36.746094 125.246094 35.363281 126.84375 L 35.015625 127.242188 L 35.109375 126.871094 C 35.671875 124.574219 34.753906 122.839844 33.984375 124.75 C 32.789062 127.710938 32.671875 131.875 33.714844 134.480469 L 34.011719 135.230469 L 33.765625 136.15625 C 33.632812 136.667969 33.519531 137.3125 33.519531 137.59375 L 33.515625 138.101562 L 33.105469 137.351562 C 32.882812 136.941406 32.320312 136.03125 31.855469 135.332031 C 30.761719 133.675781 30.34375 132.726562 30.03125 131.210938 C 29.574219 128.953125 29.535156 129.089844 31.585938 125.371094 C 32.882812 123.019531 33.378906 120.375 32.613281 119.894531 C 32.175781 119.617188 30.679688 121.550781 30.015625 123.25 C 29.613281 124.289062 29.53125 124.335938 29.601562 123.488281 C 29.832031 120.824219 30.144531 118.886719 30.832031 115.972656 C 31.203125 114.390625 31.148438 113.871094 30.578125 113.5 C 29.996094 113.121094 29.710938 113.507812 29.144531 115.449219 L 28.796875 116.636719 L 28.785156 115.886719 C 28.757812 113.882812 27.945312 113.257812 27.0625 114.570312 C 26.367188 115.597656 26.90625 118.585938 27.980469 119.660156 C 28.289062 119.96875 28.289062 119.96875 28.160156 121.359375 C 28.085938 122.125 28.027344 124.605469 28.023438 126.871094 L 28.015625 130.988281 L 27.53125 130.453125 C 26.4375 129.242188 25.992188 127.347656 26.050781 124.121094 C 26.082031 122.292969 26.070312 122.175781 25.816406 121.921875 C 24.914062 121.019531 24.011719 123.167969 24.382812 125.335938 C 24.546875 126.285156 24.515625 126.496094 24.273438 126.046875 C 24.183594 125.878906 24.085938 124.9375 24.039062 123.789062 C 23.949219 121.679688 23.777344 121.128906 23.207031 121.128906 C 22.554688 121.128906 22.347656 124.441406 22.890625 126.179688 C 23.660156 128.644531 26.714844 133.109375 28.246094 134.007812 C 28.691406 134.265625 28.878906 134.503906 29.28125 135.300781 C 29.550781 135.839844 30.136719 136.867188 30.582031 137.585938 C 31.988281 139.859375 32.203125 141.066406 31.585938 143.222656 C 31.308594 144.1875 30.515625 146.714844 30.3125 147.273438 C 30.136719 147.753906 29.996094 146.46875 29.902344 143.527344 C 29.714844 137.648438 28.894531 135.675781 24.222656 129.863281 C 22.171875 127.316406 20.871094 125.632812 20.484375 125.039062 C 20.273438 124.710938 20.277344 124.699219 20.703125 124.140625 C 21.640625 122.914062 22.65625 119.15625 22.484375 117.539062 C 22.363281 116.351562 21.667969 115.511719 21.199219 115.980469 C 21.039062 116.140625 20.445312 118.894531 20.398438 119.695312 C 20.390625 119.867188 20.277344 119.375 20.148438 118.601562 C 19.671875 115.753906 18.660156 115.070312 18.660156 117.601562 C 18.660156 118.976562 18.9375 120.109375 19.5 121.039062 L 19.933594 121.753906 L 19.726562 122.410156 C 19.46875 123.234375 19.394531 123.230469 18.972656 122.347656 C 18.097656 120.5 17.75 119.074219 17.355469 115.746094 C 16.835938 111.375 16.609375 110.570312 15.878906 110.484375 C 15.207031 110.402344 15.121094 110.796875 15.203125 113.492188 C 15.246094 114.808594 15.332031 116.125 15.390625 116.414062 C 15.496094 116.90625 15.488281 116.929688 15.265625 116.8125 C 14.5625 116.4375 13.925781 115.148438 13.355469 112.953125 C 12.753906 110.628906 12.421875 110.128906 11.976562 110.863281 C 10.714844 112.949219 13.429688 118.945312 15.636719 118.945312 C 15.84375 118.945312 15.933594 119.0625 16.042969 119.476562 C 17.574219 125.28125 18.375 126.855469 21.34375 129.933594 C 26.226562 134.980469 29.128906 142 28.707031 147.746094 L 28.609375 149.082031 L 28.4375 148.457031 C 27.410156 144.710938 23.609375 139.339844 21.097656 138.074219 C 18.9375 136.988281 18.617188 136.027344 19.476562 133.171875 C 19.949219 131.589844 20 130.761719 19.675781 129.695312 C 19.226562 128.226562 18.816406 128.242188 18.609375 129.738281 C 18.453125 130.851562 18.429688 130.855469 17.898438 129.828125 C 16.488281 127.085938 16.085938 128.039062 17.179688 131.550781 C 17.804688 133.558594 17.941406 135.65625 17.496094 136.335938 C 16.996094 137.101562 16.710938 136.574219 15.171875 131.960938 C 13.914062 128.199219 13.828125 127.992188 13.539062 127.992188 C 12.839844 127.992188 12.75 129.324219 13.347656 130.988281 C 14.117188 133.140625 13.648438 134.066406 12.726562 132.214844 C 11.484375 129.707031 10.714844 129.183594 10.820312 130.910156 C 10.972656 133.421875 12.464844 135.902344 14.542969 137.109375 C 15.089844 137.425781 16.085938 138.210938 16.914062 138.980469 C 18.804688 140.734375 19.523438 141.078125 21.621094 141.238281 C 22.417969 141.300781 22.65625 141.363281 22.65625 141.503906 C 22.65625 141.824219 21.796875 142.523438 21.304688 142.605469 C 20.074219 142.804688 19.507812 143.40625 19.761719 144.253906 C 20.148438 145.542969 21.882812 145.6875 23.371094 144.558594 C 24.128906 143.984375 24.429688 144.257812 25.640625 146.648438 C 27.320312 149.957031 28.925781 154.882812 28.324219 154.882812 C 28.261719 154.882812 27.738281 154.800781 27.152344 154.695312 C 20.707031 153.5625 19.339844 153.695312 4.550781 156.859375 L -0.0117188 157.835938 L -0.0429688 166.527344 L -0.0742188 175.222656 L 299.652344 175.222656 L 299.652344 162.117188 C 299.652344 151.746094 299.621094 149 299.496094 148.953125 C 299.410156 148.921875 298.957031 148.84375 298.488281 148.777344 C 296.816406 148.546875 296.390625 148.082031 296.078125 146.136719 C 295.6875 143.699219 294.339844 142.324219 292.210938 142.183594 C 290.363281 142.0625 289.664062 142.75 289.925781 144.433594 C 290.113281 145.625 290.007812 147.726562 289.734375 148.253906 C 289.386719 148.921875 289.183594 148.941406 285.726562 148.675781 C 281.988281 148.386719 281.925781 148.367188 280.972656 147.078125 C 280.132812 145.941406 279.601562 145.589844 278.871094 145.691406 C 278.480469 145.746094 278.09375 145.679688 277.414062 145.445312 C 276.902344 145.273438 275.925781 145.019531 275.246094 144.886719 C 273.777344 144.597656 273.957031 144.726562 273.792969 143.855469 L 273.660156 143.140625 L 274.386719 142.132812 C 276.074219 139.789062 277.933594 138.453125 281.480469 137.039062 C 285.6875 135.363281 287.601562 133.769531 289.136719 130.664062 C 290.835938 127.226562 290.773438 124.542969 288.855469 118.507812 C 286.710938 111.746094 286.527344 108.964844 288.035156 106.042969 C 288.496094 105.148438 288.492188 105.140625 287.691406 105.542969 C 284.65625 107.054688 283.9375 110.289062 285.230469 116.636719 C 286.371094 122.25 286.289062 124.714844 284.863281 127.617188 C 283.648438 130.09375 282.246094 131.324219 276.597656 134.855469 C 274.753906 136.007812 274.777344 135.996094 274.871094 135.75 C 274.914062 135.648438 274.828125 135.148438 274.683594 134.640625 C 274.15625 132.757812 274.394531 132.070312 276.4375 129.550781 C 279.003906 126.390625 279.113281 125.371094 277.371094 120.832031 C 275.417969 115.75 275.574219 114.460938 278.609375 110.691406 C 282.328125 106.074219 282.507812 104.613281 280.03125 99.132812 C 278.039062 94.730469 277.597656 91.992188 278.152344 87.449219 C 278.234375 86.773438 278.285156 86.199219 278.261719 86.175781 C 278.242188 86.152344 277.835938 86.960938 277.367188 87.972656 M 102.449219 130.59375 C 103.113281 130.859375 103.644531 130.851562 104.28125 130.5625 L 104.792969 130.332031 L 105.003906 130.722656 C 105.261719 131.1875 105.738281 131.558594 106.214844 131.660156 L 106.558594 131.734375 L 106.011719 132.921875 C 105.710938 133.574219 105.347656 134.386719 105.199219 134.730469 L 104.9375 135.355469 L 104.6875 134.738281 C 104.328125 133.839844 103.660156 132.988281 102.851562 132.414062 L 102.148438 131.90625 L 102.109375 132.539062 C 102.089844 132.886719 102.058594 133.171875 102.046875 133.171875 C 102.03125 133.171875 101.628906 133.03125 101.148438 132.863281 C 100.609375 132.671875 99.996094 132.550781 99.546875 132.550781 L 98.820312 132.546875 L 101.507812 129.6875 L 101.71875 130.039062 C 101.835938 130.230469 102.164062 130.480469 102.449219 130.59375 M 91.214844 132.671875 C 91.535156 132.671875 92.066406 132.582031 92.390625 132.46875 C 93.101562 132.226562 93.089844 132.21875 92.878906 132.941406 C 92.71875 133.492188 92.679688 133.527344 92.183594 133.605469 C 91.050781 133.78125 90.128906 134.164062 89.488281 134.722656 L 89.191406 134.980469 L 89.285156 134.542969 C 89.332031 134.304688 89.511719 133.671875 89.679688 133.136719 L 89.984375 132.164062 L 90.304688 132.417969 C 90.527344 132.589844 90.8125 132.671875 91.214844 132.671875 M 98.839844 134.171875 C 99.113281 134.308594 99.589844 134.457031 99.898438 134.5 C 100.207031 134.542969 100.460938 134.597656 100.460938 134.617188 C 100.460938 134.652344 100.074219 135.527344 100.007812 135.644531 C 99.996094 135.667969 99.535156 135.585938 98.984375 135.46875 C 98 135.257812 97.222656 135.300781 96.417969 135.613281 C 96.070312 135.75 96.359375 135.257812 97.269531 134.167969 L 98.011719 133.277344 L 98.175781 133.597656 C 98.269531 133.773438 98.566406 134.03125 98.839844 134.171875 M 103.339844 135.828125 C 103.550781 136.019531 103.886719 136.207031 104.089844 136.25 C 104.546875 136.339844 104.554688 136.269531 103.953125 137.355469 C 103.109375 138.886719 103.011719 138.964844 102.925781 138.152344 C 102.828125 137.214844 101.464844 134.929688 100.863281 134.699219 C 100.753906 134.660156 101.011719 134.542969 101.472656 134.429688 L 102.269531 134.230469 L 102.617188 134.855469 C 102.804688 135.199219 103.132812 135.636719 103.339844 135.828125 M 94.316406 136.554688 C 94.851562 136.726562 94.203125 137.414062 93.5 137.414062 C 93.121094 137.414062 92.601562 137.476562 92.347656 137.550781 C 91.929688 137.675781 91.8125 137.652344 91.023438 137.25 C 90.183594 136.824219 90.167969 136.8125 90.53125 136.734375 C 91.558594 136.519531 92.21875 136.253906 92.648438 135.882812 L 93.121094 135.476562 L 93.636719 135.988281 C 93.921875 136.273438 94.226562 136.527344 94.316406 136.554688 M 237.550781 136.492188 C 238.246094 137.28125 238.335938 138.914062 237.703125 139.269531 C 236.566406 139.902344 234.933594 138.34375 235.351562 137.027344 C 235.714844 135.886719 236.785156 135.625 237.550781 136.492188 M 89.75 136.664062 C 89.9375 136.664062 89.972656 136.792969 89.980469 137.507812 C 89.984375 137.96875 90.03125 138.460938 90.085938 138.597656 C 90.179688 138.835938 89.804688 139.535156 89.585938 139.535156 C 89.476562 139.535156 89.136719 138.085938 89.035156 137.179688 C 88.960938 136.523438 88.964844 136.511719 89.246094 136.585938 C 89.402344 136.628906 89.632812 136.664062 89.75 136.664062 M 96.75 137.75 C 96.9375 137.789062 97.125 137.867188 97.160156 137.925781 C 97.253906 138.078125 96.804688 139.285156 96.652344 139.289062 C 96.585938 139.289062 96.203125 139.425781 95.804688 139.585938 C 94.761719 140.015625 94.558594 139.183594 95.285156 137.445312 L 95.453125 137.039062 L 95.925781 137.359375 C 96.1875 137.535156 96.558594 137.714844 96.75 137.75 M 100.089844 137.765625 C 100.089844 137.878906 100.226562 138.214844 100.394531 138.507812 C 100.660156 138.972656 100.667969 139.023438 100.460938 138.910156 C 100.332031 138.84375 99.984375 138.785156 99.6875 138.785156 C 98.945312 138.785156 98.328125 137.800781 99.0625 137.785156 C 99.179688 137.78125 99.414062 137.703125 99.585938 137.609375 C 99.9375 137.414062 100.085938 137.457031 100.089844 137.765625 M 93.75 139.265625 C 93.707031 139.535156 93.648438 139.628906 93.585938 139.527344 C 93.535156 139.441406 93.550781 139.238281 93.625 139.078125 C 93.796875 138.703125 93.828125 138.75 93.75 139.265625 M 119.972656 139.128906 C 119.707031 139.351562 119.566406 139.585938 119.566406 139.792969 C 119.566406 139.972656 119.433594 140.242188 119.265625 140.398438 C 119.097656 140.554688 118.988281 140.753906 119.023438 140.84375 C 119.054688 140.929688 118.996094 141.035156 118.890625 141.074219 C 118.78125 141.117188 118.695312 141.285156 118.695312 141.453125 C 118.695312 141.886719 118.039062 142.40625 117.5 142.40625 C 117.046875 142.40625 117.03125 142.429688 117.144531 142.863281 C 117.273438 143.332031 117.683594 143.308594 118.667969 142.773438 C 119.175781 142.503906 119.683594 142.277344 119.796875 142.277344 C 119.910156 142.273438 120.113281 142.191406 120.25 142.089844 C 120.378906 141.988281 120.667969 141.90625 120.882812 141.90625 C 121.113281 141.90625 121.507812 141.753906 121.824219 141.539062 C 122.335938 141.195312 122.566406 141.15625 122.566406 141.40625 C 122.566406 141.46875 122.199219 141.890625 121.753906 142.347656 C 121.308594 142.804688 120.941406 143.226562 120.941406 143.28125 C 120.941406 143.339844 120.828125 143.421875 120.691406 143.46875 C 120.402344 143.558594 119.753906 144.726562 119.804688 145.066406 C 119.820312 145.1875 119.773438 145.367188 119.695312 145.460938 C 119.351562 145.875 119.894531 146.933594 120.503906 147.042969 C 120.675781 147.074219 120.769531 147.203125 120.796875 147.457031 C 120.820312 147.660156 120.96875 147.945312 121.132812 148.097656 C 121.292969 148.246094 121.488281 148.613281 121.566406 148.910156 C 121.867188 150.070312 122.109375 150.53125 122.703125 151.066406 C 123.230469 151.539062 124.5 152.261719 124.804688 152.261719 C 124.96875 152.261719 125.6875 153.121094 125.6875 153.316406 C 125.6875 153.921875 124.710938 154.261719 124.261719 153.8125 C 123.835938 153.390625 124.152344 152.65625 124.6875 152.824219 C 125.042969 152.9375 124.960938 153.328125 124.585938 153.3125 C 124.390625 153.304688 124.324219 153.359375 124.371094 153.480469 C 124.410156 153.578125 124.4375 153.679688 124.4375 153.707031 C 124.4375 153.839844 125.046875 153.742188 125.175781 153.589844 C 125.472656 153.230469 124.859375 152.386719 124.300781 152.386719 C 123.640625 152.386719 123.304688 153.0625 123.550781 153.890625 C 124.078125 155.640625 126.546875 154.871094 126.410156 153 C 126.347656 152.113281 126.042969 151.734375 124.847656 151.066406 C 123.988281 150.585938 123.394531 149.714844 123.414062 148.964844 C 123.421875 148.765625 123.371094 148.5 123.308594 148.382812 C 123.179688 148.144531 123.273438 147.769531 123.457031 147.769531 C 123.589844 147.769531 123.640625 147.90625 123.75 148.550781 C 123.976562 149.917969 125.304688 148.179688 125.308594 146.511719 C 125.3125 145.558594 125.113281 145.273438 124.445312 145.273438 C 124.058594 145.273438 124.039062 145.253906 124.121094 144.933594 C 124.167969 144.742188 124.222656 144.476562 124.242188 144.339844 C 124.304688 143.925781 124.453125 143.355469 124.566406 143.089844 C 125.070312 141.925781 124.367188 139.785156 123.476562 139.785156 C 123.386719 139.785156 123.046875 139.648438 122.722656 139.480469 C 121.972656 139.101562 121.707031 139.003906 121.316406 138.964844 C 121.144531 138.945312 120.863281 138.898438 120.691406 138.855469 C 120.460938 138.800781 120.273438 138.875 119.972656 139.128906 M 101.960938 140.164062 C 101.960938 140.453125 101.695312 140.371094 101.519531 140.03125 L 101.320312 139.644531 L 101.640625 139.855469 C 101.816406 139.96875 101.960938 140.109375 101.960938 140.164062 M 92.207031 141.171875 C 92.636719 141.386719 93.015625 141.636719 93.050781 141.726562 C 93.105469 141.875 92.257812 142.867188 92.164062 142.761719 C 92.140625 142.738281 92.03125 142.535156 91.917969 142.3125 C 91.691406 141.863281 91.527344 141.816406 91.140625 142.089844 C 90.894531 142.261719 90.859375 142.238281 90.550781 141.667969 C 90.144531 140.921875 90.144531 140.9375 90.5625 140.871094 C 91.285156 140.761719 91.449219 140.792969 92.207031 141.171875 M 132.960938 141.683594 C 132.808594 141.757812 132.679688 141.921875 132.679688 142.050781 C 132.679688 142.179688 132.570312 142.378906 132.429688 142.496094 C 132.292969 142.613281 132.183594 142.78125 132.183594 142.871094 C 132.183594 142.957031 132.125 143.027344 132.054688 143.027344 C 131.988281 143.027344 131.933594 143.140625 131.933594 143.273438 C 131.933594 143.539062 131.578125 143.777344 131.019531 143.894531 C 130.699219 143.960938 130.6875 143.984375 130.851562 144.210938 C 131.03125 144.457031 131.039062 144.457031 131.710938 144.175781 C 132.085938 144.023438 132.695312 143.863281 133.066406 143.820312 C 133.4375 143.78125 133.875 143.664062 134.035156 143.566406 C 134.679688 143.164062 134.421875 143.585938 133.460938 144.519531 C 132.851562 145.109375 132.40625 145.652344 132.355469 145.859375 C 132.308594 146.054688 132.230469 146.265625 132.175781 146.335938 C 132.007812 146.554688 132.203125 147.15625 132.511719 147.355469 C 132.671875 147.460938 132.804688 147.65625 132.804688 147.789062 C 132.804688 147.921875 132.882812 148.152344 132.980469 148.304688 C 133.074219 148.457031 133.1875 148.914062 133.230469 149.324219 C 133.332031 150.222656 133.667969 150.714844 134.628906 151.351562 C 135.332031 151.816406 135.574219 152.253906 135.339844 152.625 C 135.058594 153.074219 134.429688 152.863281 134.429688 152.316406 C 134.429688 151.957031 134.632812 151.820312 134.871094 152.015625 C 135.089844 152.199219 134.976562 152.433594 134.71875 152.332031 C 134.605469 152.289062 134.554688 152.324219 134.585938 152.417969 C 134.6875 152.730469 135.179688 152.679688 135.179688 152.359375 C 135.179688 151.605469 134.394531 151.382812 134.078125 152.046875 C 133.730469 152.773438 134.308594 153.613281 135.046875 153.449219 C 136.234375 153.191406 136.363281 151.824219 135.292969 150.84375 C 134.558594 150.171875 134.28125 149.574219 134.339844 148.808594 C 134.382812 148.230469 134.527344 148.175781 134.621094 148.695312 C 134.734375 149.28125 134.964844 149.265625 135.421875 148.632812 C 136.0625 147.75 136.074219 146.640625 135.445312 146.546875 C 135.167969 146.503906 135.070312 146.105469 135.304688 145.960938 C 135.371094 145.917969 135.429688 145.789062 135.429688 145.671875 C 135.429688 145.558594 135.511719 145.304688 135.613281 145.109375 C 136.054688 144.265625 135.820312 142.40625 135.273438 142.40625 C 135.210938 142.40625 134.984375 142.273438 134.765625 142.109375 C 134.070312 141.59375 133.449219 141.449219 132.960938 141.683594 M 97.808594 142.007812 C 98.050781 142.316406 97.789062 142.488281 96.652344 142.773438 C 95.214844 143.136719 95.167969 143.128906 95.261719 142.5625 C 95.304688 142.304688 95.339844 142.003906 95.339844 141.898438 C 95.339844 141.613281 97.578125 141.710938 97.808594 142.007812 M 229.472656 146.003906 C 230.050781 146.472656 229.734375 147.621094 228.914062 148.015625 C 227.464844 148.71875 226.351562 148.007812 227.183594 146.910156 C 227.964844 145.882812 228.875 145.519531 229.472656 146.003906 M 242.667969 148.207031 C 243.488281 148.78125 243.25 150.769531 242.359375 150.765625 C 241.167969 150.757812 240.347656 149.117188 241.136719 148.328125 C 241.496094 147.96875 242.242188 147.910156 242.667969 148.207031 M -18.804688 0.527344 L -3.820312 0.527344 L -3.820312 15.5 L -18.804688 15.5 Z M 303.398438 0.527344 L 318.386719 0.527344 L 318.386719 15.5 L 303.398438 15.5 Z M 303.398438 0.527344 "/>
<path style=" stroke:none;fill-rule:nonzero;fill:rgb(1.568627%,29.803922%,42.352941%);fill-opacity:1;" d="M 2.589844 170.804688 C 0.546875 170.804688 0.0898438 172.515625 -1.09375 173.699219 C -4 176.605469 -3.199219 183.808594 -3.199219 189.472656 C -3.199219 190.917969 -2.644531 194.96875 -3.460938 195.785156 C -4.347656 196.667969 -2.878906 200.140625 -3.460938 201.304688 C -4.4375 203.253906 -4.25 206.371094 -4.25 208.667969 C -4.25 209.210938 -3.90625 211.738281 -4.25 212.085938 C -5.535156 213.367188 -4.027344 217.90625 -5.304688 219.183594 C -5.832031 219.710938 -4.777344 221.8125 -5.304688 222.339844 C -6.421875 223.457031 -6.09375 228.390625 -6.09375 230.492188 C -6.09375 236.9375 -6.355469 243.921875 -6.355469 250.734375 C -6.355469 254.472656 -6.09375 258.484375 -6.09375 262.042969 C -6.09375 263.710938 -6.546875 266.390625 -5.832031 267.828125 C -5.261719 268.960938 -5.832031 271.773438 -5.832031 273.085938 C -5.832031 277.773438 -7.21875 286.085938 -5.304688 289.910156 C -4.707031 291.105469 -5.898438 293.191406 -5.304688 294.382812 C -4.496094 295.996094 -5.832031 298.582031 -5.039062 300.167969 C -4.28125 301.683594 -4.25 304.3125 -4.25 306.214844 C -4.25 307.570312 -4.480469 312.035156 -3.726562 312.789062 C -2.683594 313.832031 -0.242188 312.816406 1.273438 313.574219 C 3.976562 314.925781 9.433594 314.101562 12.589844 314.101562 C 20.136719 314.101562 26.644531 314.628906 34.167969 314.628906 C 35.878906 314.628906 40.398438 315.851562 42.324219 314.890625 C 45.492188 313.308594 50.6875 313.574219 54.691406 313.574219 C 57.679688 313.574219 64.382812 312.742188 66.007812 314.363281 C 66.988281 315.347656 71.46875 313.9375 72.847656 314.628906 C 74.863281 315.632812 78.0625 314.472656 79.953125 315.417969 C 81.984375 316.429688 85.113281 315.367188 87.320312 316.46875 C 90.535156 318.074219 95.933594 315.90625 99.164062 317.519531 C 100.402344 318.136719 103.554688 317.519531 104.953125 317.519531 C 108.753906 317.519531 113.140625 317.78125 117.320312 317.78125 C 130.894531 317.78125 145.007812 318.308594 158.894531 318.308594 C 165.304688 318.308594 173.761719 319.492188 179.683594 317.519531 C 181.953125 316.761719 184.925781 318.054688 187.050781 316.996094 C 189.703125 315.667969 194.859375 317.34375 196.789062 315.417969 C 198.304688 313.902344 203.300781 315.84375 205.207031 314.890625 C 209.890625 312.550781 215.886719 314.8125 220.472656 312.523438 C 222.550781 311.484375 226.882812 313.214844 228.363281 311.734375 C 229.722656 310.378906 234.636719 312.566406 235.996094 311.210938 C 236.371094 310.835938 239.09375 311.210938 239.679688 311.210938 C 243.371094 311.210938 247.207031 311.472656 250.730469 311.472656 C 252.460938 311.472656 258.183594 311.554688 259.152344 312.523438 C 259.753906 313.125 262.746094 312.347656 263.625 312.789062 C 265.242188 313.597656 269.40625 312.789062 271.257812 312.789062 C 277.15625 312.789062 283.464844 312.789062 289.414062 312.789062 C 291.402344 312.789062 297.988281 311.886719 299.148438 313.050781 C 299.921875 313.820312 302.777344 313.105469 303.097656 312.789062 C 304.574219 311.3125 304.148438 305.464844 304.148438 302.796875 C 304.148438 296.203125 303.359375 289.675781 303.359375 282.289062 C 303.359375 280.375 302.523438 276.074219 303.359375 274.398438 C 303.714844 273.691406 303.148438 271.191406 303.621094 270.71875 C 304.144531 270.199219 304.148438 267.78125 304.148438 266.773438 C 304.148438 263.324219 304.675781 260.070312 304.675781 257.046875 C 304.675781 255.136719 304.121094 251.582031 304.9375 249.949219 C 306.453125 246.921875 305.992188 240.539062 305.992188 237.0625 C 305.992188 236.226562 305.457031 232.339844 305.992188 231.804688 C 306.628906 231.167969 305.804688 229.808594 306.253906 228.914062 C 308.007812 225.40625 305.992188 219.273438 305.992188 215.503906 C 305.992188 199.480469 303.886719 183.964844 303.886719 168.175781 "/>
</g>
</svg>
