<svg xmlns="http://www.w3.org/2000/svg" viewBox="950.459 0 400.5747406542056 233.33" version="1.1" id="splitsvg" style="max-height: 500px" width="400.5747406542056" height="233.33">
  <defs/>
  <path transform="translate(950,0)" fill-rule="evenodd" fill="#044c6c" stroke="none" d="M370.256 116.797 C 366.671 124.486,366.540 127.946,369.631 133.306 C 372.327 137.983,372.285 139.522,369.295 145.667 C 366.207 152.010,365.985 153.310,366.601 161.401 C 367.137 168.435,366.763 170.277,363.590 176.250 C 362.713 177.900,361.951 179.419,361.897 179.625 C 361.760 180.140,361.580 180.095,361.326 179.482 C 361.208 179.197,360.738 178.353,360.282 177.607 C 357.180 172.530,357.058 168.445,359.752 159.976 C 361.835 153.431,361.947 150.704,360.274 147.380 C 359.073 144.996,355.962 141.584,356.677 143.435 C 358.572 148.344,357.764 154.034,354.255 160.491 C 351.174 166.160,351.320 168.445,355.148 174.431 C 357.096 177.477,358.220 179.651,358.589 181.083 C 358.983 182.616,358.828 187.896,358.418 186.917 C 357.710 185.228,355.729 182.332,353.745 180.083 C 351.404 177.430,351.379 177.342,352.250 174.739 C 353.674 170.481,352.224 167.746,346.333 163.578 C 340.946 159.766,339.084 156.514,338.989 150.750 C 338.979 150.120,338.946 150.166,338.389 151.580 C 335.739 158.313,336.624 160.904,343.524 166.622 C 349.323 171.428,350.081 173.041,349.251 178.804 C 348.522 183.869,349.384 186.045,352.535 187.095 C 354.476 187.741,355.070 188.621,355.283 191.159 L 355.378 192.290 354.231 192.406 C 346.618 193.181,342.142 195.818,337.093 202.502 C 335.084 205.161,332.589 207.762,331.593 208.234 C 330.908 208.559,330.793 208.554,328.167 208.081 C 326.066 207.703,325.071 208.046,323.148 209.810 C 321.520 211.303,320.760 211.387,317.785 210.399 C 316.302 209.907,316.322 209.983,317.226 208.250 C 318.025 206.721,319.790 205.069,322.550 203.269 C 325.555 201.309,326.003 200.714,325.998 198.683 C 325.988 194.949,319.933 195.652,317.225 199.703 C 316.637 200.582,316.626 200.571,316.409 198.911 C 316.237 197.589,316.706 196.141,318.533 192.362 C 321.915 185.362,322.171 182.506,319.639 180.050 C 315.117 175.663,308.673 183.554,308.668 193.484 L 308.667 195.217 307.676 194.273 C 305.355 192.059,302.237 191.670,300.858 193.423 C 299.960 194.564,300.307 195.383,302.835 198.083 C 307.243 202.794,311.207 208.769,310.331 209.383 C 310.149 209.511,309.627 210.146,309.171 210.795 C 307.892 212.616,307.543 212.573,305.893 210.393 C 302.401 205.782,297.350 205.428,294.985 209.629 C 294.178 211.062,293.669 210.824,292.893 208.649 C 292.156 206.585,291.860 206.203,289.812 204.676 C 286.950 202.542,285.796 202.200,284.083 202.976 C 283.029 203.453,282.611 203.510,282.100 203.244 C 280.306 202.314,276.806 205.092,277.494 206.901 C 277.734 207.532,277.919 207.575,280.917 207.685 C 284.958 207.833,286.645 208.594,287.125 210.484 C 287.368 211.444,287.106 211.516,285.471 210.937 L 284.178 210.479 283.446 210.803 C 282.109 211.395,281.287 212.894,281.305 214.710 C 281.320 216.375,280.298 216.665,274.397 216.666 C 272.980 216.666,271.067 216.799,269.583 217.000 C 267.230 217.319,264.833 217.439,264.833 217.239 C 264.833 217.020,265.253 216.374,265.774 215.791 C 266.841 214.598,266.312 213.549,264.083 212.438 C 262.781 211.789,260.545 211.000,260.007 211.000 C 259.222 211.000,259.454 210.056,260.489 209.030 C 260.989 208.535,261.167 208.225,261.167 207.847 C 261.167 206.751,259.041 205.167,257.570 205.167 C 256.242 205.167,256.537 203.931,258.240 202.361 C 258.901 201.751,259.594 201.373,262.238 200.178 C 264.848 198.999,266.326 196.936,266.466 194.278 C 266.541 192.852,266.351 191.939,265.228 188.333 C 264.612 186.357,264.500 183.934,264.968 182.708 L 265.301 181.833 264.826 182.114 C 263.272 183.032,262.815 185.171,263.515 188.250 C 264.705 193.486,263.791 195.907,259.621 198.562 C 257.361 200.001,257.403 199.989,257.275 199.217 C 257.083 198.057,257.156 197.706,257.750 196.929 C 258.071 196.510,258.596 195.823,258.917 195.404 C 259.749 194.316,259.730 193.325,258.833 190.937 C 257.773 188.114,257.953 186.985,259.834 184.667 C 260.965 183.272,261.370 182.363,261.357 181.248 C 261.346 180.377,261.254 180.085,260.101 177.293 C 259.388 175.566,259.174 174.257,259.274 172.237 L 259.348 170.750 259.013 171.356 C 257.382 174.308,257.282 176.610,258.678 179.000 C 259.763 180.857,259.712 181.898,258.407 184.512 C 257.193 186.942,257.105 187.432,257.235 191.078 C 257.369 194.878,257.293 195.261,255.840 198.114 C 254.827 200.101,254.457 201.253,254.242 203.083 L 254.124 204.083 253.832 203.236 C 253.470 202.189,252.904 201.274,251.642 199.698 C 250.599 198.395,250.528 198.154,250.917 197.224 C 251.596 195.599,250.851 194.200,248.333 192.370 C 246.117 190.759,245.528 189.905,245.156 187.764 L 244.956 186.611 244.632 187.430 C 243.619 189.990,244.166 191.165,247.865 194.371 C 249.523 195.807,249.680 196.239,249.627 199.204 C 249.578 201.950,249.637 202.110,250.917 202.667 C 251.967 203.124,252.160 203.447,252.273 204.933 L 252.373 206.250 251.083 206.738 C 246.848 208.340,244.635 211.390,246.841 212.583 C 248.664 213.570,249.164 214.150,249.166 215.282 C 249.167 215.957,248.670 216.624,248.325 216.412 C 247.580 215.951,242.112 214.968,239.083 214.751 C 237.463 214.634,235.217 214.072,233.718 213.409 C 233.202 213.181,232.648 213.036,232.487 213.087 C 231.932 213.264,231.968 212.806,232.608 211.546 C 233.248 210.286,233.250 210.275,233.250 208.266 L 233.250 206.250 232.188 204.583 C 230.155 201.390,228.923 200.595,226.000 200.588 C 221.306 200.576,219.634 202.824,223.028 204.583 C 226.596 206.432,227.338 207.943,226.041 210.716 L 225.539 211.787 224.696 211.868 C 223.691 211.965,223.095 212.321,222.637 213.096 C 222.156 213.912,221.564 213.868,220.007 212.899 C 217.258 211.188,215.901 211.230,214.047 213.084 C 212.495 214.636,211.809 214.463,211.582 212.460 C 211.414 210.981,211.136 210.411,210.399 210.033 L 209.772 209.711 210.622 208.812 C 211.136 208.270,212.173 207.497,213.242 206.862 C 216.565 204.886,217.498 203.853,217.502 202.141 C 217.505 200.971,217.643 200.500,217.983 200.500 C 218.554 200.500,220.163 199.316,220.596 198.577 C 221.165 197.606,221.106 196.904,220.458 196.948 C 220.036 196.977,220.000 196.931,220.000 196.369 C 220.000 195.382,219.407 196.151,219.033 197.621 C 218.758 198.705,218.318 199.500,217.993 199.500 C 217.926 199.500,218.087 198.881,218.350 198.125 C 218.833 196.738,219.005 195.000,218.659 195.000 C 217.692 195.000,216.341 198.439,216.361 200.847 C 216.372 202.076,216.143 202.650,215.340 203.414 C 214.396 204.311,214.163 203.040,215.000 201.558 C 215.752 200.225,215.623 199.329,214.760 199.895 C 214.397 200.133,214.362 200.128,214.283 199.826 C 214.167 199.382,213.925 199.417,213.700 199.910 C 213.488 200.375,213.614 203.559,213.864 204.045 C 213.985 204.280,213.909 204.398,213.491 204.628 C 212.783 205.018,211.542 205.926,210.497 206.820 L 209.635 207.557 210.643 205.548 C 211.196 204.443,211.805 203.024,211.996 202.395 C 212.645 200.248,213.372 199.048,215.403 196.769 C 218.086 193.758,218.205 193.479,218.341 189.917 C 218.401 188.358,218.536 186.872,218.641 186.614 C 218.838 186.132,218.905 185.167,218.742 185.167 C 217.638 185.167,217.107 186.446,216.746 189.972 C 216.467 192.697,216.388 192.949,215.919 192.606 C 215.611 192.381,215.615 192.347,216.051 191.375 C 216.301 190.819,216.500 190.074,216.500 189.697 C 216.500 188.487,216.060 188.670,215.495 190.115 L 215.182 190.917 215.170 190.000 C 215.150 188.418,214.828 187.513,214.283 187.503 C 214.090 187.499,213.667 188.582,213.667 189.078 C 213.667 189.601,213.526 189.603,212.530 189.099 C 211.298 188.474,210.762 189.055,211.645 190.059 C 211.989 190.451,213.054 191.000,213.470 191.000 C 213.694 191.000,213.940 191.309,214.301 192.043 C 214.584 192.617,215.040 193.303,215.316 193.567 L 215.817 194.047 215.339 194.741 C 215.076 195.124,214.369 196.016,213.766 196.724 C 213.164 197.433,212.584 198.177,212.476 198.378 C 212.286 198.733,212.278 198.734,212.152 198.413 C 211.938 197.864,211.972 197.758,212.750 196.574 C 213.691 195.141,213.635 194.207,212.660 195.089 C 212.338 195.381,212.334 195.373,212.423 194.651 C 212.610 193.145,211.898 193.120,211.331 194.614 C 210.813 195.978,210.795 197.953,211.292 199.048 C 211.570 199.662,211.617 199.943,211.493 200.267 C 211.405 200.499,211.333 200.881,211.333 201.117 C 211.333 201.523,211.309 201.511,210.895 200.898 C 210.654 200.542,210.231 199.991,209.954 199.675 C 208.538 198.054,208.396 196.682,209.476 195.034 C 210.734 193.115,211.212 191.587,210.660 191.246 C 210.464 191.125,209.430 192.181,209.065 192.875 C 208.507 193.938,208.574 191.978,209.165 189.917 C 209.829 187.605,209.138 186.609,208.321 188.699 L 208.051 189.388 207.942 188.704 C 207.808 187.868,207.610 187.723,207.076 188.073 C 206.418 188.504,206.557 190.076,207.328 190.917 C 207.649 191.267,207.643 197.333,207.321 197.333 C 206.768 197.333,206.167 195.600,206.167 194.007 C 206.167 192.392,205.912 191.922,205.345 192.489 C 205.027 192.807,204.980 193.006,205.028 193.840 C 205.106 195.209,204.811 194.797,204.679 193.351 C 204.526 191.687,203.982 191.429,203.759 192.915 C 203.527 194.462,204.679 196.604,206.696 198.378 C 210.054 201.330,210.622 202.689,209.600 205.322 C 208.984 206.909,208.840 206.815,208.836 204.822 C 208.829 201.515,208.082 200.114,204.214 196.154 C 201.966 193.853,202.036 193.960,202.481 193.482 C 203.338 192.562,203.896 189.987,203.377 189.345 C 202.935 188.801,202.713 189.004,202.472 190.173 C 202.262 191.187,202.000 191.505,202.000 190.745 C 202.000 190.127,201.540 189.126,201.294 189.207 C 200.793 189.371,201.047 191.229,201.665 191.917 C 201.884 192.161,201.926 192.350,201.821 192.625 C 201.604 193.191,201.405 193.084,200.940 192.151 C 200.503 191.274,200.366 190.718,199.908 187.967 C 199.641 186.361,199.393 185.878,198.928 186.056 C 198.571 186.193,198.448 187.147,198.634 188.354 C 198.723 188.939,198.760 189.454,198.715 189.500 C 198.515 189.705,197.672 188.370,197.342 187.324 C 196.938 186.043,196.724 185.802,196.391 186.256 C 195.641 187.282,197.401 190.667,198.684 190.667 C 199.053 190.667,199.171 190.857,199.823 192.513 C 200.745 194.852,201.091 195.352,202.844 196.880 C 206.354 199.941,208.446 204.016,207.922 206.774 L 207.800 207.417 207.539 206.750 C 206.839 204.960,203.882 201.767,202.555 201.370 C 201.280 200.987,201.087 200.319,201.671 198.302 C 201.832 197.744,201.852 197.338,201.740 196.885 C 201.544 196.090,201.154 196.057,200.957 196.819 L 200.809 197.389 200.395 196.694 C 199.577 195.322,199.308 195.788,199.900 197.555 C 200.470 199.258,200.519 199.563,200.315 200.146 C 200.020 200.993,199.670 200.568,198.662 198.139 C 198.070 196.713,197.644 195.901,197.468 195.867 C 197.097 195.796,196.949 196.347,197.180 196.936 C 197.890 198.743,197.654 199.170,196.682 197.835 C 195.832 196.668,195.666 196.606,195.669 197.458 C 195.672 198.517,196.608 199.985,197.680 200.612 C 198.177 200.902,198.906 201.352,199.300 201.612 C 199.694 201.871,200.338 202.293,200.731 202.549 C 201.229 202.873,201.769 203.050,202.514 203.132 C 203.866 203.281,203.960 203.631,202.750 204.013 C 202.112 204.214,201.904 204.364,201.862 204.651 C 201.744 205.457,202.697 205.700,204.061 205.211 L 204.873 204.920 205.353 205.495 C 205.824 206.059,207.393 209.071,207.582 209.774 C 207.801 210.591,205.474 210.896,203.345 210.329 C 200.762 209.643,199.624 210.104,199.597 211.849 L 199.583 212.750 198.083 212.847 C 197.176 212.905,196.371 213.055,196.046 213.224 L 195.509 213.504 195.187 212.873 C 194.665 211.850,194.606 210.878,194.925 208.593 C 195.360 205.484,194.595 203.667,192.854 203.667 C 192.409 203.667,192.000 203.229,192.000 202.753 C 192.000 201.617,190.429 201.210,189.064 201.992 C 186.993 203.180,185.920 205.113,185.594 208.238 C 185.367 210.423,185.260 210.690,184.453 211.108 C 183.755 211.469,183.288 211.282,182.746 210.425 C 181.100 207.820,176.661 209.061,174.501 212.729 C 173.122 215.071,171.956 215.117,168.799 212.957 C 166.247 211.211,165.495 211.164,162.695 212.578 C 159.173 214.357,157.766 213.926,156.757 210.759 C 156.188 208.969,155.641 208.293,154.451 207.907 C 152.817 207.376,152.451 206.733,153.516 206.263 C 156.203 205.078,155.643 200.952,152.587 199.417 C 152.222 199.233,151.639 198.884,151.292 198.641 C 150.499 198.085,149.623 197.885,147.000 197.663 C 143.544 197.370,141.887 196.789,139.886 195.170 C 138.615 194.142,138.189 193.542,138.619 193.388 C 139.479 193.081,139.427 192.997,137.127 190.983 C 136.811 190.707,136.588 190.256,136.404 189.523 L 136.138 188.462 136.676 187.907 L 137.214 187.352 137.741 187.754 C 139.671 189.226,142.901 188.140,144.555 185.462 L 144.836 185.007 144.377 185.197 C 144.109 185.307,142.860 185.393,141.385 185.402 L 138.853 185.417 139.189 184.917 C 139.373 184.642,139.712 184.022,139.942 183.540 L 140.360 182.663 140.831 182.998 C 141.763 183.662,142.521 183.438,144.750 181.839 C 145.483 181.313,146.260 180.790,146.476 180.676 C 147.027 180.386,146.765 180.204,145.381 179.915 C 144.023 179.632,142.820 179.778,141.865 180.342 C 141.082 180.804,141.080 180.781,141.764 178.816 C 142.598 176.419,142.532 176.510,143.286 176.711 C 143.923 176.881,144.286 176.812,147.500 175.916 C 148.004 175.775,149.076 175.613,149.882 175.555 C 151.535 175.436,151.698 175.232,150.685 174.549 C 149.165 173.525,145.639 173.602,143.865 174.699 L 143.294 175.051 143.505 174.651 C 144.206 173.320,144.677 172.833,145.265 172.833 C 146.800 172.833,150.118 170.248,151.444 168.019 L 151.880 167.288 151.231 167.402 C 147.569 168.050,144.167 170.236,144.167 171.940 C 144.167 172.098,143.848 172.717,143.458 173.315 L 142.750 174.404 142.641 173.188 C 142.489 171.492,140.676 168.046,140.664 169.429 C 140.656 170.390,139.969 171.030,138.870 171.103 C 138.294 171.141,137.450 171.314,136.995 171.487 C 136.539 171.660,136.167 171.768,136.167 171.727 C 136.167 171.446,137.447 169.840,137.943 169.500 C 139.310 168.562,139.910 166.332,139.644 163.176 C 139.403 160.316,139.357 160.270,138.327 161.863 C 136.979 163.949,136.050 168.014,136.660 169.155 C 136.810 169.434,135.743 171.335,135.438 171.333 C 135.426 171.333,135.413 170.677,135.408 169.875 C 135.391 167.192,133.678 164.167,132.176 164.167 C 131.890 164.167,131.903 164.272,132.354 165.675 C 132.632 166.541,132.912 167.907,133.010 168.883 C 133.221 170.971,133.395 171.655,133.867 172.255 L 134.234 172.721 133.325 173.535 C 132.825 173.982,132.069 174.645,131.644 175.007 L 130.872 175.665 130.952 174.624 C 131.080 172.975,129.335 169.315,128.988 170.504 C 127.888 174.272,127.836 175.733,128.771 176.614 L 129.346 177.156 128.299 178.432 L 127.252 179.708 127.140 179.062 C 127.078 178.707,126.721 177.753,126.347 176.942 C 125.543 175.199,125.532 175.076,126.113 174.469 C 126.669 173.889,126.628 173.851,125.226 173.646 C 123.867 173.447,122.687 173.569,121.683 174.013 C 120.743 174.428,120.745 174.431,121.298 173.068 C 121.556 172.435,121.945 171.382,122.164 170.729 L 122.561 169.542 123.072 169.854 C 124.628 170.803,126.640 169.753,127.423 167.583 C 127.589 167.125,127.795 166.656,127.882 166.542 C 128.647 165.536,124.834 166.866,123.541 168.056 C 123.008 168.546,122.817 168.652,122.890 168.417 C 122.947 168.233,123.070 167.684,123.162 167.195 C 123.254 166.706,123.494 166.076,123.694 165.795 C 124.665 164.432,124.132 161.418,122.408 158.519 L 121.586 157.137 121.335 157.694 C 120.618 159.280,121.152 164.403,122.167 165.683 L 122.642 166.283 122.384 167.306 C 122.114 168.381,121.930 168.487,121.751 167.673 C 121.338 165.790,118.347 163.015,116.718 163.004 C 115.979 162.999,115.927 163.202,116.523 163.766 C 117.258 164.462,118.337 166.036,119.183 167.646 C 119.642 168.520,120.192 169.286,120.654 169.693 L 121.392 170.344 120.446 172.284 C 119.926 173.351,119.500 174.111,119.500 173.972 C 119.500 172.922,117.957 170.963,116.586 170.273 C 115.539 169.746,115.584 169.580,116.061 172.207 C 116.598 175.167,116.932 175.776,118.187 176.085 L 118.623 176.192 118.228 177.436 C 118.011 178.120,117.833 178.789,117.833 178.923 C 117.833 179.321,117.609 179.202,117.183 178.577 C 116.963 178.254,116.350 177.614,115.819 177.155 C 115.289 176.695,114.627 175.975,114.348 175.553 C 113.712 174.593,113.587 174.804,113.592 176.833 C 113.598 179.381,115.236 181.643,117.088 181.663 C 117.391 181.666,117.448 181.838,117.628 183.292 C 117.738 184.185,117.880 185.099,117.942 185.323 L 118.055 185.729 117.535 185.358 C 116.474 184.603,115.587 184.336,113.774 184.225 L 112.016 184.117 112.194 184.696 C 112.931 187.099,115.674 188.796,118.252 188.442 L 118.977 188.343 119.595 189.463 C 119.935 190.079,120.325 190.713,120.462 190.871 C 120.714 191.162,120.249 191.500,119.598 191.500 C 119.481 191.500,118.768 191.946,118.014 192.490 C 117.260 193.035,116.560 193.508,116.458 193.542 C 115.839 193.748,117.419 194.579,118.773 194.758 L 119.629 194.871 119.698 195.821 C 119.736 196.343,119.926 197.075,120.120 197.448 L 120.473 198.125 119.780 197.969 C 117.930 197.554,115.564 199.140,115.249 201.006 L 115.137 201.667 112.178 201.667 C 110.550 201.667,108.536 201.618,107.702 201.559 L 106.186 201.451 106.588 200.657 C 106.809 200.221,107.528 199.200,108.185 198.390 C 112.050 193.625,110.500 189.668,105.610 191.813 C 102.358 193.240,101.187 192.837,99.076 189.565 C 98.592 188.814,97.927 187.902,97.600 187.540 C 96.809 186.664,97.287 186.294,101.393 184.597 C 105.889 182.739,106.342 182.111,105.345 179.118 C 104.348 176.126,104.779 173.599,106.594 171.792 L 107.222 171.167 106.319 171.168 C 103.295 171.171,102.088 172.631,101.664 176.802 C 101.307 180.327,100.788 181.290,98.037 183.538 L 96.785 184.561 96.901 183.906 C 97.134 182.596,98.090 180.908,99.380 179.529 C 102.119 176.600,102.171 174.719,99.609 171.277 C 98.193 169.373,97.825 168.393,97.709 166.213 C 97.611 164.347,97.557 164.303,96.811 165.478 C 95.146 168.104,95.038 171.706,96.529 174.933 C 97.311 176.624,97.265 177.329,96.167 180.500 C 95.348 182.862,95.271 183.213,95.261 184.598 C 95.252 185.901,95.213 186.103,94.984 186.044 C 94.837 186.006,94.444 186.089,94.110 186.228 C 93.509 186.479,93.501 186.477,93.396 186.060 C 93.194 185.254,93.454 183.663,93.934 182.773 C 95.481 179.907,95.809 178.860,95.599 177.463 C 95.390 176.073,94.639 175.195,92.922 174.333 C 91.220 173.479,90.667 172.757,90.667 171.390 C 90.667 170.432,90.450 170.477,89.934 171.542 C 88.675 174.140,88.712 175.885,90.064 177.807 C 91.022 179.166,91.096 179.634,90.653 181.520 C 90.089 183.921,90.508 185.725,91.917 186.965 C 92.506 187.484,92.598 187.646,92.482 187.959 C 92.406 188.165,92.225 188.990,92.079 189.792 C 91.847 191.071,91.219 193.333,91.095 193.333 C 91.071 193.333,90.796 193.204,90.484 193.047 C 88.795 192.193,86.740 193.010,85.669 194.960 C 85.027 196.128,85.082 196.118,81.467 195.685 C 77.144 195.166,77.386 195.227,77.370 194.661 C 77.310 192.574,74.033 191.880,71.148 193.344 C 69.250 194.308,69.111 202.339,70.905 207.317 L 71.170 208.050 67.876 207.949 C 62.605 207.787,61.836 207.568,61.282 206.066 C 60.703 204.496,60.528 204.416,57.703 204.424 C 54.125 204.435,52.623 204.960,51.250 206.679 C 50.600 207.492,49.698 208.000,48.902 208.000 C 48.313 208.000,41.324 206.857,41.190 206.738 C 41.157 206.709,41.329 205.987,41.573 205.134 C 42.529 201.785,44.248 199.716,48.750 196.496 C 55.236 191.857,56.781 189.735,56.935 185.257 C 57.057 181.689,57.093 181.500,57.651 181.500 C 58.828 181.500,62.066 178.689,62.926 176.920 C 64.042 174.624,63.586 172.125,62.225 173.078 C 61.882 173.318,61.873 173.299,61.759 172.144 C 61.602 170.547,61.542 170.411,61.150 170.765 C 60.538 171.319,59.500 175.049,59.500 176.695 C 59.500 177.300,57.973 179.362,57.716 179.105 C 57.680 179.069,57.960 177.906,58.338 176.522 C 59.186 173.420,59.452 171.657,59.338 169.889 C 59.236 168.312,59.168 168.191,58.614 168.609 C 56.615 170.114,54.667 176.659,54.667 181.868 C 54.667 185.520,54.176 186.940,52.239 188.887 L 51.605 189.524 51.346 189.054 C 50.729 187.934,50.975 186.144,52.057 183.882 C 52.592 182.763,53.067 181.563,53.112 181.216 C 53.312 179.685,52.426 179.168,51.423 180.232 L 50.890 180.797 50.737 180.122 C 50.247 177.965,48.987 180.036,49.247 182.571 C 49.377 183.842,49.379 183.990,49.304 186.750 C 49.259 188.409,49.296 188.681,49.685 189.610 L 50.116 190.636 48.600 191.684 C 47.606 192.371,46.174 193.655,44.445 195.408 C 42.190 197.694,41.847 197.986,42.085 197.417 C 44.787 190.952,45.656 188.540,46.406 185.414 C 47.690 180.069,48.530 178.404,52.969 172.420 C 57.937 165.723,58.511 164.110,58.491 156.917 C 58.476 151.804,58.580 150.466,59.170 148.155 C 59.823 145.597,59.563 144.621,58.396 145.250 C 56.751 146.135,55.698 149.878,55.418 155.833 C 55.302 158.296,54.921 161.710,54.647 162.734 L 54.473 163.385 53.822 162.733 L 53.170 162.082 53.643 160.916 C 54.889 157.842,55.318 155.491,54.853 154.292 C 54.355 153.008,53.020 155.408,52.579 158.383 C 52.381 159.712,52.306 159.181,52.178 155.553 C 52.077 152.667,52.004 151.977,51.745 151.453 C 50.876 149.697,49.619 151.156,49.385 154.192 C 49.265 155.750,49.403 155.721,47.573 154.572 C 45.227 153.099,44.362 153.274,44.825 155.126 C 45.282 156.952,46.447 158.088,48.622 158.826 L 49.882 159.253 50.242 160.502 C 50.719 162.151,51.657 163.902,52.674 165.044 C 53.825 166.335,53.940 166.021,50.335 171.417 C 48.987 173.433,47.632 175.513,47.322 176.038 C 46.677 177.133,46.519 177.088,46.383 175.770 C 46.268 174.654,46.440 174.198,47.878 171.799 C 49.587 168.948,49.135 166.583,47.288 168.716 L 46.826 169.250 46.949 168.750 C 47.704 165.682,46.479 163.366,45.451 165.917 C 43.856 169.873,43.701 175.436,45.088 178.917 L 45.487 179.917 45.160 181.155 C 44.980 181.837,44.832 182.699,44.830 183.072 L 44.826 183.750 44.279 182.750 C 43.978 182.200,43.227 180.986,42.610 180.052 C 41.149 177.839,40.589 176.574,40.176 174.546 C 39.562 171.534,39.514 171.714,42.250 166.750 C 43.980 163.610,44.642 160.077,43.621 159.433 C 43.034 159.063,41.038 161.644,40.155 163.917 C 39.616 165.305,39.506 165.368,39.603 164.232 C 39.906 160.676,40.328 158.086,41.241 154.195 C 41.736 152.085,41.665 151.391,40.903 150.892 C 40.128 150.385,39.748 150.901,38.989 153.494 L 38.525 155.083 38.511 154.083 C 38.476 151.403,37.391 150.571,36.212 152.321 C 35.284 153.697,36.004 157.686,37.440 159.121 C 37.849 159.531,37.849 159.532,37.675 161.391 C 37.580 162.413,37.498 165.725,37.494 168.750 L 37.486 174.250 36.839 173.534 C 35.377 171.917,34.785 169.390,34.861 165.077 C 34.904 162.638,34.888 162.480,34.552 162.144 C 33.345 160.938,32.142 163.806,32.638 166.703 C 32.856 167.972,32.813 168.251,32.490 167.649 C 32.372 167.427,32.240 166.170,32.175 164.633 C 32.056 161.818,31.826 161.083,31.066 161.083 C 30.196 161.083,29.918 165.506,30.643 167.827 C 31.672 171.123,35.748 177.086,37.791 178.283 C 38.384 178.630,38.638 178.949,39.173 180.013 C 39.534 180.731,40.315 182.104,40.909 183.065 C 42.784 186.098,43.072 187.714,42.249 190.591 C 41.879 191.883,40.819 195.257,40.550 196.000 C 40.316 196.643,40.129 194.927,40.003 191.000 C 39.752 183.148,38.657 180.512,32.422 172.750 C 29.687 169.345,27.948 167.098,27.435 166.306 C 27.152 165.869,27.156 165.850,27.726 165.103 C 28.976 163.466,30.330 158.446,30.105 156.288 C 29.939 154.700,29.015 153.580,28.388 154.207 C 28.174 154.422,27.381 158.100,27.319 159.167 C 27.306 159.396,27.155 158.738,26.983 157.706 C 26.350 153.901,25.000 152.993,25.000 156.373 C 25.000 158.207,25.369 159.720,26.120 160.961 L 26.697 161.917 26.424 162.792 C 26.078 163.895,25.977 163.887,25.418 162.708 C 24.250 160.242,23.784 158.339,23.257 153.892 C 22.565 148.057,22.263 146.982,21.286 146.865 C 20.392 146.758,20.275 147.281,20.388 150.881 C 20.443 152.642,20.555 154.399,20.637 154.785 C 20.777 155.442,20.766 155.476,20.471 155.318 C 19.533 154.816,18.681 153.094,17.922 150.162 C 17.118 147.059,16.674 146.388,16.079 147.373 C 14.394 150.159,18.017 158.167,20.963 158.167 C 21.243 158.167,21.361 158.320,21.507 158.875 C 23.548 166.626,24.616 168.733,28.582 172.840 C 35.095 179.583,38.968 188.959,38.409 196.633 L 38.279 198.417 38.050 197.583 C 36.675 192.582,31.604 185.407,28.250 183.718 C 25.368 182.266,24.944 180.981,26.088 177.167 C 26.722 175.053,26.785 173.949,26.352 172.524 C 25.756 170.560,25.207 170.583,24.930 172.583 C 24.724 174.069,24.691 174.073,23.985 172.703 C 22.098 169.040,21.564 170.312,23.022 175.000 C 23.856 177.682,24.042 180.484,23.448 181.392 C 22.776 182.418,22.400 181.710,20.342 175.549 C 18.665 170.527,18.552 170.250,18.166 170.250 C 17.229 170.250,17.114 172.031,17.909 174.250 C 18.938 177.124,18.310 178.365,17.080 175.887 C 15.421 172.542,14.397 171.841,14.537 174.147 C 14.741 177.499,16.732 180.817,19.505 182.426 C 20.233 182.848,21.563 183.899,22.670 184.927 C 25.190 187.267,26.149 187.728,28.953 187.943 C 30.015 188.025,30.333 188.106,30.333 188.297 C 30.333 188.725,29.187 189.659,28.530 189.766 C 26.884 190.033,26.132 190.838,26.471 191.970 C 26.987 193.690,29.300 193.886,31.284 192.378 C 32.298 191.607,32.700 191.977,34.317 195.167 C 36.556 199.587,38.697 206.168,37.894 206.166 C 37.815 206.166,37.112 206.054,36.333 205.917 C 27.733 204.402,25.907 204.577,6.167 208.805 L 0.083 210.108 0.041 221.721 L -0.002 233.333 199.999 233.333 L 400.000 233.333 400.000 215.828 C 400.000 201.976,399.957 198.307,399.792 198.247 C 399.677 198.205,399.073 198.100,398.448 198.013 C 396.212 197.703,395.648 197.084,395.230 194.483 C 394.706 191.228,392.909 189.390,390.070 189.204 C 387.603 189.042,386.668 189.963,387.019 192.207 C 387.268 193.802,387.127 196.605,386.761 197.311 C 386.300 198.204,386.029 198.232,381.413 197.875 C 376.423 197.488,376.343 197.461,375.070 195.739 C 373.947 194.221,373.241 193.755,372.266 193.889 C 371.746 193.960,371.226 193.873,370.320 193.563 C 369.640 193.331,368.337 192.994,367.425 192.815 C 365.466 192.430,365.705 192.601,365.489 191.435 L 365.313 190.482 366.282 189.136 C 368.535 186.004,371.013 184.223,375.750 182.333 C 381.361 180.095,383.917 177.964,385.963 173.820 C 388.231 169.228,388.149 165.645,385.591 157.583 C 382.726 148.552,382.482 144.838,384.495 140.932 C 385.111 139.738,385.106 139.730,384.037 140.263 C 379.986 142.282,379.027 146.606,380.750 155.083 C 382.274 162.582,382.165 165.870,380.262 169.750 C 378.640 173.058,376.768 174.698,369.232 179.417 C 366.772 180.956,366.803 180.940,366.929 180.611 C 366.982 180.473,366.869 179.806,366.679 179.128 C 365.974 176.615,366.291 175.694,369.017 172.333 C 372.443 168.111,372.588 166.748,370.263 160.687 C 367.657 153.897,367.867 152.175,371.917 147.142 C 376.880 140.974,377.119 139.023,373.811 131.704 C 371.153 125.822,370.567 122.169,371.306 116.101 C 371.416 115.194,371.483 114.427,371.453 114.398 C 371.424 114.368,370.885 115.448,370.256 116.797 M136.819 173.725 C 137.707 174.080,138.417 174.068,139.265 173.683 L 139.946 173.374 140.232 173.895 C 140.574 174.519,141.211 175.015,141.844 175.151 L 142.306 175.250 141.575 176.833 C 141.173 177.704,140.686 178.792,140.492 179.250 L 140.139 180.083 139.809 179.258 C 139.330 178.059,138.435 176.924,137.359 176.153 L 136.417 175.477 136.366 176.322 C 136.339 176.786,136.301 177.166,136.283 177.166 C 136.265 177.166,135.725 176.980,135.083 176.753 C 134.363 176.498,133.545 176.339,132.946 176.337 L 131.976 176.333 133.769 174.423 L 135.562 172.513 135.846 172.981 C 136.003 173.239,136.440 173.573,136.819 173.725 M121.826 176.500 C 122.256 176.500,122.962 176.379,123.396 176.231 C 124.347 175.907,124.332 175.893,124.049 176.861 C 123.834 177.598,123.784 177.645,123.119 177.748 C 121.611 177.981,120.379 178.492,119.522 179.239 L 119.128 179.583 119.250 179.000 C 119.317 178.679,119.555 177.833,119.778 177.120 L 120.184 175.823 120.615 176.162 C 120.908 176.392,121.293 176.500,121.826 176.500 M132.004 178.502 C 132.368 178.688,133.003 178.886,133.416 178.942 C 133.829 178.999,134.167 179.070,134.167 179.100 C 134.167 179.147,133.653 180.312,133.563 180.470 C 133.546 180.499,132.931 180.394,132.196 180.236 C 130.880 179.953,129.846 180.012,128.773 180.429 C 128.308 180.610,128.693 179.954,129.906 178.498 L 130.896 177.311 131.119 177.738 C 131.242 177.973,131.641 178.317,132.004 178.502 M138.011 180.714 C 138.290 180.970,138.740 181.223,139.009 181.277 C 139.619 181.399,139.630 181.307,138.829 182.758 C 137.700 184.803,137.571 184.903,137.457 183.819 C 137.325 182.567,135.504 179.516,134.705 179.210 C 134.558 179.153,134.903 179.000,135.517 178.848 L 136.583 178.583 137.043 179.417 C 137.296 179.875,137.731 180.459,138.011 180.714 M125.964 181.685 C 126.682 181.915,125.813 182.833,124.878 182.833 C 124.371 182.833,123.679 182.916,123.341 183.017 C 122.781 183.185,122.625 183.150,121.572 182.617 C 120.449 182.048,120.431 182.029,120.917 181.927 C 122.288 181.638,123.169 181.284,123.740 180.790 L 124.369 180.246 125.059 180.931 C 125.439 181.308,125.846 181.648,125.964 181.685 M317.119 181.603 C 318.051 182.657,318.171 184.836,317.324 185.310 C 315.808 186.159,313.626 184.077,314.186 182.317 C 314.672 180.793,316.097 180.446,317.119 181.603 M119.875 181.831 C 120.123 181.833,120.168 182.003,120.178 182.958 C 120.185 183.577,120.248 184.233,120.320 184.416 C 120.444 184.735,119.948 185.667,119.653 185.667 C 119.508 185.667,119.056 183.730,118.918 182.520 C 118.819 181.646,118.826 181.626,119.200 181.726 C 119.411 181.783,119.715 181.830,119.875 181.831 M129.212 183.284 C 129.466 183.335,129.713 183.440,129.761 183.518 C 129.887 183.722,129.289 185.333,129.086 185.337 C 128.993 185.339,128.484 185.519,127.955 185.737 C 126.561 186.310,126.290 185.198,127.258 182.874 L 127.483 182.332 128.117 182.762 C 128.465 182.998,128.958 183.233,129.212 183.284 M133.669 183.302 C 133.670 183.457,133.853 183.903,134.076 184.293 C 134.432 184.914,134.443 184.981,134.169 184.834 C 133.996 184.742,133.532 184.666,133.136 184.666 C 132.144 184.664,131.323 183.348,132.302 183.327 C 132.457 183.324,132.770 183.218,132.998 183.092 C 133.469 182.832,133.666 182.893,133.669 183.302 M125.209 185.309 C 125.154 185.666,125.077 185.792,124.994 185.657 C 124.923 185.542,124.945 185.271,125.043 185.056 C 125.272 184.553,125.314 184.616,125.209 185.309 M160.207 185.123 C 159.852 185.423,159.664 185.732,159.665 186.013 C 159.666 186.253,159.489 186.609,159.262 186.822 C 159.039 187.031,158.894 187.297,158.938 187.413 C 158.983 187.529,158.902 187.668,158.760 187.723 C 158.617 187.778,158.500 188.006,158.500 188.230 C 158.500 188.806,157.628 189.500,156.904 189.500 C 156.304 189.500,156.279 189.532,156.434 190.110 C 156.602 190.736,157.150 190.705,158.467 189.994 C 159.141 189.631,159.818 189.331,159.971 189.328 C 160.125 189.325,160.396 189.213,160.574 189.078 C 160.751 188.943,161.134 188.833,161.423 188.833 C 161.729 188.833,162.255 188.628,162.677 188.345 C 163.362 187.885,163.667 187.830,163.667 188.166 C 163.667 188.247,163.179 188.812,162.583 189.423 C 161.987 190.034,161.500 190.596,161.500 190.672 C 161.500 190.748,161.348 190.859,161.163 190.918 C 160.778 191.040,159.913 192.599,159.980 193.052 C 160.004 193.217,159.939 193.456,159.836 193.581 C 159.377 194.133,160.101 195.547,160.917 195.693 C 161.144 195.734,161.268 195.909,161.306 196.246 C 161.337 196.517,161.538 196.902,161.753 197.101 C 161.968 197.300,162.229 197.790,162.332 198.190 C 162.733 199.737,163.059 200.356,163.851 201.068 C 164.555 201.700,166.249 202.667,166.654 202.667 C 166.872 202.667,167.833 203.812,167.833 204.071 C 167.833 204.881,166.529 205.338,165.929 204.738 C 165.361 204.170,165.786 203.190,166.501 203.417 C 166.973 203.567,166.862 204.088,166.363 204.069 C 166.103 204.060,166.014 204.129,166.076 204.291 C 166.126 204.421,166.167 204.559,166.167 204.597 C 166.167 204.773,166.980 204.641,167.149 204.438 C 167.545 203.960,166.726 202.833,165.983 202.833 C 165.100 202.833,164.651 203.733,164.982 204.839 C 165.683 207.177,168.981 206.152,168.800 203.653 C 168.714 202.465,168.306 201.959,166.711 201.067 C 165.565 200.427,164.771 199.261,164.799 198.261 C 164.807 197.993,164.743 197.642,164.657 197.482 C 164.487 197.165,164.609 196.667,164.856 196.667 C 165.035 196.667,165.101 196.845,165.245 197.708 C 165.548 199.534,167.322 197.215,167.330 194.984 C 167.334 193.713,167.069 193.333,166.176 193.333 C 165.661 193.333,165.635 193.305,165.742 192.875 C 165.805 192.623,165.879 192.267,165.906 192.083 C 165.987 191.530,166.184 190.770,166.337 190.417 C 167.011 188.860,166.069 186.000,164.883 186.000 C 164.763 186.000,164.309 185.818,163.874 185.596 C 162.877 185.088,162.522 184.956,162.000 184.903 C 161.771 184.880,161.396 184.816,161.167 184.761 C 160.860 184.688,160.607 184.783,160.207 185.123 M136.167 186.509 C 136.167 186.891,135.816 186.783,135.581 186.329 L 135.314 185.813 135.741 186.092 C 135.975 186.246,136.167 186.434,136.167 186.509 M123.153 187.853 C 123.724 188.138,124.230 188.472,124.277 188.594 C 124.353 188.792,123.218 190.117,123.093 189.975 C 123.065 189.943,122.918 189.673,122.767 189.375 C 122.462 188.776,122.245 188.714,121.727 189.077 C 121.398 189.307,121.355 189.277,120.940 188.513 C 120.399 187.519,120.399 187.538,120.958 187.453 C 121.919 187.307,122.142 187.348,123.153 187.853 M177.542 188.537 C 177.335 188.636,177.167 188.857,177.167 189.027 C 177.167 189.197,177.017 189.465,176.833 189.622 C 176.650 189.779,176.500 190.003,176.500 190.120 C 176.500 190.238,176.425 190.333,176.333 190.333 C 176.242 190.333,176.167 190.481,176.167 190.661 C 176.167 191.014,175.696 191.334,174.951 191.487 C 174.521 191.576,174.504 191.608,174.726 191.913 C 174.965 192.239,174.974 192.239,175.873 191.866 C 176.371 191.660,177.185 191.446,177.681 191.392 C 178.177 191.338,178.759 191.184,178.973 191.050 C 179.832 190.513,179.491 191.079,178.205 192.326 C 177.396 193.110,176.800 193.835,176.733 194.114 C 176.671 194.372,176.563 194.658,176.492 194.750 C 176.266 195.042,176.529 195.844,176.938 196.113 C 177.155 196.255,177.333 196.516,177.333 196.692 C 177.333 196.868,177.437 197.178,177.564 197.381 C 177.690 197.584,177.843 198.196,177.902 198.741 C 178.034 199.943,178.485 200.599,179.768 201.450 C 180.704 202.072,181.028 202.654,180.715 203.151 C 180.338 203.750,179.500 203.467,179.500 202.739 C 179.500 202.259,179.771 202.074,180.089 202.338 C 180.381 202.580,180.231 202.894,179.886 202.761 C 179.735 202.703,179.665 202.747,179.707 202.875 C 179.845 203.292,180.500 203.225,180.500 202.793 C 180.500 201.788,179.455 201.493,179.032 202.380 C 178.568 203.350,179.339 204.468,180.322 204.252 C 181.906 203.905,182.080 202.080,180.653 200.770 C 179.673 199.871,179.301 199.076,179.380 198.053 C 179.440 197.283,179.628 197.207,179.758 197.900 C 179.905 198.686,180.214 198.663,180.824 197.820 C 181.678 196.640,181.696 195.155,180.858 195.030 C 180.486 194.975,180.356 194.442,180.667 194.250 C 180.758 194.193,180.834 194.020,180.834 193.865 C 180.835 193.710,180.945 193.372,181.080 193.114 C 181.670 191.984,181.358 189.500,180.626 189.500 C 180.544 189.500,180.239 189.323,179.947 189.106 C 179.019 188.417,178.194 188.222,177.542 188.537 M130.627 188.967 C 130.949 189.379,130.602 189.610,129.082 189.993 C 127.165 190.476,127.101 190.466,127.226 189.708 C 127.283 189.365,127.330 188.966,127.331 188.824 C 127.334 188.443,130.318 188.572,130.627 188.967 M306.341 194.306 C 307.114 194.932,306.690 196.464,305.596 196.994 C 303.660 197.931,302.176 196.982,303.287 195.516 C 304.327 194.144,305.545 193.662,306.341 194.306 M323.950 197.251 C 325.047 198.018,324.726 200.671,323.538 200.664 C 321.950 200.656,320.854 198.464,321.909 197.409 C 322.388 196.930,323.382 196.853,323.950 197.251  M -25 0 L -5 0 L -5 20 L -25 20 Z M 405 0 L 425 0 L 425 20 L 405 20 Z" id="path2" xmlns="http://www.w3.org/2000/svg"/>
</svg>