<?xml version="1.0" encoding="utf-8"?>
<svg id="splitsvg" version="1.1" viewBox="47.156 314.203 382.65 178.627" xmlns="http://www.w3.org/2000/svg">
  <defs/>
  <path xmlns="http://www.w3.org/2000/svg" id="path3" d="M 381.598 1.237 C 381.734 2.732 381.396 9.626 381.079 11.845 C 380.552 15.532 379.296 17.112 376.594 17.488 C 373.798 17.877 373.602 17.666 375.632 16.456 C 377.42 15.39 377.984 14.769 378.107 13.728 C 378.192 13.012 378.273 12.868 378.697 12.68 C 379.713 12.23 380.531 10.667 379.75 10.667 C 379.613 10.667 379.5 10.554 379.5 10.417 C 379.5 10.077 379.222 10.101 379.013 10.458 C 378.876 10.694 378.843 10.63 378.838 10.125 C 378.836 9.781 378.77 9.5 378.692 9.5 C 378.151 9.5 377.334 11.43 377.333 12.71 C 377.332 13.384 377.24 13.698 376.929 14.083 C 376.37 14.776 376.146 14.26 376.65 13.443 C 377.143 12.647 377.099 12.386 376.458 12.29 C 375.749 12.184 375.667 12.348 375.709 13.783 L 375.744 14.983 L 374.778 15.675 L 373.811 16.367 L 374.299 15.392 C 374.567 14.856 374.914 14.028 375.07 13.554 C 375.383 12.595 375.983 11.695 377.2 10.355 C 378.404 9.028 378.567 8.635 378.592 7 C 378.604 6.221 378.673 5.227 378.746 4.792 C 378.892 3.921 378.636 3.714 378.129 4.292 C 377.878 4.577 377.803 4.778 377.596 5.708 C 377.54 5.96 377.384 6.167 377.25 6.167 C 377.116 6.167 376.949 6.373 376.879 6.625 C 376.766 7.03 376.742 6.986 376.667 6.251 C 376.564 5.227 376.101 4.993 375.813 5.82 C 375.607 6.41 375.647 6.393 375.087 6.138 C 374.781 5.999 374.606 5.994 374.479 6.121 C 374.159 6.441 374.497 6.962 375.256 7.319 C 375.665 7.511 376 7.733 376 7.811 C 376 7.889 376.191 8.236 376.425 8.58 L 376.851 9.207 L 376.42 9.812 C 375.261 11.44 374.426 12.027 375.432 10.506 C 375.866 9.851 375.857 9.5 375.407 9.5 C 375.262 9.5 375.167 9.335 375.167 9.083 C 375.167 8.487 374.751 8.563 374.479 9.208 C 374.206 9.854 374.175 11.853 374.432 12.183 C 374.532 12.312 374.569 12.579 374.515 12.778 C 374.427 13.102 374.361 13.057 373.868 12.339 C 373.054 11.153 373.006 10.529 373.654 9.52 C 374.573 8.087 374.378 6.539 373.446 7.875 L 373.184 8.25 L 373.177 7.833 C 373.173 7.604 373.283 7.045 373.421 6.591 C 373.637 5.879 373.639 5.734 373.435 5.53 C 373.158 5.254 372.836 5.398 372.828 5.802 C 372.824 6.06 372.809 6.059 372.653 5.792 C 372.26 5.116 371.565 5.767 371.768 6.622 C 371.829 6.876 371.981 7.202 372.106 7.347 C 372.282 7.55 372.309 7.964 372.224 9.162 C 372.095 10.969 371.667 10.944 371.667 9.13 C 371.667 8.154 371.322 7.646 371.006 8.156 C 370.912 8.309 370.854 8.294 370.778 8.097 C 370.723 7.952 370.562 7.833 370.422 7.833 C 370.058 7.833 370.072 9.449 370.44 10.005 C 370.624 10.282 370.507 10.217 370.084 9.808 L 369.455 9.199 L 369.821 8.443 C 370.257 7.542 370.252 6.285 369.813 6.202 C 369.65 6.171 369.498 6.301 369.43 6.534 L 369.316 6.917 L 369.164 6.542 C 368.807 5.666 368.345 6.357 368.655 7.304 C 368.765 7.641 368.891 8.029 368.935 8.167 C 368.979 8.304 368.897 8.209 368.751 7.956 C 368.606 7.703 368.356 6.841 368.195 6.04 C 367.935 4.742 367.86 4.577 367.513 4.527 C 367.136 4.473 367.126 4.503 367.201 5.411 C 367.291 6.498 367.013 6.419 366.632 5.25 C 366.327 4.313 365.906 4.349 365.95 5.308 C 365.99 6.182 366.332 6.745 367.096 7.196 C 367.41 7.381 367.667 7.633 367.667 7.754 C 367.667 7.876 367.918 8.457 368.225 9.046 C 368.687 9.934 368.747 10.164 368.578 10.396 C 368.398 10.642 368.361 10.645 368.275 10.422 C 368.069 9.884 367.795 10.159 367.906 10.792 C 368.325 13.185 368.201 13.321 367.389 11.362 C 366.71 9.726 366.065 9.703 366.564 11.333 C 366.68 11.712 366.651 11.7 366.25 11.208 C 365.739 10.581 365.5 10.521 365.5 11.019 C 365.5 11.652 366.216 12.685 366.894 13.031 C 367.25 13.213 367.843 13.58 368.212 13.847 C 368.685 14.19 369.085 14.336 369.567 14.341 L 370.25 14.349 L 369.669 14.634 C 368.549 15.181 368.952 15.882 370.196 15.55 C 370.941 15.351 371.155 15.555 371.907 17.178 L 372.312 18.052 L 371.494 18.787 C 369.38 20.688 369.105 22.968 370.627 25.975 C 372.001 28.691 371.843 29.924 370.019 30.715 C 368.392 31.421 368.397 31.402 368.655 35.645 C 369.509 49.707 369.517 64.12 368.672 67.402 C 367.859 70.564 366.012 72.096 361.439 73.403 C 356.656 74.769 355.639 75.701 354.577 79.692 C 353.704 82.97 353.235 83.554 350.982 84.161 C 349.26 84.626 349.012 84.79 348.094 86.078 C 347.272 87.229 346.567 87.657 345.952 87.378 C 345.67 87.25 345.485 87.28 345.167 87.503 C 344.712 87.822 343.613 88.168 343.083 88.159 C 342.613 88.151 343.996 86.903 345.873 85.64 C 347.767 84.366 348.282 83.481 347.935 82.096 C 347.466 80.227 343.31 81.504 342.038 83.909 C 341.895 84.178 341.845 84.065 341.743 83.254 C 341.595 82.067 341.638 81.936 343.339 78.333 C 345.375 74.023 345.546 72.347 344.119 70.721 C 341.329 67.544 337.024 71.99 336.713 78.369 L 336.618 80.321 L 335.826 79.608 C 334.304 78.24 332.226 78.158 331.389 79.435 C 330.866 80.234 331.052 80.524 334.417 84.168 C 335.058 84.863 335.907 85.916 336.303 86.508 L 337.022 87.583 L 335.812 87.707 C 330.898 88.209 329.692 89.599 328.987 95.568 C 328.416 100.403 327.336 105.15 326.323 107.271 C 325.444 109.113 324.49 109.737 320.266 111.232 C 317.178 112.326 316.994 112.326 318.867 111.236 C 321.589 109.651 322.5 108.422 322.5 106.333 C 322.5 105.422 322.523 105.37 322.958 105.279 C 323.641 105.135 325.019 104.162 325.453 103.517 C 326.059 102.615 325.895 101.298 325.243 101.839 C 325.042 102.006 325 101.973 324.997 101.645 C 324.989 100.302 324.321 100.946 323.978 102.628 C 323.787 103.568 323.168 104.557 322.924 104.313 C 322.882 104.27 323.035 103.644 323.264 102.921 C 323.553 102.013 323.666 101.321 323.632 100.679 L 323.583 99.75 L 323.051 100.3 C 322.214 101.163 321.492 103.243 321.394 105.069 C 321.284 107.114 321.247 107.243 320.56 108.004 C 319.329 109.366 318.884 108.202 319.909 106.304 C 320.648 104.937 320.464 104.059 319.617 104.906 C 319.409 105.115 319.351 105.088 319.173 104.698 L 318.969 104.25 L 318.749 104.671 C 318.464 105.214 318.512 108.256 318.814 108.806 C 318.931 109.02 319.002 109.214 318.972 109.236 C 318.941 109.259 318.467 109.548 317.917 109.877 C 317.367 110.207 316.369 110.939 315.699 111.504 L 314.482 112.532 L 315.462 110.558 C 316.563 108.34 316.678 108.059 317.155 106.417 C 317.569 104.988 318.395 103.714 320.179 101.75 C 322.958 98.692 323.307 97.906 323.294 94.733 C 323.287 93.205 323.369 92.254 323.577 91.443 C 323.896 90.197 323.792 89.832 323.208 90.144 C 322.408 90.573 322.057 91.617 321.743 94.5 C 321.379 97.847 321.37 97.874 320.789 97.433 C 320.511 97.222 320.523 97.148 320.997 96.146 C 321.539 95 321.638 94.156 321.268 93.848 C 321.023 93.645 320.333 94.774 320.333 95.376 C 320.333 95.525 320.258 95.693 320.167 95.75 C 320.061 95.815 320 95.359 320 94.499 C 320 93.104 319.862 92.61 319.423 92.442 C 319.105 92.32 318.667 93.115 318.667 93.815 C 318.667 94.525 318.473 94.561 317.646 94 C 316.396 93.153 315.712 93.426 316.25 94.559 C 316.543 95.176 317.272 95.624 318.243 95.781 C 318.718 95.858 318.844 95.98 319.077 96.589 C 319.227 96.983 319.657 97.654 320.031 98.079 C 320.848 99.007 320.837 99.052 319.329 100.851 C 318.761 101.529 318.068 102.4 317.79 102.786 C 316.785 104.184 316.67 102.866 317.667 101.373 C 318.522 100.093 318.515 99.149 317.656 99.926 C 317.341 100.212 317.333 100.198 317.333 99.354 C 317.333 98.723 317.263 98.462 317.072 98.389 C 316.078 98.008 315.508 102.331 316.329 104.03 C 316.591 104.573 316.606 104.754 316.433 105.34 C 316.167 106.241 316.155 106.238 315.252 105.083 C 313.694 103.088 313.189 101.432 313.917 100.705 C 314.146 100.475 314.333 100.188 314.333 100.066 C 314.333 99.945 314.548 99.599 314.81 99.297 C 315.545 98.454 315.833 97.761 315.833 96.842 C 315.833 95.567 315.106 95.818 313.925 97.5 C 313.521 98.075 313.677 96.724 314.267 94.546 C 314.589 93.358 314.642 92.932 314.502 92.671 C 314.198 92.102 313.687 92.252 313.348 93.009 L 313.045 93.685 L 312.943 93.176 C 312.819 92.555 311.972 92.43 311.673 92.989 C 311.285 93.713 311.644 95.707 312.201 95.921 C 312.365 95.984 312.428 96.765 312.462 99.165 C 312.513 102.696 312.435 102.882 311.537 101.355 C 311.126 100.656 311.083 100.429 311.083 98.935 C 311.083 97.578 311.034 97.255 310.805 97.111 C 310.178 96.715 309.711 97.971 310.004 99.269 C 310.124 99.802 310.111 99.849 309.901 99.64 C 309.741 99.479 309.653 98.998 309.639 98.199 C 309.615 96.943 309.409 96.538 308.895 96.735 C 308.525 96.877 308.663 99.186 309.091 100.016 C 309.628 101.058 311.501 103.256 312.297 103.778 C 313.361 104.477 315.007 106.861 315.119 107.866 C 315.189 108.5 314.562 110.559 314.042 111.401 C 313.842 111.723 313.69 110.88 313.678 109.393 C 313.655 106.386 312.844 104.874 309.288 101.217 L 306.988 98.851 L 307.594 98.007 C 308.589 96.622 308.958 94.823 308.407 94.037 C 307.907 93.324 307.5 93.632 307.245 94.917 C 307.157 95.357 307.09 95.47 307.047 95.25 C 306.749 93.732 305.841 93.357 305.837 94.75 C 305.834 95.474 306.144 96.478 306.471 96.804 C 306.627 96.96 306.727 97.236 306.694 97.419 C 306.621 97.825 306.342 98.152 306.313 97.867 C 306.277 97.529 306.245 97.429 306.058 97.083 C 305.735 96.485 305.348 95.107 305.168 93.917 C 304.846 91.779 304.624 90.989 304.294 90.812 C 303.652 90.469 303.464 90.911 303.527 92.616 C 303.558 93.469 303.546 94.166 303.5 94.166 C 303.296 94.163 302.636 92.972 302.322 92.044 C 301.814 90.54 301.175 90.47 301.169 91.918 C 301.163 93.51 301.928 94.784 303.271 95.419 C 303.771 95.656 304.167 95.954 304.167 96.094 C 304.167 96.571 305.846 99.781 306.391 100.348 C 306.692 100.661 307.551 101.465 308.301 102.135 C 311.302 104.816 313.265 108.852 312.919 111.626 L 312.8 112.576 L 312.585 111.952 C 311.92 110.016 309.368 107.163 307.501 106.269 C 306.192 105.642 305.98 105.236 306.33 104.038 C 306.684 102.826 306.73 101.64 306.439 101.25 L 306.19 100.917 L 306.081 101.25 C 305.74 102.292 305.752 102.288 305.255 101.537 C 304.416 100.269 304.262 100.7 304.929 102.455 C 305.518 104.004 305.51 105.5 304.913 105.5 C 304.611 105.5 304.445 105.186 303.414 102.677 C 302.528 100.52 302.316 100.243 302.001 100.832 C 301.849 101.115 301.88 101.324 302.156 101.895 C 302.507 102.619 302.613 103.577 302.36 103.734 C 302.282 103.781 302.047 103.467 301.836 103.035 C 301.101 101.53 300.499 101.119 300.502 102.125 C 300.505 103.539 301.525 104.918 303.191 105.763 C 303.637 105.988 304.395 106.471 304.876 106.835 C 305.898 107.609 306.933 108 307.959 108 C 308.998 108 308.882 108.484 307.751 108.859 C 306.683 109.214 306.442 109.571 306.977 110.01 C 307.484 110.427 307.998 110.418 308.963 109.979 L 309.741 109.625 L 310.245 110.209 C 310.775 110.823 312.099 113.204 312.194 113.714 C 312.237 113.941 312.012 114.109 311.25 114.418 C 309.419 115.162 308.989 116.104 309.585 118.068 C 310.665 121.628 308.283 121.923 306.093 118.5 C 303.349 114.211 297.877 115.337 293.468 121.097 C 291.574 123.572 291.289 123.813 289.642 124.332 C 286.533 125.312 284.022 124.758 279.011 121.986 C 276.181 120.42 273.846 119.5 272.705 119.5 L 272.042 119.5 L 271.961 120.344 C 271.524 124.898 272.494 127.347 276.194 131.034 C 281.108 135.929 281.598 139.581 277.588 141.424 C 276.36 141.989 275.812 142.476 275.161 143.583 C 274.488 144.729 273.702 145.595 271.879 147.199 C 266.436 151.988 265.64 157.76 269.675 163.188 C 271.923 166.212 272.497 168.157 271.636 169.833 C 270.483 172.076 267.852 171.748 263.436 168.814 C 262.897 168.456 262.531 168.257 262.622 168.373 C 263.429 169.391 263.57 172.033 262.913 173.834 C 262.63 174.611 262.429 175.556 262.381 176.333 L 262.304 177.583 L 263.121 176.73 C 263.571 176.262 264.121 175.781 264.344 175.663 C 264.567 175.545 264.2 176.029 263.528 176.739 C 261.95 178.406 261.312 179.729 261.449 181.054 C 261.567 182.2 261.112 183.252 259.784 184.906 C 258.043 187.073 257.879 188.16 258.888 190.829 L 259.422 192.241 L 260.912 193.025 C 262.572 193.899 263.469 194.15 263.688 193.804 C 263.977 193.348 263.846 190.079 263.478 188.555 C 262.822 185.84 263.01 183.903 264.042 182.727 C 264.505 182.2 265.631 181.451 265.468 181.778 C 264.369 183.991 264.408 185.45 265.675 189.441 C 266.028 190.555 266.368 191.85 266.431 192.32 C 266.619 193.739 267.17 193.475 268.254 191.448 C 269.758 188.634 271.888 187.641 274.948 188.326 C 275.449 188.438 275.884 188.504 275.914 188.473 C 276.023 188.361 274.765 186.625 273.81 185.572 C 272.629 184.267 272.581 183.981 273.466 183.515 C 273.971 183.249 274.863 183.534 275.424 184.139 L 275.833 184.58 L 275.833 183.46 C 275.833 180.179 278.21 177.559 279.739 179.155 C 280.459 179.907 280.32 181.218 279.285 183.427 C 278.238 185.663 278.207 186.563 279.21 185.626 C 280.219 184.684 281.553 184.511 281.847 185.285 C 282.107 185.971 281.897 186.462 281.128 186.963 C 280.379 187.451 278.667 189.073 278.667 189.295 C 278.667 189.426 282.339 190.963 283.5 191.316 C 286.204 192.14 290.167 192.65 290.167 192.175 C 290.167 190.915 287.546 186.859 284.774 183.828 C 283.116 182.016 282.808 181.42 283.173 180.738 C 283.875 179.426 286.637 179.676 287.889 181.164 L 288.286 181.636 L 288.396 180.026 C 288.858 173.266 292.963 168.84 295.787 172.056 C 297.23 173.699 296.986 175.46 294.658 180.234 C 293.701 182.196 293.602 182.5 293.533 183.693 C 293.443 185.248 293.373 185.22 294.537 184.093 C 297.245 181.469 300.413 181.864 299.652 184.731 C 299.424 185.59 299.062 185.982 297.681 186.864 C 295.32 188.372 294.175 189.596 293.524 191.31 C 293.135 192.335 293.094 192.322 295.149 191.829 C 305.206 189.418 309.4 178.097 302.984 170.678 C 299.894 167.105 300.441 165.503 305.667 162.821 C 309.678 160.763 311.833 157.237 311.833 152.734 C 311.833 148.461 310.629 146.199 306.534 142.775 C 304.788 141.315 304.86 141.602 305.7 139.417 C 306.543 137.225 307.371 136.111 308.917 135.091 C 316.735 129.933 323.874 128.726 328.494 131.782 C 330.898 133.372 332.608 135.828 335.268 141.51 C 337.947 147.233 339.804 149.455 342.643 150.337 C 344.292 150.85 344.215 150.922 344.137 148.958 C 344.048 146.714 343.871 146.362 342.574 145.859 C 340.798 145.169 340.441 144.143 340.824 140.843 C 341.151 138.031 340.602 136.949 337.583 134.454 C 333.986 131.481 333.431 130.124 334.486 126.879 C 334.882 125.66 335.167 125.44 335.167 126.352 C 335.167 128.659 336.34 130.713 338.583 132.333 C 342.282 135.004 343.195 136.499 342.523 138.783 C 342.032 140.45 342.013 140.384 343.514 142.25 C 344.252 143.167 345.103 144.353 345.405 144.887 L 345.954 145.857 L 346.07 144.834 C 346.278 142.995 345.821 141.602 344.152 138.996 C 341.888 135.458 341.823 134.076 343.763 130.647 C 345.284 127.959 345.757 124.844 345.031 122.292 C 344.646 120.936 344.747 120.901 345.725 122.045 C 347.842 124.523 348.01 126.237 346.6 130.964 C 345.095 136.007 345.182 137.494 347.192 141.124 C 347.709 142.057 347.593 142.171 348.959 139.375 C 350.516 136.188 350.633 135.549 350.374 131.634 C 350.081 127.184 350.237 126.266 351.852 122.934 C 353.365 119.812 353.485 118.666 352.491 116.833 C 350.263 112.725 350.278 111.476 352.619 106.371 L 353.098 105.326 L 353.029 107.919 C 352.942 111.166 353.092 111.962 354.335 114.833 C 356.236 119.223 356.152 120.16 353.56 123.468 C 351.205 126.473 351.064 127.401 352.414 131.011 C 353.697 134.442 353.627 135.387 351.931 137.47 C 350.301 139.473 350.027 140.334 350.556 141.793 L 350.753 142.336 L 353.051 140.836 C 358.803 137.084 359.656 134.859 358.164 127.5 C 357.308 123.278 357.906 120.987 360.164 119.835 L 360.762 119.53 L 360.287 120.488 C 359.321 122.438 359.474 124.77 360.855 129.135 C 362.954 135.773 361.998 139.783 357.745 142.184 L 356.833 142.699 L 357.857 143.808 C 362.015 148.309 362.454 151.761 359.895 159.828 C 359.3 161.704 358.711 163.674 358.587 164.205 C 358.316 165.366 358.014 165.141 361.703 166.522 C 363.196 167.081 364.88 167.747 365.447 168.003 C 366.307 168.392 366.492 168.428 366.572 168.221 C 366.722 167.828 366.671 163.091 366.496 161.167 C 365.852 154.108 366.313 151.439 369.165 145.703 C 372.235 139.53 372.264 138.049 369.408 133.063 C 367.047 128.94 366.76 126.264 368.182 121.616 C 368.606 120.231 371.463 113.732 371.588 113.87 C 371.611 113.896 371.529 114.892 371.407 116.083 C 370.73 122.676 371.196 125.644 373.831 131.5 C 374.552 133.104 375.195 134.626 375.258 134.883 C 375.529 135.977 375.467 135.092 375.164 133.525 C 374.982 132.588 374.833 131.756 374.833 131.675 C 374.833 131.595 375.152 131.477 375.542 131.413 C 381.012 130.517 385.721 125.056 385.959 119.332 C 386.161 114.46 385.029 112.115 380.196 107.397 L 376.933 104.211 L 376.866 102.147 C 376.589 93.662 381.261 84.082 386.25 82.905 C 386.997 82.729 387.01 82.703 386.654 82.099 C 384.635 78.678 391.99 76.604 395 79.746 C 395.936 80.723 398.637 82 399.768 82 C 399.966 82 400 75.957 400 41 L 400 0 L 390.743 0 L 381.486 0 L 381.598 1.237 M 377.383 7.873 C 377.335 8.124 377.232 8.29 377.154 8.242 C 377.076 8.194 377.097 7.97 377.2 7.743 C 377.433 7.232 377.497 7.278 377.383 7.873 M 370.658 11.78 C 371.54 12.782 372.352 14.443 372.453 15.452 L 372.532 16.25 L 371.95 15.408 C 371.275 14.431 370.363 13.588 369.571 13.211 C 368.886 12.884 368.807 12.694 369.025 11.903 C 369.12 11.561 369.166 11.072 369.129 10.817 L 369.061 10.354 L 369.519 10.68 C 369.771 10.86 370.284 11.355 370.658 11.78 M 373.103 12.964 C 373.388 13.396 373.676 13.846 373.741 13.964 C 373.807 14.082 373.724 14.607 373.556 15.131 L 373.252 16.083 L 373.142 14.865 C 373.073 14.103 372.883 13.345 372.634 12.842 C 372.14 11.843 372.408 11.913 373.103 12.964 M 342.08 71.565 C 342.958 72.443 342.843 74 341.901 74 C 340.603 74 339.864 72.454 340.742 71.576 C 341.256 71.062 341.575 71.06 342.08 71.565 M 335.268 80.263 C 335.419 80.864 335.051 81.457 334.394 81.674 C 333.176 82.076 332.63 81.515 333.349 80.601 C 334.017 79.752 335.092 79.563 335.268 80.263 M 346.922 82.058 C 347.55 82.954 346.957 84.345 346.071 84.054 C 345.451 83.851 344.905 82.903 345.057 82.296 C 345.253 81.515 346.436 81.365 346.922 82.058 M 351.354 90.687 C 350.875 91.511 350.7 92.338 350.508 94.667 C 350.185 98.605 349.209 99.91 346.105 100.561 C 344.651 100.866 344.73 100.759 344.096 103.273 C 343.621 105.151 343.515 105.409 343.236 105.357 C 340.561 104.859 339.135 106.136 337.772 110.25 C 336.748 113.346 336.514 113.508 333.827 112.999 C 332.699 112.785 332.836 113.147 332.555 109.636 C 332.161 104.724 332.763 98.065 333.855 95.272 C 334.942 92.49 338.291 91.744 338.777 94.177 L 338.864 94.612 L 340.14 93.762 C 341.68 92.738 343.058 92.246 347.895 90.995 C 352.063 89.918 351.786 89.942 351.354 90.687 M 319.148 136.75 C 318.469 137.119 318.268 137.807 318.43 139.211 C 318.506 139.874 318.574 141.992 318.582 143.917 C 318.597 147.762 318.688 148.348 319.925 152.556 C 320.434 154.289 320.641 154.749 321.156 155.301 C 321.496 155.666 322.317 156.834 322.98 157.896 C 324.652 160.575 324.819 160.655 326.582 159.62 C 330.319 157.427 332.725 153.176 332.737 148.75 C 332.747 144.652 331.523 143.011 328.286 142.785 C 326.101 142.632 325.859 142.448 322.993 138.78 C 321.454 136.811 320.228 136.163 319.148 136.75 M 375.974 140.083 C 375.839 141.904 374.65 143.952 371.427 147.917 C 367.924 152.224 367.829 154.054 370.716 161.667 C 372.445 166.226 372.344 168.19 370.241 170.935 C 368.412 173.324 369.115 173.347 371.103 170.963 C 376.472 164.523 378.187 155.419 376.573 141.917 C 376.252 139.239 376.076 138.699 375.974 140.083 M 225.009 140.965 C 224.4 141.575 224.082 142.764 223.84 145.333 C 223.562 148.297 223.536 148.373 222.957 147.933 C 222.681 147.724 222.694 147.646 223.176 146.616 C 223.533 145.852 223.672 145.329 223.636 144.886 C 223.559 143.959 223.16 144.066 222.737 145.125 C 222.231 146.395 222.167 146.369 222.167 144.898 C 222.167 142.485 221.17 142.117 220.747 144.373 L 220.632 144.985 L 219.725 144.501 C 218.449 143.82 218.016 144.069 218.579 145.158 C 218.82 145.624 220.005 146.333 220.543 146.333 C 220.704 146.333 221.031 146.742 221.35 147.339 C 221.645 147.893 222.113 148.567 222.389 148.837 C 222.841 149.279 222.871 149.369 222.682 149.721 C 222.329 150.382 219.369 153.98 219.265 153.876 C 218.996 153.607 219.233 152.781 219.833 151.897 C 220.7 150.621 220.702 149.869 219.837 150.331 C 219.522 150.5 219.5 150.463 219.5 149.766 C 219.5 147.585 218.245 149.509 218.055 151.983 C 217.97 153.085 218.011 153.393 218.358 154.254 C 218.673 155.034 218.726 155.358 218.607 155.75 C 218.523 156.025 218.42 156.362 218.378 156.5 C 218.32 156.692 218.238 156.655 218.026 156.342 C 217.874 156.117 217.501 155.635 217.196 155.27 C 215.571 153.323 215.399 152.049 216.532 150.369 C 217.815 148.467 218.347 146.836 217.757 146.609 C 217.484 146.504 216.381 147.669 215.926 148.541 L 215.644 149.083 L 215.743 147.959 C 215.798 147.341 216.03 146.113 216.259 145.23 C 216.716 143.475 216.68 142.951 216.112 143.032 C 215.846 143.07 215.666 143.32 215.418 144 L 215.083 144.917 L 215.029 144.252 C 214.947 143.24 214.594 142.929 214.095 143.428 C 213.504 144.02 213.666 145.515 214.403 146.252 C 214.771 146.619 214.778 146.687 214.637 148.357 C 214.557 149.307 214.534 150.721 214.586 151.5 L 214.681 152.917 L 214.103 152.307 C 213.391 151.558 213.169 150.8 213.168 149.12 C 213.167 148.116 213.11 147.801 212.915 147.726 C 212.288 147.486 211.788 148.926 212.16 149.9 C 212.322 150.326 212.314 150.358 212.089 150.171 C 211.912 150.024 211.833 149.655 211.833 148.969 C 211.833 147.312 211.125 146.634 210.908 148.082 C 210.635 149.901 212.352 152.893 214.464 154.278 C 215.413 154.901 217.129 157.305 217.277 158.219 C 217.375 158.824 216.494 161.715 216.145 161.93 C 215.965 162.041 215.999 162.289 215.841 159.75 C 215.633 156.408 215.096 155.441 211.294 151.554 L 209.147 149.358 L 209.628 148.693 C 210.414 147.609 210.913 145.679 210.601 144.932 C 210.139 143.827 209.821 144.157 209.407 146.167 C 209.289 146.744 209.285 146.738 209.019 145.667 C 208.829 144.902 208.664 144.569 208.458 144.53 C 207.997 144.444 208.063 145.906 208.565 146.898 C 209.106 147.965 208.879 148.867 208.299 147.958 C 207.817 147.204 207.504 146.144 207.17 144.136 C 206.772 141.745 206.626 141.333 206.178 141.333 C 205.722 141.333 205.58 142.212 205.79 143.724 C 205.881 144.38 205.937 144.939 205.915 144.966 C 205.733 145.185 204.799 143.81 204.494 142.876 C 204.063 141.554 203.742 141.111 203.497 141.5 C 202.788 142.621 204.305 145.655 205.706 145.92 C 206.221 146.017 206.281 146.108 206.833 147.636 C 207.595 149.741 208.276 150.727 209.996 152.208 C 213.279 155.036 215.435 159.162 215.086 161.95 L 214.976 162.831 L 214.41 161.707 C 213.355 159.611 211.475 157.674 209.6 156.75 C 208.365 156.142 208.152 155.716 208.496 154.538 C 208.85 153.326 208.897 152.14 208.606 151.75 L 208.357 151.417 L 208.248 151.75 C 207.921 152.748 207.93 152.745 207.449 152.019 C 206.606 150.746 206.455 151.152 207.083 153 C 207.642 154.643 207.636 156 207.069 156 C 206.798 156 206.474 155.374 205.493 152.958 C 204.797 151.244 204.452 150.831 204.219 151.437 C 204.162 151.586 204.24 152.054 204.392 152.479 C 204.851 153.759 204.663 154.773 204.148 153.792 C 203.431 152.424 202.562 151.788 202.717 152.745 C 202.949 154.176 203.955 155.619 205.051 156.094 C 205.435 156.26 206.257 156.765 206.876 157.215 C 208.076 158.087 209.146 158.5 210.205 158.5 C 211.168 158.5 211.002 159.003 209.927 159.343 C 208.853 159.684 208.604 160.068 209.161 160.525 C 209.615 160.897 210.336 160.884 211.296 160.484 C 212.017 160.184 212.232 160.334 213.119 161.76 C 213.981 163.146 213.986 163.21 213.259 163.639 C 212.638 164.006 212.115 164.885 211.715 166.235 C 210.493 170.357 207.494 171.754 199.333 172.001 C 192.075 172.221 190.925 172.519 187.552 175.06 C 184.583 177.297 181.915 180.448 180.265 183.667 C 179.319 185.512 178.265 188.276 178.465 188.388 C 178.53 188.424 178.796 188.505 179.056 188.567 C 179.316 188.629 179.728 188.865 179.971 189.09 C 180.214 189.316 180.494 189.5 180.592 189.5 C 181.787 189.5 181.815 192.061 180.646 194.373 C 180.441 194.779 180.459 194.833 180.8 194.833 C 181.926 194.833 181.608 197.621 180.391 198.418 C 179.885 198.75 179.714 198.62 179.622 197.833 C 179.574 197.425 179.545 197.534 179.527 198.196 L 179.5 199.142 L 181.625 198.588 C 182.794 198.283 184.93 197.754 186.372 197.413 C 189.367 196.705 189.357 196.724 187.253 195.747 C 184.29 194.372 183.88 193.646 184.593 191.036 C 185.184 188.874 185.107 188.225 183.972 185.809 C 182.898 183.522 182.759 181.994 183.478 180.387 C 184.041 179.129 184.5 178.747 184.5 179.537 C 184.5 180.801 185.376 181.928 187.417 183.289 C 190.699 185.478 190.937 187.481 188.317 190.868 C 186.908 192.689 186.807 194.006 188.036 194.515 C 188.316 194.631 188.752 194.901 189.007 195.115 L 189.469 195.504 L 189.134 194.627 C 188.645 193.347 188.79 192.429 189.818 190.322 C 191.367 187.146 191.334 185.821 189.615 182.083 C 188.587 179.847 188.774 178.157 190.458 174.458 C 191.087 173.078 191.333 172.858 191.333 173.675 C 191.333 173.955 191.782 175.378 192.33 176.838 C 195.042 184.058 195.096 186.85 192.587 190.083 C 191.501 191.482 191.274 191.844 190.999 192.614 C 190.832 193.083 190.832 193.083 191.136 192.726 C 191.304 192.53 191.885 192.124 192.429 191.825 C 194.381 190.747 194.436 190.645 195.42 186.183 C 196.574 180.955 196.789 180.667 200.037 180.002 C 202.389 179.52 202.399 179.537 200.645 181.058 C 199.695 181.882 199.043 182.589 198.884 182.969 C 198.576 183.706 198.649 185.689 198.989 185.802 C 199.581 185.999 199.793 186.499 200.07 188.352 C 200.531 191.438 201.359 193.543 201.73 192.574 C 201.785 192.432 201.667 192.094 201.467 191.825 C 201.055 191.266 200.831 189.435 201.139 189.128 C 201.424 188.843 201.769 189.241 202.007 190.13 L 202.218 190.917 L 202.401 190.048 C 202.643 188.894 202.859 188.692 203.338 189.171 C 204.02 189.854 203.489 192.53 202.452 193.634 L 202.087 194.023 L 202.835 193.97 L 203.583 193.917 L 203.692 193.024 C 203.849 191.743 204.667 191.382 204.667 192.594 C 204.667 193.13 204.943 193.25 205.064 192.767 C 205.278 191.917 206.167 192.129 206.167 193.03 C 206.167 193.494 206.2 193.517 206.792 193.468 L 207.417 193.417 L 207.518 192.359 C 207.609 191.405 207.581 191.263 207.238 190.92 C 206.743 190.425 206.426 189.256 206.611 188.611 C 206.9 187.603 207.818 187.597 208.008 188.601 L 208.099 189.083 L 208.308 188.472 C 208.556 187.747 208.859 187.456 209.223 187.596 C 209.683 187.772 209.691 188.258 209.265 189.944 C 209.037 190.846 208.8 191.958 208.738 192.417 L 208.627 193.25 L 209.124 192.583 C 210.493 190.748 211.38 190.76 210.85 192.607 L 210.701 193.129 L 212.747 193.149 L 214.793 193.17 L 214.273 192.179 C 213.809 191.295 213.674 191.165 213.027 190.984 C 212.098 190.724 211.167 189.864 211.167 189.267 C 211.167 188.62 211.583 188.556 212.586 189.048 L 213.467 189.48 L 213.579 188.865 C 213.954 186.813 215.002 187.107 215.161 189.309 L 215.254 190.583 L 215.512 189.845 C 215.782 189.071 216.312 188.573 216.452 188.959 C 216.586 189.328 216.833 188.998 216.835 188.448 C 216.841 186.953 217.767 185.167 218.536 185.167 C 219.006 185.167 219.058 185.555 218.731 186.616 C 218.497 187.374 218.44 188.08 218.464 189.881 C 218.489 191.79 218.44 192.32 218.176 193.016 C 217.948 193.617 217.913 193.872 218.054 193.919 C 218.162 193.955 219.825 194.396 221.75 194.9 C 232.386 197.68 236.247 197.361 242.431 193.192 L 244.788 191.603 L 244.481 190.926 C 244.074 190.029 244.087 188.799 244.52 187.519 C 244.936 186.285 245.041 186.345 245.304 187.967 C 245.643 190.052 246.136 190.746 246.916 190.235 C 247.139 190.089 247.843 189.767 248.48 189.519 L 249.639 189.068 L 249.163 188.748 C 248.289 188.16 248.158 187.444 248.588 185.591 C 248.791 184.713 248.801 184.42 248.639 184.122 C 248.528 183.917 248.319 183.303 248.174 182.756 L 247.911 181.762 L 246.597 181.22 C 245.128 180.614 244.619 180.211 244.141 179.28 C 243.743 178.504 243.546 177.094 243.813 176.929 C 243.929 176.858 244 176.947 244 177.162 C 244 178.259 245.343 179.914 246.85 180.675 C 248.083 181.298 248 181.333 248 180.188 C 248 176.638 246.679 173.384 244.168 170.75 C 242.595 169.1 241.689 167.777 240.986 166.102 C 240.491 164.922 240.376 164.776 239.659 164.413 C 238.558 163.855 236.465 162.156 235.714 161.211 L 235.083 160.417 L 230.833 160.521 C 226.835 160.619 224.698 160.786 222.75 161.15 C 221.724 161.342 221.665 161.298 222.366 160.863 C 223.91 159.904 224.667 158.614 224.667 156.943 C 224.667 155.912 224.683 155.872 225.125 155.779 C 225.808 155.635 227.186 154.662 227.619 154.017 C 228.226 153.115 228.061 151.798 227.409 152.339 C 227.209 152.506 227.166 152.473 227.164 152.145 C 227.155 150.807 226.453 151.477 226.112 153.149 C 225.92 154.09 225.325 155.047 225.082 154.804 C 225.03 154.752 225.178 154.143 225.411 153.451 C 225.872 152.077 225.999 150.253 225.625 150.371 C 224.739 150.651 223.5 153.944 223.5 156.02 C 223.5 157.475 223.387 157.809 222.614 158.625 C 221.55 159.75 221.065 158.452 221.993 156.961 C 222.745 155.75 222.839 155.167 222.279 155.167 C 222.043 155.167 221.785 155.283 221.705 155.425 C 221.586 155.637 221.525 155.603 221.356 155.233 C 220.808 154.03 220.394 157.859 220.933 159.148 C 221.064 159.462 221.151 159.73 221.127 159.746 C 221.103 159.761 220.708 159.985 220.25 160.242 C 219.792 160.499 219.079 160.988 218.667 161.328 C 217.967 161.905 217.301 162.333 217.104 162.333 C 217.057 162.333 217.456 161.415 217.99 160.292 C 218.524 159.169 219.088 157.762 219.244 157.167 C 219.627 155.705 220.605 154.093 222.052 152.539 C 225.09 149.276 225.594 148.246 225.429 145.638 C 225.335 144.14 225.373 143.623 225.671 142.352 C 226.126 140.414 225.943 140.031 225.009 140.965 M 354.9 143.482 C 352.292 144.644 349.31 147.288 349.77 148.033 C 349.923 148.279 349.861 150.073 349.684 150.539 C 349.538 150.922 349.574 150.97 350.138 151.139 C 352.063 151.72 352.821 153.226 353.168 157.167 C 353.364 159.386 353.628 160.833 353.836 160.833 C 354.088 160.833 355.798 157.471 356.422 155.748 C 357.622 152.431 357.817 148.216 356.929 144.76 C 356.398 142.695 356.51 142.765 354.9 143.482 M 285.47 147.292 C 286.179 148.002 287.072 148.786 287.454 149.034 C 287.972 149.369 288.19 149.645 288.31 150.117 C 290.217 157.578 289.823 159.336 285.703 161.75 C 282.503 163.625 281.207 163.598 279.22 161.612 C 278.47 160.863 277.484 159.912 277.028 159.5 C 275.753 158.345 275.693 157.981 276.145 154.129 C 276.711 149.313 276.436 149.734 280.488 147.462 C 283.819 145.595 283.778 145.596 285.47 147.292 M 237.867 161.737 C 238.726 162.535 240.037 163.456 241.92 164.583 C 246.793 167.501 247.914 168.976 248.757 173.583 C 248.907 174.408 249.069 175.196 249.115 175.333 C 249.276 175.809 250.333 170.811 250.333 169.576 C 250.333 168.341 249.944 166.616 249.375 165.326 C 248.942 164.343 247.623 162.258 247.413 162.222 C 247.323 162.207 246.088 161.969 244.667 161.692 C 241.942 161.162 240.321 160.919 238.007 160.694 L 236.597 160.558 L 237.867 161.737 M 248.8 162.967 C 249.723 164.149 250.925 166.585 251.172 167.775 L 251.372 168.74 L 251.748 167.74 C 251.955 167.19 252.329 166.336 252.579 165.842 C 253.048 164.916 252.971 163.734 252.441 163.716 C 251.925 163.698 248.728 162.624 248.439 162.372 C 248.258 162.213 248.42 162.481 248.8 162.967 M 254.275 164.902 C 254.018 165.294 253.91 167.122 253.936 170.61 C 253.949 172.39 254.077 172.769 255.292 174.636 C 256.428 176.384 256.667 176.959 256.667 177.95 L 256.667 178.744 L 257.25 178.161 C 257.793 177.618 257.821 177.539 257.664 176.998 C 257.437 176.213 257.626 174.658 258.114 173.291 L 258.516 172.166 L 257.948 171.198 C 256.934 169.468 256.609 168.409 256.596 166.794 C 256.589 165.991 256.509 165.307 256.417 165.269 C 256.325 165.232 255.863 165.048 255.389 164.859 L 254.528 164.516 L 254.275 164.902 M 240.833 165.073 C 240.833 165.325 242.597 167.764 244.284 169.845 C 247.794 174.174 248.283 175.3 248.659 179.903 C 248.749 181.013 248.923 182.023 249.074 182.315 C 249.217 182.591 249.333 182.967 249.333 183.151 C 249.333 183.561 249.672 184.333 249.853 184.333 C 249.926 184.333 249.887 184.052 249.767 183.708 C 249.647 183.365 249.419 182.221 249.26 181.167 C 248.674 177.279 248.474 176.199 247.909 173.89 C 246.68 168.872 245.271 166.69 242.583 165.645 C 241.85 165.36 241.156 165.091 241.042 165.046 C 240.927 165.001 240.833 165.013 240.833 165.073 M 257.667 166.826 C 257.667 167.83 258.158 169.454 258.782 170.509 L 259.072 171 L 259.293 170.625 C 259.499 170.276 259.51 170.296 259.452 170.915 C 259.408 171.391 259.528 171.883 259.871 172.639 C 260.135 173.221 260.435 174.117 260.538 174.63 C 260.7 175.436 260.747 175.514 260.886 175.202 C 261.007 174.931 260.939 174.538 260.614 173.629 C 259.556 170.669 259.389 168.242 260.164 167.08 C 260.169 167.072 259.049 166.504 258.375 166.174 L 257.667 165.827 L 257.667 166.826 M 252.842 167.931 C 251.87 170.531 251.937 172.19 253.158 175.699 C 253.718 177.311 254.071 178.651 254.188 179.616 C 254.286 180.423 254.389 181.107 254.416 181.136 C 254.728 181.463 255.412 179.084 255.414 177.667 C 255.417 175.944 255.479 176.126 253.85 173.067 C 252.996 171.463 252.877 170.691 253.169 168.654 C 253.425 166.865 253.324 166.642 252.842 167.931 M 261.038 168.239 C 260.729 169.393 260.788 170.341 261.262 171.84 C 261.768 173.441 261.776 173.44 262.009 171.76 C 262.338 169.393 261.522 166.432 261.038 168.239 M 250.255 174.836 C 249.736 176.879 249.638 177.513 249.72 178.294 C 249.882 179.84 251.57 185.246 251.838 185.08 C 252.635 184.588 253.273 181.941 253.11 179.804 C 253.026 178.704 251.299 172.744 250.969 172.413 C 250.925 172.37 250.604 173.46 250.255 174.836 M 292.439 172.679 C 291.259 173.607 292.526 175.718 293.985 175.255 C 294.656 175.042 294.549 173.512 293.808 172.723 C 293.357 172.243 293.008 172.231 292.439 172.679 M 259.353 174.115 C 259.364 174.464 259.423 174.975 259.485 175.25 L 259.597 175.75 L 259.818 175.35 C 259.991 175.036 259.997 174.815 259.848 174.316 C 259.586 173.441 259.329 173.336 259.353 174.115 M 260.958 177.241 C 260.445 177.885 260.415 178.075 260.735 178.653 L 260.958 179.056 L 261.154 178.69 C 261.343 178.336 261.614 176.667 261.482 176.667 C 261.446 176.667 261.21 176.925 260.958 177.241 M 256.949 181.042 C 255.064 182.878 254.832 183.3 254.563 185.395 L 254.453 186.25 L 255.518 185.167 C 256.104 184.571 257.202 183.506 257.958 182.801 C 259.462 181.399 259.584 181.088 259.092 179.911 C 258.783 179.171 258.972 179.071 256.949 181.042 M 277.927 179.655 C 277.433 180.201 278.083 181.196 278.763 180.935 C 279.082 180.813 279.065 179.922 278.738 179.595 C 278.399 179.256 278.28 179.265 277.927 179.655 M 285.233 181.567 C 284.193 182.607 284.637 183.378 286.052 182.988 C 287.289 182.646 287.512 181 286.32 181 C 285.951 181 285.636 181.164 285.233 181.567 M 297.109 183.138 C 296.557 183.749 296.969 185.039 297.782 185.243 C 298.733 185.482 299.235 183.935 298.448 183.196 C 297.977 182.753 297.477 182.732 297.109 183.138 M 257.199 184.997 C 255.412 186.96 254.833 187.911 254.833 188.886 C 254.833 189.613 254.768 189.599 255.87 189.11 C 256.959 188.628 257.094 188.46 257.227 187.417 C 257.287 186.939 257.685 185.855 258.16 184.875 C 258.614 183.935 258.959 183.167 258.926 183.167 C 258.893 183.167 258.115 183.99 257.199 184.997 M 274.079 184.406 C 273.599 184.886 273.658 185.167 274.239 185.167 C 274.698 185.167 275.05 184.797 274.972 184.397 C 274.883 183.939 274.542 183.942 274.079 184.406 M 249.251 186.319 C 249.132 187.506 249.272 188.033 249.819 188.453 C 250.78 189.191 251.097 186.853 250.181 185.776 C 249.528 185.008 249.374 185.098 249.251 186.319 M 280.385 185.439 C 280.246 185.801 280.535 186.238 280.954 186.3 C 281.311 186.354 281.557 185.843 281.387 185.401 C 281.263 185.077 280.513 185.106 280.385 185.439 M 251.784 188.221 C 251.661 188.542 251.798 189 252.018 189 C 252.193 189 252.193 188.71 252.017 188.262 C 251.905 187.975 251.88 187.97 251.784 188.221 M 256.208 189.624 C 255.508 189.973 255.522 190.03 256.417 190.465 C 257.228 190.859 257.258 190.83 257.063 189.854 C 256.944 189.261 256.94 189.26 256.208 189.624 M 216.14 191.327 C 215.711 192.276 215.707 192.318 216.003 192.586 C 216.295 192.85 216.313 192.826 216.415 192.056 C 216.474 191.613 216.56 191.044 216.607 190.792 C 216.734 190.118 216.634 190.231 216.14 191.327 M 179.071 191.08 C 178.895 191.213 178.476 191.325 178.142 191.328 C 177.542 191.333 177.533 191.344 177.474 192.083 C 177.4 193.009 177.372 193.013 178.569 191.909 C 179.48 191.068 179.813 190.519 179.071 191.08 M 198.674 191.371 C 198.024 192.317 196.931 193.001 194.964 193.694 C 192.948 194.404 192.257 194.828 191.782 195.647 C 191.617 195.933 191.504 196.166 191.532 196.165 C 192.077 196.146 200.406 194.315 200.381 194.219 C 200.362 194.144 200.054 193.35 199.697 192.454 L 199.049 190.825 L 198.674 191.371 M 177.138 198.398 C 177.108 199.188 177.097 199.834 177.114 199.834 C 177.779 199.825 177.95 199.501 177.788 198.555 C 177.49 196.806 177.201 196.736 177.138 198.398 M -25 0 L -5 0 L -5 20 L -25 20 L -25 0 Z M 405 0 L 425 0 L 425 20 L 405 20 L 405 0 Z" stroke="none" fill="#0484ab" fill-rule="evenodd" transform="translate(30,293)"/>
  <path style="fill: rgb(4, 132, 171);" d="M 208.548 481.082 C 208.548 483.851 205.116 492.368 207.799 495.051 C 211.656 498.908 219.415 497.094 225.261 499.042 C 226.832 499.566 228.927 498.518 230.499 499.042 C 235.409 500.679 242.898 499.541 248.459 499.541 C 257.999 499.541 267.154 500.539 276.896 500.539 C 286.957 500.539 297.018 500.539 307.079 500.539 C 309.884 500.539 316.112 499.318 318.553 500.539 C 320.91 501.717 325.787 501.038 328.531 501.038 C 335.876 501.038 344.69 502.745 351.979 501.287 C 357.978 500.087 367.803 500.067 373.681 501.537 C 376.26 502.181 379.309 501.515 381.912 502.036 C 385.822 502.817 390.842 501.021 394.634 502.285 C 396.985 503.068 399.982 501.989 402.367 502.784 C 405.137 503.707 408.57 503.283 411.596 503.283 C 419.206 503.283 427.453 503.337 433.548 500.289 C 437.559 498.284 442.082 498.74 445.022 495.799 C 446.641 494.181 445.425 491.252 446.519 489.064 C 447.381 487.34 446.768 483.834 446.768 481.83 C 446.768 476.016 446.02 471.111 446.02 464.868 C 446.02 462.322 446.057 459.056 447.018 457.135 C 447.281 456.609 446.616 455.042 447.018 454.641 C 448.322 453.337 447.766 446.605 447.766 444.414 C 447.766 440.194 447.693 434.831 449.512 431.193 C 450.098 430.021 449.489 428.472 450.261 427.701 C 450.85 427.112 450.236 424.533 450.51 423.71 C 450.98 422.3 451.47 417.148 450.759 415.727 C 449.183 412.573 449.933 407.838 448.265 404.502 C 443.795 395.562 443.322 385.386 439.035 376.814 C 437.012 372.766 439.148 366.313 437.04 362.096 C 436.356 360.729 437.075 358.141 436.042 357.108 C 435.739 356.804 433.526 357.108 433.049 357.108 C 430.573 357.108 426.207 356.217 424.568 357.856 C 422.546 359.878 417.295 360.139 415.338 362.096 C 413.533 363.902 410.425 364.266 408.603 366.088 C 404.383 370.307 398.162 372.787 393.886 377.063 C 390.129 380.82 381.714 379.657 376.924 382.052 C 375.985 382.521 374.136 382.096 373.431 382.8 C 373.178 383.053 371.334 382.8 370.937 382.8 C 369.905 382.8 364.651 382.601 363.952 383.299 C 361.846 385.406 362.741 388.716 361.208 391.781 C 360.894 392.409 361.437 394.046 360.959 394.524 C 359.374 396.109 359.772 399.643 358.714 401.758 C 357.233 404.72 355.442 407.026 353.476 408.992 C 338.818 423.65 315.123 429.634 301.341 443.416 C 300.656 444.101 299.303 449.609 300.593 450.899 C 300.884 451.19 300.302 452.354 300.593 452.645 C 301.435 453.487 301.069 455.616 301.84 456.387 C 303.283 457.829 304.335 460.544 304.335 463.122 C 304.335 463.265 305.004 464.947 304.584 465.367 C 303.753 466.199 302.921 467.03 302.09 467.861 C 301.772 468.18 299.715 469.478 299.346 469.109 C 297.109 466.872 295.497 464.262 293.359 462.124 C 292.525 461.29 290.734 460.996 289.867 460.129 C 288.473 458.735 284.629 457.759 282.883 456.886 C 281.487 456.188 279.8 456.797 278.891 455.888 C 277.977 454.973 275.316 455.805 274.401 454.89 C 273.32 453.809 269.995 454.973 268.914 453.892 C 268.248 453.227 265.588 454.558 264.922 453.892 C 264.202 453.172 262.239 453.832 261.68 454.391 C 259.813 456.258 256.632 456.695 254.695 458.632 C 251.165 462.162 242.905 462.19 239.479 465.616 C 238.606 466.489 236.61 466.24 235.737 467.113 C 235.459 467.391 233.43 467.113 232.993 467.113 C 230.786 467.113 225.245 467.846 224.013 466.614 C 223.868 466.469 221.062 466.073 220.771 466.365 C 219.232 467.903 216.821 468.568 215.283 470.106 C 213.636 471.753 213.314 474.57 211.79 476.093 C 211.296 476.588 210.294 478.266 210.294 479.087"/>
</svg>