<?xml version="1.0" encoding="utf-8"?>
<svg id="splitsvg" version="1.1" viewBox="29.945 0 400.36 199.88" xmlns="http://www.w3.org/2000/svg">
  <defs/>
  <path xmlns="http://www.w3.org/2000/svg" id="path0" d="M 4.417 69.65 C 3.867 69.72 2.648 69.951 1.708 70.165 L 0 70.553 L 0 88.765 C 0 105.969 0.016 106.982 0.292 107.058 C 0.452 107.102 1.183 107.263 1.917 107.416 C 2.65 107.568 3.763 107.842 4.391 108.025 C 5.018 108.208 5.573 108.316 5.623 108.266 C 5.744 108.145 4.602 106.647 3.1 104.956 C 1.59 103.256 1.438 102.985 1.684 102.445 C 2.193 101.329 4.786 101.552 5.468 102.77 C 5.567 102.947 5.65 102.581 5.724 101.641 C 6.133 96.432 9.357 93.217 11.553 95.828 C 12.499 96.952 12.308 98.399 10.798 101.562 C 9.551 104.175 9.164 106.396 10.181 105.103 C 11.425 103.522 14.097 103.084 14.429 104.407 C 14.709 105.524 14.228 106.268 12.548 107.318 C 11.66 107.872 10.436 108.998 10.16 109.513 C 10.026 109.763 10.306 109.904 12.389 110.635 C 19.407 113.095 22.534 113.89 26.333 114.179 C 33.795 114.748 35.822 115.815 36.247 119.4 C 36.396 120.66 36.535 120.968 37.684 122.583 C 39.635 125.328 40.436 127.562 40.284 129.833 C 40.2 131.097 40.019 131.668 38.935 134.083 C 37.878 136.441 38.07 137.723 39.695 139.153 C 40.689 140.028 40.735 140.02 41.33 138.841 C 42.508 136.506 42.984 133.436 42.208 133.165 C 40.971 132.734 40.213 131.974 40.408 131.362 C 40.573 130.842 41.092 130.76 41.731 131.155 C 42.908 131.883 43.082 131.608 42.188 130.432 C 41.31 129.278 41.208 129.05 41.005 127.784 C 40.909 127.181 40.674 126.326 40.482 125.885 C 39.85 124.428 40.448 121.368 41.399 121.191 C 41.729 121.13 41.735 122.752 41.408 123.561 C 41.3 123.828 41.328 123.848 41.605 123.7 C 41.782 123.605 42.1 123.112 42.31 122.604 C 43.068 120.776 43.953 121.178 43.252 123.031 C 41.964 126.434 41.864 126.833 42.302 126.833 C 42.779 126.833 43.456 125.998 43.93 124.827 C 44.685 122.958 45.279 122.597 45.101 124.118 L 44.989 125.068 L 45.38 124.701 C 45.949 124.167 46.231 124.221 46.107 124.84 C 45.957 125.591 45.524 126.074 44.49 126.644 C 43.98 126.925 43.461 127.345 43.337 127.577 C 43.1 128.02 43.114 128.096 43.749 129.825 C 44.183 131.007 44.174 134.797 43.734 136.025 L 43.396 136.966 L 43.781 136.714 C 45.593 135.527 46.985 131.189 46.738 127.5 C 46.469 123.47 46.527 122.787 47.313 120.8 C 48.002 119.059 48.012 119.006 47.732 118.579 C 46.91 117.324 47.857 114.258 49.215 113.778 C 49.727 113.597 49.715 114.083 49.179 115.305 C 48.866 116.018 48.667 116.753 48.667 117.192 L 48.667 117.912 L 49.232 117.081 C 50.366 115.412 51.352 114.867 51.466 115.846 C 51.501 116.142 51.201 116.752 50.482 117.844 C 48.733 120.504 47.938 122.468 48.729 122.177 C 48.984 122.083 49.109 121.857 49.176 121.373 C 49.318 120.334 50.387 118.974 50.84 119.254 C 51.107 119.419 51.022 119.85 50.569 120.623 L 50.138 121.359 L 51.012 120.758 C 51.987 120.087 52.226 120.077 52.301 120.705 C 52.404 121.569 49.82 123.5 48.561 123.5 C 48.124 123.5 48.047 124.85 48.328 127.583 L 48.448 128.75 L 48.474 127.655 C 48.514 125.976 48.89 124.947 49.812 123.99 C 51.025 122.731 51.823 123.195 50.713 124.513 L 50.26 125.052 L 50.945 124.658 C 51.527 124.323 51.672 124.297 51.899 124.485 C 52.287 124.807 52.259 124.873 51.25 126.03 C 50.202 127.231 49.831 127.923 49.711 128.899 L 49.627 129.583 L 51.805 127.333 C 53.685 125.391 53.984 125.008 53.991 124.533 C 54.009 123.427 54.96 122.269 55.774 122.362 C 56.355 122.429 56.509 123.029 56.071 123.514 C 55.731 123.889 55.942 123.93 56.407 123.578 C 56.836 123.254 57.604 123.264 57.732 123.595 C 57.891 124.011 57.57 124.428 56.712 124.92 C 55.805 125.44 53.459 127.181 53.547 127.269 C 53.579 127.301 53.862 127.254 54.177 127.164 C 55.182 126.876 56.333 126.951 56.333 127.304 C 56.333 127.999 55.178 128.663 53.063 129.184 C 50.895 129.719 50.425 130.362 50.104 133.231 L 49.914 134.927 L 50.542 134.516 C 50.979 134.23 51.221 133.919 51.335 133.495 C 51.659 132.292 53.067 130.801 54.618 130.02 C 55.921 129.364 56.435 129.786 55.503 130.747 C 54.966 131.301 54.965 131.306 55.354 131.361 C 56.493 131.523 55.645 132.312 53.96 132.659 C 53.162 132.824 52.323 133.382 52.546 133.6 C 52.6 133.654 56.994 133.007 57.564 132.862 C 58.019 132.745 58.047 132.686 58.091 131.744 C 58.116 131.197 58.249 130.441 58.387 130.063 C 58.629 129.396 58.622 129.348 58.139 128.396 C 57.625 127.384 57.582 126.587 58.012 126.068 C 58.384 125.621 58.691 125.831 59.119 126.824 L 59.547 127.815 L 60.065 127.42 C 61.657 126.209 62.315 127.076 61.011 128.667 C 60.123 129.748 60.101 129.831 60.787 129.481 C 61.829 128.95 62.563 129.167 61.958 129.827 C 61.844 129.952 62.195 129.7 62.738 129.266 C 64.317 128.005 65.265 127.626 66.07 127.934 C 66.634 128.151 66.333 128.651 65.196 129.386 C 64.458 129.863 63.626 130.63 62.83 131.564 C 60.932 133.793 60.146 134.127 55.722 134.582 C 52.87 134.875 51.837 135.175 50.013 136.238 C 48.9 136.887 46.915 137.777 45.417 138.299 C 44.939 138.466 44.954 138.475 45.75 138.492 C 46.661 138.512 48.728 138.759 49.403 138.928 C 49.763 139.018 49.855 138.962 50.004 138.559 C 50.101 138.297 50.468 137.783 50.821 137.417 C 51.173 137.05 51.725 136.469 52.048 136.125 C 52.745 135.381 53.43 135.258 53.268 135.905 C 53.185 136.236 53.235 136.32 53.541 136.363 C 54.614 136.516 54.003 137.319 52.468 137.775 C 51.05 138.196 50.286 139.333 51.422 139.333 C 52.367 139.333 53.131 138.91 54.455 137.652 C 56.208 135.987 58.613 134.869 59.546 135.285 C 60.029 135.501 58.722 136.83 57.25 137.621 C 56.391 138.082 56.315 138.158 56.712 138.162 C 56.974 138.165 57.544 137.913 58.026 137.581 C 59.354 136.668 60.325 136.542 59.676 137.367 C 59.329 137.808 59.329 137.809 59.664 137.916 C 60.141 138.067 60.081 138.402 59.487 138.902 C 58.638 139.617 56.866 139.706 55.642 139.096 L 55.101 138.826 L 54.175 139.737 C 52.716 141.174 51.571 141.334 48.099 140.583 C 45.254 139.968 43.214 140.078 42.118 140.905 C 41.838 141.116 41.866 141.198 42.555 142.19 C 44.835 145.471 45.638 149.62 44.735 153.446 C 44.643 153.833 44.663 153.88 44.845 153.708 C 45.262 153.316 46.079 153.477 47.136 154.16 C 49.282 155.547 49.331 155.544 49.335 154.028 C 49.341 151.736 50.452 149.96 51.369 150.777 C 52.08 151.41 52.222 152.096 52.334 155.417 C 52.393 157.158 52.455 158.415 52.471 158.21 C 52.523 157.549 53.53 154.598 53.865 154.125 C 54.53 153.185 54.998 153.67 55.149 155.458 L 55.259 156.75 L 55.375 154.644 C 55.573 151.049 56.246 147.822 57.068 146.528 C 57.492 145.859 58.303 145 58.509 145 C 58.581 145 58.748 144.958 58.882 144.907 C 59.709 144.59 59.849 145.835 59.259 148.25 C 58.611 150.902 58.459 152.954 58.588 157.333 C 58.743 162.608 58.408 164.109 56.267 167.729 C 55.546 168.95 55.535 168.989 55.887 169.095 C 56.087 169.156 56.479 169.377 56.759 169.586 L 57.267 169.967 L 58.061 169.067 C 59.219 167.753 59.493 167.97 59.498 170.208 L 59.5 171 L 60.146 171 C 60.517 171 60.881 170.894 61 170.75 C 61.268 170.428 61.667 170.428 61.667 170.75 C 61.667 171.089 64.148 171.086 67.083 170.744 C 71.691 170.208 76.732 170.257 78.303 170.854 C 78.762 171.028 78.717 170.767 78.062 169.464 C 77.248 167.845 76.175 167 74.931 167 C 74.432 167 74.132 166.797 72.8 165.556 C 70.679 163.58 70.764 163.743 70.667 161.445 C 70.562 158.974 70.52 158.926 68.583 159.061 C 66.751 159.188 65.414 159.572 64.351 160.274 L 63.452 160.868 L 63.792 160.393 C 67.268 155.527 72.363 156.442 73.856 162.199 C 74.541 164.839 74.898 165.23 76.44 165.037 L 77.417 164.915 L 76.626 164.451 C 75.639 163.872 75.399 163.405 75.293 161.86 C 75.192 160.393 74.929 159.968 73.653 159.221 C 72.275 158.413 71.896 158.066 71.351 157.114 C 70.699 155.975 69.775 155.425 68.542 155.442 C 67.505 155.456 67.413 155.228 68.154 154.487 C 68.948 153.693 69.697 153.795 70.698 154.833 C 71.48 155.645 71.526 155.667 72.468 155.667 C 74.237 155.667 75.68 156.979 76.355 159.201 C 76.675 160.254 76.767 160.382 77.59 160.928 C 78.079 161.253 78.619 161.739 78.79 162.01 L 79.101 162.501 L 79.47 161.355 C 80.168 159.187 81.41 158.039 83.462 157.666 C 85.02 157.382 85.739 157.021 87.054 155.864 C 88.972 154.177 89.6 154.117 90.517 155.536 C 91.083 156.41 91.228 156.498 92.567 156.78 C 93.372 156.949 93.766 157.472 93.917 158.572 L 94.029 159.394 L 93.429 158.867 C 91.573 157.237 89.615 157.323 87.898 159.11 L 87.044 159.999 L 86.033 159.894 C 84.877 159.773 84.072 160.13 83.009 161.236 L 82.435 161.833 L 83.197 161.833 C 83.647 161.833 84.344 162.004 84.901 162.25 C 86.192 162.821 86.561 162.782 87.825 161.936 C 89.641 160.721 91.079 160.43 91.381 161.218 C 91.432 161.351 91.849 161.55 92.307 161.66 C 93.414 161.926 93.7 162.269 93.692 163.32 C 93.682 164.657 93.498 164.802 92.846 163.991 C 91.641 162.491 90.617 162.294 89.418 163.332 C 88.509 164.119 88.108 164.244 86.949 164.1 C 83.941 163.727 83.763 163.74 83.062 164.387 C 81.63 165.708 83.176 166.214 85.513 165.189 C 87.551 164.295 88.108 164.288 89.045 165.143 C 90.116 166.12 90.393 166.22 91.67 166.094 C 92.951 165.968 92.906 165.926 93.089 167.432 L 93.208 168.417 L 92.81 168.05 C 91.738 167.061 90.938 166.992 89.357 167.75 C 87.879 168.458 88.087 168.458 86.595 167.75 C 84.704 166.853 83.502 166.897 82.38 167.906 C 81.928 168.313 81.354 168.697 81.106 168.759 C 80.59 168.889 80.218 169.504 80.022 170.556 L 79.887 171.274 L 80.96 171.83 C 81.549 172.136 82.332 172.637 82.698 172.943 C 83.498 173.612 83.307 173.605 84.833 173.015 C 85.521 172.749 86.871 172.358 87.833 172.146 C 88.796 171.934 89.648 171.656 89.727 171.529 C 89.805 171.402 90.084 171.062 90.347 170.774 L 90.824 170.25 L 90.828 170.917 L 90.833 171.584 L 93.083 171.348 L 95.333 171.112 L 95.336 170.265 C 95.343 168.322 96.219 165.831 97.363 164.5 L 97.865 163.917 L 97.755 164.446 C 97.551 165.429 97.967 168.161 98.486 169.25 C 99.345 171.054 98.423 170.93 106.506 170.329 C 110.398 170.04 114.015 169.833 114.542 169.87 C 115.069 169.908 115.5 169.874 115.5 169.796 C 115.5 169.719 115.631 169.725 115.792 169.81 C 116.275 170.067 120.073 170.883 120.914 170.911 C 121.371 170.926 121.145 170.263 120.507 169.717 C 120.09 169.361 119.582 168.657 119.221 167.939 C 118.512 166.525 117.203 164.59 116.502 163.919 C 115.886 163.328 115.868 163.069 116.434 162.927 C 117.793 162.586 120.594 164.785 121.604 166.985 L 122.079 168.02 L 122.298 167.155 C 122.501 166.353 122.493 166.264 122.186 165.936 C 120.918 164.581 120.427 159.719 121.327 157.419 L 121.522 156.921 L 121.843 157.335 C 124.002 160.128 124.893 164.241 123.715 165.979 C 123.551 166.22 123.336 166.851 123.236 167.381 L 123.055 168.346 L 123.569 167.851 C 124.455 166.999 126.557 166.167 127.823 166.167 C 128.171 166.167 127.515 168.042 126.832 169.002 C 126.055 170.093 124.437 170.59 123.261 170.099 C 122.906 169.95 122.6 169.849 122.582 169.873 C 122.563 169.897 122.431 170.269 122.287 170.7 L 122.026 171.483 L 122.721 171.894 C 123.104 172.12 123.675 172.574 123.991 172.902 C 124.393 173.32 124.718 173.504 125.074 173.513 C 125.354 173.52 125.87 173.614 126.219 173.721 L 126.855 173.917 L 126.282 174.47 L 125.71 175.024 L 126.517 176.958 C 127.535 179.395 127.441 179.334 128.38 178.161 L 129.174 177.169 L 128.641 176.692 C 127.89 176.021 127.824 174.865 128.404 172.5 C 128.64 171.537 128.833 170.581 128.833 170.375 C 128.833 169.832 129.069 169.912 129.655 170.652 C 130.532 171.759 131.059 173.111 131.072 174.289 C 131.086 175.559 130.928 175.582 132.588 174.074 L 133.975 172.815 L 133.573 172.033 C 133.28 171.459 133.108 170.692 132.932 169.164 C 132.786 167.897 132.495 166.465 132.19 165.519 L 131.689 163.96 L 132.289 164.057 C 133.875 164.315 135.488 167.204 135.539 169.878 C 135.551 170.499 135.607 170.949 135.664 170.878 C 136.595 169.732 136.692 169.498 136.49 168.886 C 135.962 167.287 137.181 163.041 138.716 161.131 C 139.405 160.273 139.43 160.295 139.645 161.97 C 140.143 165.857 139.527 168.667 137.96 169.643 C 137.661 169.829 137.311 170.154 137.183 170.366 C 137.054 170.577 136.843 170.913 136.714 171.112 L 136.479 171.474 L 137.266 171.237 C 137.699 171.107 138.457 171 138.95 171 L 139.847 171 L 140.323 169.995 L 140.798 168.989 L 141.398 169.69 C 142.096 170.505 142.621 171.799 142.77 173.074 L 142.876 173.975 L 143.438 173.158 C 143.747 172.709 144 172.167 144 171.953 C 144 170.165 147.484 167.942 151.388 167.239 L 152.027 167.125 L 151.611 167.945 C 150.547 170.044 147.264 172.689 145.406 172.944 C 144.758 173.033 144.583 173.141 144.267 173.649 C 143.586 174.745 143.591 174.715 144.14 174.43 C 146.484 173.218 150.485 173.558 151.401 175.046 C 151.673 175.488 151.359 175.606 149.612 175.715 C 148.598 175.778 147.634 175.963 146.75 176.264 C 145.77 176.597 145.063 176.721 144.083 176.733 C 143.235 176.744 142.703 176.824 142.62 176.953 C 142.503 177.135 141.333 180.272 141.333 180.404 C 141.333 180.434 141.65 180.301 142.038 180.11 C 143.007 179.63 144.589 179.551 145.935 179.915 C 146.864 180.167 147.49 180.5 147.033 180.5 C 146.949 180.5 146.035 181.096 145.002 181.825 C 142.842 183.347 142.72 183.174 146.25 183.587 C 151.528 184.204 155.093 185.275 157.958 187.104 C 158.715 187.587 158.833 187.621 158.833 187.357 C 158.833 187.189 158.983 186.916 159.167 186.75 C 159.35 186.584 159.5 186.305 159.5 186.13 C 159.5 185.299 160.737 184.318 161.388 184.632 C 161.587 184.729 162.073 184.852 162.467 184.907 C 162.861 184.962 163.479 185.193 163.839 185.42 C 164.199 185.647 164.63 185.833 164.796 185.833 C 165.107 185.833 166.086 186.79 166.461 187.461 C 166.685 187.861 166.714 190.053 166.5 190.496 C 166.238 191.041 166.015 191.889 166.098 192.024 C 166.146 192.102 166.069 192.333 165.926 192.537 C 165.561 193.059 165.599 193.167 166.148 193.167 C 167.544 193.167 167.935 195.296 166.889 197.208 C 166.601 197.735 166.403 198.167 166.448 198.167 C 166.494 198.167 168.681 198.578 171.307 199.081 C 174.745 199.738 176.223 199.957 176.583 199.861 L 177.083 199.727 L 177.131 198.103 C 177.175 196.612 177.15 196.456 176.82 196.19 C 176.161 195.656 176.224 195.002 177.1 193.309 C 177.944 191.676 177.466 191.167 175.858 191.988 C 175.064 192.392 174.5 192.285 174.5 191.731 C 174.5 191.407 174.586 191.333 174.963 191.333 C 175.469 191.333 176.223 190.892 176.088 190.674 C 176.042 190.599 176.115 190.445 176.252 190.332 C 176.388 190.219 176.5 190.02 176.5 189.891 C 176.5 189.762 176.612 189.613 176.75 189.56 C 176.887 189.508 177 189.327 177 189.16 C 177 188.837 177.81 188.167 178.201 188.167 C 178.343 188.167 178.584 187.704 178.816 186.981 C 180.19 182.716 183.642 178.006 187.552 175.06 C 190.928 172.517 192.044 172.228 199.417 171.989 C 203.523 171.855 206.506 171.547 205.897 171.32 C 205.794 171.281 206.879 170.162 208.307 168.833 C 212.919 164.542 212.673 164.939 210.573 165.176 C 207.376 165.538 204.834 166.342 202.097 167.857 C 198.371 169.919 197.159 169.981 193.417 168.298 C 189.36 166.474 186.588 166.428 180.583 168.084 C 177.402 168.961 175.135 169.524 175.066 169.455 C 174.931 169.32 175.651 165.013 175.885 164.562 C 176.022 164.295 176.548 163.615 177.052 163.05 C 179.579 160.218 180.283 158.352 180.498 153.917 C 180.618 151.438 180.675 151.099 181.309 149.117 C 181.922 147.202 182.333 145.066 182.333 143.802 C 182.333 143.371 182.268 143.41 181.182 144.496 C 179.533 146.145 179.159 147.29 178.92 151.417 C 178.717 154.929 178.297 156.24 176.819 157.978 C 174.76 160.398 174.141 161.444 173.661 163.317 L 173.474 164.05 L 173.052 162.9 C 171.059 157.463 170.957 156.794 171.867 155.083 C 172.11 154.625 172.516 153.839 172.768 153.336 L 173.227 152.422 L 172.946 150.753 C 172.601 148.709 172.594 147.532 172.914 145.583 C 173.265 143.449 173.226 142.102 172.75 139.901 C 172.105 136.915 172.205 135.061 173.081 133.77 C 173.668 132.905 173.241 133.026 172.314 133.988 C 170.906 135.449 170.66 137.546 171.473 141.167 C 172.465 145.586 172.438 145.787 170.238 150.333 C 167.919 155.128 167.875 155.827 169.68 159.387 C 170.838 161.67 171.16 162.903 171.164 165.071 L 171.167 166.558 L 170.792 166.22 C 170.585 166.033 169.955 165.572 169.391 165.195 C 167.557 163.969 167 162.929 167 160.732 C 167 158.743 163.28 148.554 161.627 146.014 L 161.13 145.25 L 161.239 146 C 161.494 147.754 162.058 149.537 162.917 151.305 C 164.02 153.578 164.048 153.971 163.25 155.951 C 162.34 158.208 162.438 158.669 163.899 158.996 C 166.159 159.502 166.485 160.298 166.093 164.351 C 165.827 167.099 166.158 167.63 168.791 168.673 C 170.963 169.534 171.137 169.667 170.099 169.667 C 165.879 169.667 163.467 167.326 161.486 161.306 C 159.684 155.827 158.832 154.936 154.586 154.082 C 150.897 153.34 150.201 152.362 149.666 147.167 C 149.253 143.152 148.176 141.586 145.833 141.597 C 144.366 141.604 143.745 142.044 140.189 145.6 C 135.365 150.423 134.227 150.801 131.287 148.549 C 128.969 146.775 127.939 146.608 125.417 147.602 C 119.355 149.988 118.465 149.81 115.74 145.67 C 112.901 141.358 111.389 140.811 104.631 141.653 C 98.933 142.363 97.79 142.057 93.011 138.544 C 91.859 137.697 90.446 136.755 89.87 136.449 C 88.638 135.796 88.697 135.649 90.447 135.01 C 92.971 134.089 93.816 132.543 93.173 130.023 C 92.591 127.744 92.659 127.475 94.222 125.875 C 95.344 124.728 95.336 124.718 93.616 125.1 C 91.576 125.553 91.386 125.85 90.586 129.817 C 90.025 132.602 89.986 132.685 88.883 133.417 C 87.859 134.097 87.869 133.966 88.961 132.427 C 90.544 130.194 90.536 128.303 88.922 123.196 C 88.506 121.883 88.162 120.571 88.157 120.28 C 88.135 119.072 86.5 123.671 86.5 124.94 C 86.5 125.23 86.774 126.168 87.108 127.025 C 87.975 129.248 87.972 130.532 87.094 132.485 C 86.553 133.687 86.474 134.015 86.537 134.777 C 86.578 135.266 86.589 135.667 86.563 135.667 C 86.214 135.667 85.662 135.192 85.581 134.822 C 85.468 134.31 85.648 133.888 86.554 132.543 C 87.934 130.494 87.714 129.134 85.743 127.516 C 84.276 126.312 84.013 125.944 83.859 124.885 L 83.742 124.083 L 83.288 124.991 C 82.617 126.33 82.656 127.637 83.42 129.492 C 84.068 131.065 84.12 131.672 83.736 133.17 C 83.429 134.367 83.519 134.898 84.137 135.564 C 84.454 135.905 84.52 136.067 84.365 136.123 C 84.244 136.166 83.344 136.731 82.365 137.377 C 78.749 139.765 77.166 140.029 74.473 138.695 C 70.576 136.764 69.505 134.324 70.485 129.604 C 71.025 127.006 71.114 125.823 70.829 125.071 C 70.619 124.52 70.742 124.363 71.172 124.631 C 71.35 124.742 71.749 124.833 72.059 124.833 C 72.866 124.833 73.431 125.361 73.848 126.504 C 74.256 127.622 74.337 127.711 75.208 127.991 C 75.969 128.236 76.333 128.719 76.333 129.483 L 76.333 130.058 L 76.747 129.669 C 77.42 129.037 77.439 128.696 76.829 128.186 C 76.373 127.806 76.279 127.598 76.208 126.827 C 76.108 125.726 75.886 125.446 74.798 125.055 C 73.616 124.629 72.883 123.667 73.742 123.667 C 74.346 123.667 74.94 123.986 75.135 124.415 C 75.512 125.24 76.356 126 77.015 126.105 C 78.077 126.275 78.253 126.498 78.232 127.649 L 78.213 128.656 L 78.703 128.307 C 79.412 127.802 79.606 127.291 79.27 126.811 C 79.121 126.599 79 126.216 79 125.96 C 79 125.399 78.326 124.928 77.284 124.761 C 76.441 124.627 76.073 124.315 75.819 123.522 C 75.712 123.189 75.503 122.774 75.354 122.6 C 75.092 122.294 75.11 122.287 75.917 122.39 C 76.596 122.477 76.842 122.604 77.25 123.082 C 77.684 123.59 77.849 123.667 78.5 123.667 C 79.865 123.668 80.833 124.611 80.833 125.937 L 80.833 126.558 L 81.25 126.167 C 81.731 125.715 81.788 125.081 81.399 124.525 C 81.194 124.233 81.157 123.936 81.241 123.266 C 81.384 122.123 80.685 121.708 78.56 121.67 C 78.456 121.668 77.969 121.389 77.477 121.049 C 76.324 120.252 74.865 120.085 73.921 120.642 L 73.333 120.989 L 73.333 120.011 C 73.333 119.319 73.455 118.773 73.748 118.142 C 74.372 116.802 74.247 115.522 73.424 114.84 C 73.233 114.681 73.189 114.466 73.265 114.06 C 73.428 113.195 73.004 112.667 72.148 112.667 L 71.47 112.667 L 71.902 113.18 C 72.42 113.796 72.58 114.348 72.416 114.961 C 72.255 115.562 72.254 116.392 72.411 117.426 C 72.535 118.247 72.521 118.288 71.853 119.061 C 71.384 119.602 71.167 120.009 71.167 120.343 C 71.167 120.867 71.023 120.956 70.7 120.633 C 70.356 120.29 70.476 119.809 71.208 118.598 C 73.071 115.516 71.074 112.213 67.878 113.089 L 67.417 113.215 L 67.917 113.329 C 68.593 113.482 69.117 113.77 69.959 114.45 C 71.157 115.418 71.165 115.547 70.096 116.667 L 69.167 117.642 L 69.168 119.196 C 69.169 120.466 69.229 120.841 69.5 121.25 C 69.843 121.768 69.932 122.586 69.688 122.971 C 69.338 123.523 64.864 118.628 63.954 116.696 C 63.02 114.714 63.005 113.783 63.842 109.667 C 64.587 106.001 64.841 102.242 64.46 100.531 C 64.235 99.517 65.742 99.142 69.258 99.34 C 70.356 99.401 70.683 99.361 71.057 99.116 C 72.924 97.893 71.7 96.083 69.005 96.083 C 66.836 96.083 67.388 95.379 70.948 93.604 C 74.58 91.793 75.665 90.318 74.695 88.51 C 73.599 86.466 70.026 87.262 67.126 90.198 C 65.971 91.367 65.833 91.461 65.833 91.081 C 65.833 89.481 63.951 87.973 62.907 88.737 C 62.604 88.958 62.583 89.203 62.583 92.612 C 62.583 96.704 62.552 96.847 61.781 96.269 C 60.993 95.678 59.698 95.065 58.576 94.753 C 56.975 94.308 57.033 94.351 57.5 93.962 C 57.729 93.772 58.616 93.283 59.47 92.875 C 61.209 92.046 61.382 91.834 60.813 91.228 C 60.496 90.891 60.291 90.818 59.788 90.866 C 59.301 90.913 59.18 90.874 59.249 90.692 C 60.327 87.883 59.242 85.059 57.586 86.361 C 56.884 86.913 56.664 87.634 56.682 89.316 C 56.691 90.136 56.618 90.944 56.521 91.112 C 56.36 91.388 56.343 91.39 56.338 91.131 C 56.328 90.554 55.33 89.645 54.767 89.7 C 53.983 89.776 53.975 90.585 54.742 92.057 C 55.067 92.681 55.333 93.368 55.333 93.585 L 55.333 93.979 L 54.125 93.647 C 52.389 93.17 50.518 92.218 48.417 90.744 C 41.455 85.858 36.405 83.03 29.75 80.293 C 26.117 78.798 23.801 78.07 16.778 76.217 L 15.64 75.917 L 15.349 75.05 C 14.087 71.303 9.453 69.013 4.417 69.65 M 58.84 87.575 C 58.601 87.863 58.073 87.919 57.92 87.673 C 57.866 87.584 57.982 87.351 58.178 87.155 C 58.631 86.703 59.242 87.091 58.84 87.575 M 73.167 88.584 C 73.546 89.041 72.997 90.5 72.446 90.5 C 71.774 90.5 71.4 89.124 71.929 88.595 C 72.26 88.264 72.896 88.258 73.167 88.584 M 55.255 90.174 C 55.37 90.361 55.054 90.833 54.813 90.833 C 54.642 90.833 54.615 90.274 54.778 90.111 C 54.939 89.95 55.131 89.975 55.255 90.174 M 64.613 90.269 C 65.273 90.446 65.284 91.22 64.629 91.392 C 64.169 91.512 63.167 91.084 63.167 90.767 C 63.167 90.303 63.857 90.066 64.613 90.269 M 59.994 91.656 C 60.207 92.054 60.211 92.167 60.012 92.167 C 59.764 92.167 59.321 91.654 59.425 91.487 C 59.577 91.24 59.809 91.309 59.994 91.656 M 8.735 96.415 C 8.233 97.183 8.682 98.033 9.606 98.063 L 10.25 98.083 L 10.236 97.377 C 10.211 96.154 9.293 95.565 8.735 96.415 M 70.736 96.934 C 71.113 97.079 71.065 97.89 70.657 98.259 C 70.032 98.824 69.394 97.988 69.829 97.175 C 70.016 96.825 70.273 96.757 70.736 96.934 M 3.26 103.185 C 2.918 103.591 2.865 103.754 3.015 103.935 C 3.496 104.515 4.667 103.963 4.667 103.157 C 4.667 102.444 3.87 102.46 3.26 103.185 M 12.434 104.256 C 12.079 104.611 12.097 104.866 12.512 105.394 C 13.092 106.132 13.671 105.906 13.664 104.945 C 13.659 104.203 12.908 103.783 12.434 104.256 M 7.803 122.075 C 5.788 124.007 5.33 127.02 6.707 129.291 C 7.527 130.645 8.248 131.074 9.159 130.753 C 12.379 129.617 14.906 131.555 14.018 134.479 C 13.342 136.702 13.722 137.255 15.833 137.124 C 22.422 136.716 26.324 129.081 21.924 125.208 C 20.421 123.885 17.23 123.353 15.994 124.218 C 15.238 124.748 14.723 124.158 15.141 123.24 C 15.302 122.887 15.279 122.827 14.954 122.75 C 7.927 121.085 8.755 121.163 7.803 122.075 M 48.262 130.75 C 47.929 133.028 47.503 133.933 45.887 135.801 C 44.531 137.368 44.56 137.475 46.125 136.686 C 48.081 135.699 48.338 135.293 48.616 132.75 C 48.758 131.457 48.754 131.337 48.536 130.5 L 48.384 129.917 L 48.262 130.75 M 60.377 130.902 C 59.463 131.355 58.936 132 59.481 132 C 59.629 132 61.5 130.514 61.5 130.396 C 61.5 130.362 61.481 130.346 61.458 130.361 C 61.435 130.376 60.949 130.62 60.377 130.902 M 44.684 155.684 C 44.662 156.225 45.235 157.08 46 157.649 C 46.547 158.057 46.536 158.03 45.819 157.221 C 45.399 156.747 44.976 156.11 44.878 155.805 C 44.714 155.29 44.699 155.281 44.684 155.684 M 54.943 157.583 C 54.867 157.95 54.476 159.103 54.076 160.146 L 53.349 162.042 L 53.777 162.605 C 54.013 162.914 54.263 163.167 54.331 163.167 C 54.594 163.167 55.222 158.867 55.136 157.658 L 55.083 156.917 L 54.943 157.583 M 47.937 158.812 C 48.105 158.951 49.658 160.157 49.936 160.365 C 50.072 160.466 50.073 160.324 49.943 159.835 C 49.81 159.336 49.678 159.165 49.424 159.159 C 49.237 159.155 48.793 159.048 48.437 158.922 C 48.082 158.795 47.857 158.746 47.937 158.812 M 213.082 159.667 C 213.872 160.591 213.883 160.601 213.702 160.25 C 213.608 160.067 213.082 159.667 213.082 159.667 M 213.45 162.584 C 213.716 163.141 213.714 163.179 213.406 163.426 C 213.097 163.674 213.099 163.678 213.458 163.503 C 213.901 163.289 213.918 163.147 213.579 162.492 C 213.221 161.8 213.113 161.877 213.45 162.584 M 52.667 166.097 C 52.667 166.549 52.597 167.162 52.512 167.459 C 52.282 168.26 52.435 168.12 52.989 167.021 L 53.483 166.042 L 53.075 165.659 L 52.667 165.275 L 52.667 166.097 M 133.775 174.475 L 132.14 176.116 L 133.212 176.216 C 133.802 176.271 134.689 176.47 135.184 176.658 C 135.679 176.846 136.102 177 136.125 177 C 136.148 177 136.167 176.625 136.167 176.167 C 136.167 175.174 136.132 175.182 137.248 175.922 C 138.232 176.575 139.307 177.865 139.816 179.003 L 140.15 179.748 L 140.423 179.082 C 140.573 178.716 141.02 177.727 141.416 176.885 L 142.136 175.353 L 141.663 175.249 C 141.402 175.192 140.879 174.808 140.5 174.397 C 139.824 173.664 139.798 173.653 139.219 173.844 C 137.904 174.278 136.251 173.946 135.832 173.165 C 135.572 172.678 135.553 172.69 133.775 174.475 M 130.055 178.458 C 129.689 178.894 129.268 179.439 129.118 179.67 L 128.846 180.089 L 130.548 180.086 C 131.484 180.085 132.522 180.146 132.855 180.223 C 133.428 180.356 133.475 180.334 133.733 179.818 C 134.039 179.205 133.904 179.01 133.167 178.999 C 132.568 178.99 131.388 178.417 131.136 178.012 C 130.842 177.543 130.812 177.555 130.055 178.458 M 135.708 178.89 C 134.84 179.103 134.838 179.055 135.745 180.161 C 136.155 180.661 136.659 181.387 136.865 181.775 C 137.446 182.87 138.594 183.038 139.045 182.094 L 139.318 181.521 L 138.751 181.334 C 138.109 181.122 137.331 180.309 136.831 179.329 C 136.645 178.965 136.476 178.678 136.455 178.692 C 136.434 178.705 136.098 178.795 135.708 178.89 M 162.782 188.422 C 162.463 188.703 162.117 188.833 161.689 188.833 C 160.616 188.833 160.393 189.124 160.749 190.057 C 161.087 190.943 161.191 190.991 161.558 190.432 C 161.703 190.211 162.199 189.659 162.66 189.204 C 163.745 188.137 163.846 187.486 162.782 188.422 M 164.697 197.195 C 164.726 197.394 164.834 197.585 164.936 197.619 C 165.054 197.657 165.093 197.524 165.042 197.257 C 164.944 196.742 164.622 196.685 164.697 197.195 M -25 0 L -5 0 L -5 20 L -25 20 L -25 0 Z M 405 0 L 425 0 L 425 20 L 405 20 L 405 0 Z" stroke="none" fill-rule="evenodd" transform="translate(30,0)" fill="#1c9cbc"/>
  <path style="fill: rgb(28, 156, 188);" d="M 29.695 81.07 C 31.31 81.07 33.941 81.574 34.933 82.567 C 35.99 83.623 39.203 83.08 40.671 83.814 C 43.461 85.209 46.475 85.877 48.404 87.805 C 49.531 88.933 52.221 88.878 53.392 90.05 C 56.662 93.319 61.571 94.986 64.618 98.032 C 70.86 104.275 77.015 110.679 82.827 116.491 C 84.092 117.756 86.432 117.602 87.816 118.986 C 90.033 121.202 91.207 123.873 93.304 125.97 C 94.011 126.677 95.59 126.511 96.297 127.217 C 99.364 130.284 96.965 138.612 100.039 141.685 C 101.649 143.295 104.745 142.417 106.774 143.431 C 107.142 143.615 108.24 143.152 108.52 143.431 C 109.667 144.578 113.395 143.566 114.507 144.678 C 115.294 145.466 117.7 144.878 118.498 145.676 C 120.666 147.844 126.636 147.329 128.725 149.418 C 130.022 150.715 133.955 149.409 135.211 150.665 C 137.824 153.278 144.667 151.652 148.182 153.409 C 149.57 154.103 152.935 152.924 153.919 153.908 C 156.174 156.163 162.435 155.048 165.643 156.652 C 166.86 157.26 168.459 156.724 169.385 157.65 C 169.75 158.015 171.232 157.751 171.63 158.149 C 173.842 160.361 179.247 160.028 181.358 162.14 C 187.299 168.081 194.882 169.926 200.316 175.36 C 201.375 176.419 203.897 175.948 205.055 177.106 C 205.554 177.605 207.3 176.857 207.799 177.356 C 208.98 178.536 214.855 176.786 215.283 176.358 C 216.957 174.684 219.714 174.171 221.269 172.616 C 221.727 172.159 223.057 172.575 223.514 172.118 C 224.387 171.244 227.88 172.991 228.753 172.118 C 229.293 171.577 230.956 172.159 231.497 171.619 C 232.435 170.68 234.105 170.257 234.989 169.374 C 235.346 169.016 239.727 166.379 240.477 167.129 C 241.142 167.794 240.31 169.956 240.976 170.621 C 241.599 171.244 240.851 173.24 241.475 173.864 C 242.714 175.103 241.973 180.53 241.973 182.594 C 241.973 183.896 241.476 187.585 242.223 188.331 C 242.971 189.08 241.724 191.824 242.472 192.572 C 243.021 193.121 242.902 198.378 242.472 198.808 C 240.853 200.427 236.098 200.624 233.742 201.802 C 233.238 202.054 231.613 201.686 231.247 202.051 C 230.269 203.03 227.623 203.24 226.009 204.047 C 225.469 204.317 223.651 203.91 223.265 204.296 C 222.172 205.389 218.948 204.459 217.278 205.294 C 216.7 205.583 214.974 204.854 214.534 205.294 C 213.692 206.136 210.52 205.793 209.047 205.793 C 204.881 205.793 200.755 206.042 196.325 206.042 C 186.68 206.042 177.034 206.042 167.389 206.042 C 163.862 206.042 158.239 204.935 154.917 206.042 C 150.82 207.408 145.493 207.289 140.948 207.289 C 139.241 207.289 136.559 206.757 134.961 207.289 C 132.017 208.271 127.612 207.539 124.484 207.539 C 115.796 207.539 107.26 207.453 98.792 206.042 C 87.511 204.162 75.384 206.302 64.368 203.548 C 63.069 203.223 61.396 203.97 60.127 203.548 C 53.397 201.304 46.548 202.43 40.172 200.305 C 38.087 199.61 35.162 199.92 33.437 199.058 C 31.63 198.154 28.986 199.701 27.201 198.808 C 25.998 198.207 22.833 198.682 21.962 197.81 C 20.89 196.738 18.308 197.15 17.223 196.064 C 16.35 195.192 15.256 194.346 14.479 193.57 C 13.133 192.224 14.834 189.042 13.98 187.334 C 13.422 186.217 14.126 184.778 13.731 183.592 C 11.98 178.341 14.475 171.608 12.733 166.38 C 11.218 161.836 12.058 152.189 13.481 147.921 C 15.877 140.734 16.225 132.946 16.225 124.972 C 16.225 123.106 15.346 116.622 16.475 115.493 C 17.194 114.773 16.001 111.951 16.475 111.003 C 17.46 109.033 17.891 105.097 19.218 103.769 C 20.243 102.744 19.053 99.944 19.967 99.03 C 21.2 97.797 21.553 94.95 22.711 93.792 C 23.168 93.334 22.752 92.004 23.21 91.547 C 26.313 88.443 25.303 81.07 31.192 81.07"/>
</svg>